<svg width="321" height="252" viewBox="0 0 321 252" fill="none" xmlns="http://www.w3.org/2000/svg">
<path d="M2.71484 72.5625H13.0469C15.2083 72.5625 17.0638 72.888 18.6133 73.5391C20.1628 74.1901 21.3542 75.1536 22.1875 76.4297C23.0208 77.7057 23.4375 79.2747 23.4375 81.1367C23.4375 82.6081 23.1771 83.8841 22.6562 84.9648C22.1354 86.0456 21.3997 86.9505 20.4492 87.6797C19.5117 88.4089 18.4049 88.9818 17.1289 89.3984L15.4492 90.2578H6.32812L6.28906 86.0195H13.1055C14.2122 86.0195 15.1302 85.8242 15.8594 85.4336C16.5885 85.043 17.1354 84.5026 17.5 83.8125C17.8776 83.1224 18.0664 82.3346 18.0664 81.4492C18.0664 80.4987 17.8841 79.6784 17.5195 78.9883C17.1549 78.2852 16.6016 77.7448 15.8594 77.3672C15.1172 76.9896 14.1797 76.8008 13.0469 76.8008H8.08594V101H2.71484V72.5625ZM18.7695 101L12.1875 88.2656L17.8711 88.2461L24.5312 100.727V101H18.7695ZM42.5945 96.5078V86.7617C42.5945 86.0456 42.4708 85.4271 42.2234 84.9062C41.976 84.3854 41.5984 83.9818 41.0906 83.6953C40.5828 83.4089 39.9383 83.2656 39.157 83.2656C38.4669 83.2656 37.8615 83.3828 37.3406 83.6172C36.8328 83.8516 36.4422 84.1836 36.1688 84.6133C35.8953 85.0299 35.7586 85.5117 35.7586 86.0586H30.5828C30.5828 85.1862 30.7911 84.3594 31.2078 83.5781C31.6245 82.7839 32.2169 82.0807 32.9852 81.4688C33.7664 80.8438 34.6974 80.3555 35.7781 80.0039C36.8719 79.6523 38.0958 79.4766 39.45 79.4766C41.0516 79.4766 42.4773 79.75 43.7273 80.2969C44.9904 80.8307 45.9799 81.638 46.6961 82.7188C47.4253 83.7995 47.7898 85.1602 47.7898 86.8008V96.0195C47.7898 97.0742 47.8549 97.9792 47.9852 98.7344C48.1284 99.4766 48.3367 100.121 48.6102 100.668V101H43.3563C43.1089 100.466 42.9201 99.7891 42.7898 98.9688C42.6596 98.1354 42.5945 97.3151 42.5945 96.5078ZM43.3172 88.1289L43.3563 91.1953H40.0945C39.2872 91.1953 38.5776 91.2799 37.9656 91.4492C37.3536 91.6055 36.8523 91.8398 36.4617 92.1523C36.0711 92.4518 35.7781 92.8164 35.5828 93.2461C35.3875 93.6628 35.2898 94.138 35.2898 94.6719C35.2898 95.1927 35.407 95.6615 35.6414 96.0781C35.8888 96.4948 36.2404 96.8268 36.6961 97.0742C37.1648 97.3086 37.7117 97.4258 38.3367 97.4258C39.2482 97.4258 40.0424 97.2435 40.7195 96.8789C41.3966 96.5013 41.924 96.0456 42.3016 95.5117C42.6792 94.9779 42.881 94.4701 42.907 93.9883L44.3914 96.2148C44.2091 96.7487 43.9357 97.3151 43.5711 97.9141C43.2065 98.513 42.7378 99.0729 42.1648 99.5938C41.5919 100.115 40.9018 100.544 40.0945 100.883C39.2872 101.221 38.3497 101.391 37.282 101.391C35.9148 101.391 34.6909 101.117 33.6102 100.57C32.5294 100.023 31.6766 99.2747 31.0516 98.3242C30.4266 97.3737 30.1141 96.293 30.1141 95.082C30.1141 93.9622 30.3224 92.9727 30.7391 92.1133C31.1557 91.2539 31.7742 90.5312 32.5945 89.9453C33.4148 89.3464 34.4305 88.8971 35.6414 88.5977C36.8654 88.2852 38.2651 88.1289 39.8406 88.1289H43.3172ZM61.5172 98.6562L67.1813 79.8672H72.7086L64.232 104.203C64.0367 104.724 63.7828 105.29 63.4703 105.902C63.1708 106.514 62.7672 107.094 62.2594 107.641C61.7516 108.201 61.1135 108.656 60.3453 109.008C59.5901 109.359 58.6721 109.535 57.5914 109.535C57.1227 109.535 56.706 109.503 56.3414 109.438C55.9768 109.372 55.5927 109.288 55.1891 109.184V105.316C55.3193 105.329 55.469 105.336 55.6383 105.336C55.8206 105.349 55.9768 105.355 56.107 105.355C56.8622 105.355 57.4872 105.264 57.982 105.082C58.4768 104.913 58.874 104.633 59.1734 104.242C59.4859 103.865 59.7464 103.37 59.9547 102.758L61.5172 98.6562ZM58.7242 79.8672L63.5094 95.4336L64.3492 100.883L60.7945 101.527L53.1578 79.8672H58.7242ZM17.5977 143.617C17.5977 143.07 17.513 142.582 17.3438 142.152C17.1875 141.71 16.8945 141.312 16.4648 140.961C16.0482 140.596 15.4557 140.245 14.6875 139.906C13.9323 139.555 12.9557 139.19 11.7578 138.812C10.4297 138.396 9.19271 137.927 8.04688 137.406C6.90104 136.885 5.89193 136.28 5.01953 135.59C4.16016 134.9 3.48958 134.105 3.00781 133.207C2.52604 132.296 2.28516 131.241 2.28516 130.043C2.28516 128.871 2.53255 127.803 3.02734 126.84C3.53516 125.876 4.2513 125.049 5.17578 124.359C6.10026 123.656 7.1875 123.116 8.4375 122.738C9.70052 122.361 11.0938 122.172 12.6172 122.172C14.7266 122.172 16.5495 122.556 18.0859 123.324C19.6354 124.092 20.8333 125.134 21.6797 126.449C22.526 127.764 22.9492 129.242 22.9492 130.883H17.5977C17.5977 129.997 17.4089 129.216 17.0312 128.539C16.6667 127.862 16.1068 127.328 15.3516 126.938C14.6094 126.547 13.6719 126.352 12.5391 126.352C11.4453 126.352 10.5339 126.514 9.80469 126.84C9.08854 127.165 8.54818 127.608 8.18359 128.168C7.83203 128.728 7.65625 129.353 7.65625 130.043C7.65625 130.564 7.77995 131.033 8.02734 131.449C8.27474 131.853 8.64583 132.237 9.14062 132.602C9.63542 132.953 10.2474 133.285 10.9766 133.598C11.7188 133.897 12.5781 134.197 13.5547 134.496C15.1172 134.965 16.4844 135.486 17.6562 136.059C18.8411 136.632 19.8242 137.283 20.6055 138.012C21.3997 138.741 21.9922 139.561 22.3828 140.473C22.7865 141.384 22.9883 142.419 22.9883 143.578C22.9883 144.802 22.7474 145.896 22.2656 146.859C21.7839 147.823 21.0938 148.643 20.1953 149.32C19.2969 149.997 18.2161 150.512 16.9531 150.863C15.7031 151.215 14.3034 151.391 12.7539 151.391C11.3737 151.391 10.0065 151.208 8.65234 150.844C7.3112 150.466 6.09375 149.906 5 149.164C3.90625 148.409 3.03385 147.458 2.38281 146.312C1.73177 145.154 1.40625 143.799 1.40625 142.25H6.79688C6.79688 143.148 6.9401 143.917 7.22656 144.555C7.52604 145.18 7.94271 145.694 8.47656 146.098C9.02344 146.488 9.66146 146.775 10.3906 146.957C11.1198 147.139 11.9076 147.23 12.7539 147.23C13.8477 147.23 14.7461 147.081 15.4492 146.781C16.1654 146.469 16.6992 146.039 17.0508 145.492C17.4154 144.945 17.5977 144.32 17.5977 143.617ZM41.6375 126.879L33.532 151H27.8484L38.4734 122.562H42.1063L41.6375 126.879ZM48.4148 151L40.2703 126.879L39.782 122.562H43.4344L54.118 151H48.4148ZM48.0438 140.434V144.672H32.7898V140.434H48.0438ZM78.2945 146.781V151H63.9977V146.781H78.2945ZM65.6188 122.562V151H60.2477V122.562H65.6188ZM106.827 136.059V137.523C106.827 139.672 106.54 141.605 105.967 143.324C105.394 145.03 104.58 146.482 103.526 147.68C102.471 148.878 101.215 149.796 99.7562 150.434C98.2979 151.072 96.6768 151.391 94.893 151.391C93.1352 151.391 91.5206 151.072 90.0492 150.434C88.5909 149.796 87.3279 148.878 86.2602 147.68C85.1924 146.482 84.3656 145.03 83.7797 143.324C83.1937 141.605 82.9008 139.672 82.9008 137.523V136.059C82.9008 133.897 83.1937 131.964 83.7797 130.258C84.3656 128.552 85.1859 127.1 86.2406 125.902C87.2953 124.691 88.5518 123.767 90.0102 123.129C91.4815 122.491 93.0961 122.172 94.8539 122.172C96.6378 122.172 98.2589 122.491 99.7172 123.129C101.176 123.767 102.432 124.691 103.487 125.902C104.554 127.1 105.375 128.552 105.948 130.258C106.534 131.964 106.827 133.897 106.827 136.059ZM101.397 137.523V136.02C101.397 134.47 101.254 133.109 100.967 131.938C100.681 130.753 100.258 129.757 99.6977 128.949C99.1378 128.142 98.4477 127.536 97.6273 127.133C96.807 126.716 95.8826 126.508 94.8539 126.508C93.8122 126.508 92.8878 126.716 92.0805 127.133C91.2862 127.536 90.6091 128.142 90.0492 128.949C89.4893 129.757 89.0596 130.753 88.7602 131.938C88.4737 133.109 88.3305 134.47 88.3305 136.02V137.523C88.3305 139.06 88.4737 140.421 88.7602 141.605C89.0596 142.79 89.4893 143.793 90.0492 144.613C90.6221 145.421 91.3122 146.033 92.1195 146.449C92.9268 146.866 93.8513 147.074 94.893 147.074C95.9346 147.074 96.8591 146.866 97.6664 146.449C98.4737 146.033 99.1508 145.421 99.6977 144.613C100.258 143.793 100.681 142.79 100.967 141.605C101.254 140.421 101.397 139.06 101.397 137.523ZM137.429 122.562V151H132.038L119.948 131.273V151H114.577V122.562H119.948L132.077 142.309V122.562H137.429ZM161.602 122.562H166.251L174.024 143.969L181.778 122.562H186.446L175.88 151H172.149L161.602 122.562ZM159.259 122.562H163.809L164.63 142.23V151H159.259V122.562ZM184.22 122.562H188.79V151H183.419V142.23L184.22 122.562ZM220.486 136.059V137.523C220.486 139.672 220.199 141.605 219.627 143.324C219.054 145.03 218.24 146.482 217.185 147.68C216.13 148.878 214.874 149.796 213.416 150.434C211.957 151.072 210.336 151.391 208.552 151.391C206.795 151.391 205.18 151.072 203.709 150.434C202.25 149.796 200.987 148.878 199.92 147.68C198.852 146.482 198.025 145.03 197.439 143.324C196.853 141.605 196.56 139.672 196.56 137.523V136.059C196.56 133.897 196.853 131.964 197.439 130.258C198.025 128.552 198.845 127.1 199.9 125.902C200.955 124.691 202.211 123.767 203.67 123.129C205.141 122.491 206.755 122.172 208.513 122.172C210.297 122.172 211.918 122.491 213.377 123.129C214.835 123.767 216.091 124.691 217.146 125.902C218.214 127.1 219.034 128.552 219.607 130.258C220.193 131.964 220.486 133.897 220.486 136.059ZM215.056 137.523V136.02C215.056 134.47 214.913 133.109 214.627 131.938C214.34 130.753 213.917 129.757 213.357 128.949C212.797 128.142 212.107 127.536 211.287 127.133C210.466 126.716 209.542 126.508 208.513 126.508C207.472 126.508 206.547 126.716 205.74 127.133C204.946 127.536 204.268 128.142 203.709 128.949C203.149 129.757 202.719 130.753 202.42 131.938C202.133 133.109 201.99 134.47 201.99 136.02V137.523C201.99 139.06 202.133 140.421 202.42 141.605C202.719 142.79 203.149 143.793 203.709 144.613C204.282 145.421 204.972 146.033 205.779 146.449C206.586 146.866 207.511 147.074 208.552 147.074C209.594 147.074 210.518 146.866 211.326 146.449C212.133 146.033 212.81 145.421 213.357 144.613C213.917 143.793 214.34 142.79 214.627 141.605C214.913 140.421 215.056 139.06 215.056 137.523ZM228.237 122.562H238.569C240.73 122.562 242.586 122.888 244.135 123.539C245.685 124.19 246.876 125.154 247.709 126.43C248.543 127.706 248.959 129.275 248.959 131.137C248.959 132.608 248.699 133.884 248.178 134.965C247.657 136.046 246.922 136.951 245.971 137.68C245.034 138.409 243.927 138.982 242.651 139.398L240.971 140.258H231.85L231.811 136.02H238.627C239.734 136.02 240.652 135.824 241.381 135.434C242.11 135.043 242.657 134.503 243.022 133.812C243.399 133.122 243.588 132.335 243.588 131.449C243.588 130.499 243.406 129.678 243.041 128.988C242.677 128.285 242.123 127.745 241.381 127.367C240.639 126.99 239.702 126.801 238.569 126.801H233.608V151H228.237V122.562ZM244.291 151L237.709 138.266L243.393 138.246L250.053 150.727V151H244.291ZM262.589 122.562V151H257.218V122.562H262.589ZM274.363 122.562L280.613 135.824L286.902 122.562H292.801L283.348 140.59V151H277.898V140.59L268.426 122.562H274.363ZM307.739 126.879L299.634 151H293.95L304.575 122.562H308.208L307.739 126.879ZM314.516 151L306.372 126.879L305.884 122.562H309.536L320.22 151H314.516ZM314.145 140.434V144.672H298.891V140.434H314.145Z" fill="#333333"/>
<path d="M0.608 13.72H15.424V15.816H0.608V13.72ZM25.168 9.032H31.056V10.632H25.168V9.032ZM27.184 17.496H31.92V19H27.184V17.496ZM27.136 20.2H31.984V21.784H27.136V20.2ZM24.656 11.976H33.872V13.608H24.656V11.976ZM27.376 7.432H29.152V12.968H27.376V7.432ZM21.264 7.432L22.928 8.008C22.272 9.256 21.536 10.68 20.928 11.576L19.648 11.048C20.208 10.088 20.896 8.536 21.264 7.432ZM23.072 9.32L24.624 10.04C23.456 11.832 21.904 14.056 20.672 15.432L19.568 14.808C20.768 13.368 22.224 11.032 23.072 9.32ZM18.784 11.16L19.728 9.88C20.56 10.632 21.536 11.672 21.92 12.424L20.88 13.896C20.528 13.112 19.584 11.976 18.784 11.16ZM22.528 13.16L23.856 12.6C24.48 13.656 25.088 15.048 25.296 15.96L23.84 16.616C23.68 15.704 23.104 14.264 22.528 13.16ZM18.736 14.44C20.176 14.36 22.24 14.248 24.24 14.12L24.256 15.688C22.384 15.832 20.432 15.976 18.944 16.088L18.736 14.44ZM22.96 17.176L24.304 16.76C24.688 17.656 25.008 18.824 25.12 19.592L23.696 20.056C23.616 19.272 23.312 18.088 22.96 17.176ZM19.424 16.824L20.96 17.08C20.8 18.616 20.464 20.2 20 21.224C19.68 21.016 18.976 20.712 18.608 20.552C19.056 19.608 19.296 18.168 19.424 16.824ZM21.184 15.288H22.832V22.44H21.184V15.288ZM32.08 7.736L33.744 8.264C32.192 12.408 29.408 15.496 25.264 17.544C25.04 17.16 24.496 16.504 24.128 16.2C28.032 14.392 30.784 11.384 32.08 7.736ZM27.888 14.776H31.968V16.344H27.888V22.424H26.16V15.736L27.072 14.776H27.888ZM31.152 14.776H33.008V22.44H31.152V14.776ZM43.952 9.816C45.92 10.088 49.12 10.008 50.832 9.8V11.864C48.88 12.056 45.968 12.056 43.968 11.864L43.952 9.816ZM45.232 16.648C45.104 17.192 45.04 17.576 45.04 17.992C45.04 18.712 45.664 19.144 47.296 19.144C48.72 19.144 49.904 19.016 51.296 18.712L51.344 20.872C50.304 21.08 49.008 21.192 47.2 21.192C44.448 21.192 43.12 20.2 43.12 18.568C43.12 17.928 43.216 17.304 43.408 16.488L45.232 16.648ZM41.488 8.744C41.376 9.08 41.168 9.896 41.104 10.184C40.88 11.24 40.32 14.44 40.32 16.04C40.32 16.36 40.336 16.76 40.384 17.08C40.624 16.536 40.88 15.992 41.12 15.448L42.112 16.232C41.648 17.576 41.12 19.304 40.96 20.152C40.912 20.392 40.864 20.744 40.864 20.904C40.88 21.08 40.88 21.352 40.896 21.576L39.056 21.688C38.736 20.6 38.432 18.648 38.432 16.472C38.432 14.056 38.912 11.368 39.088 10.12C39.152 9.688 39.232 9.08 39.248 8.568L41.488 8.744ZM61.824 8.696H63.44V13.08H61.824V8.696ZM59.584 10.328H65.728V11.704H59.584V10.328ZM65.664 11.064H69.552V12.712H65.664V11.064ZM59.728 17.944H65.6V19.336H59.728V17.944ZM64.816 7.832L65.76 9.192C64.08 9.56 61.808 9.784 59.92 9.864C59.872 9.496 59.68 8.936 59.52 8.568C61.328 8.408 63.472 8.152 64.816 7.832ZM59.376 20.488C60.96 20.376 63.328 20.184 65.632 19.976L65.648 21.368C63.52 21.64 61.296 21.864 59.616 22.056L59.376 20.488ZM68.96 11.064H70.576C70.576 11.064 70.56 11.624 70.56 11.848C70.432 18.536 70.352 20.888 69.904 21.56C69.6 22.04 69.312 22.2 68.864 22.28C68.464 22.36 67.888 22.376 67.28 22.344C67.248 21.864 67.088 21.144 66.848 20.696C67.328 20.728 67.744 20.744 68 20.744C68.208 20.744 68.336 20.696 68.464 20.456C68.752 20.008 68.864 17.848 68.96 11.448V11.064ZM60.976 15.32V16.04H64.304V15.32H60.976ZM60.976 13.56V14.264H64.304V13.56H60.976ZM59.76 12.408H65.584V17.192H59.76V12.408ZM61.968 12.792H63.264V16.76H63.424V20.696H61.808V16.76H61.968V12.792ZM66.496 7.464H68.128V13.032C68.128 16.088 67.824 19.976 65.632 22.504C65.328 22.2 64.704 21.72 64.288 21.496C66.272 19.192 66.496 15.656 66.496 13.032V7.464ZM58.224 7.464L59.936 7.944C59.12 10.712 57.792 13.704 56.272 15.624C56.144 15.16 55.696 14.056 55.408 13.544C56.576 12.04 57.616 9.752 58.224 7.464ZM57.152 11.864L58.848 10.168L58.864 10.184V22.472H57.152V11.864ZM86.048 8.28C85.984 8.632 85.968 9.016 85.968 9.384C85.936 10.12 85.968 13.144 85.968 14.088C85.968 17.848 85.68 20.184 82.496 22.2L80.64 20.76C81.264 20.488 82.064 19.976 82.512 19.48C83.728 18.2 84 16.76 84 14.072C84 12.872 83.968 10.28 83.888 9.384C83.856 9 83.776 8.536 83.712 8.28H86.048ZM79.728 11.416C80.512 11.528 81.296 11.576 82.16 11.576C84.224 11.576 86.784 11.432 88.352 11.144V13.224C86.832 13.4 84.368 13.528 82.208 13.528C81.504 13.528 80.528 13.48 79.728 13.432V11.416ZM78.08 8.552C77.952 8.952 77.792 9.528 77.712 9.864C77.312 11.64 76.736 15 77.168 16.984C77.376 16.488 77.68 15.704 77.936 15.128L78.944 15.768C78.464 17.144 78.048 18.744 77.856 19.656C77.792 19.912 77.744 20.264 77.76 20.44C77.76 20.616 77.776 20.888 77.792 21.112L76 21.288C75.648 20.312 75.088 18.088 75.088 16.104C75.088 13.48 75.408 11.016 75.616 9.704C75.68 9.272 75.696 8.728 75.712 8.328L78.08 8.552ZM95.52 8.824C95.968 8.872 96.512 8.904 96.96 8.904C97.824 8.904 101.232 8.824 102.144 8.744C102.816 8.696 103.184 8.632 103.376 8.568L104.4 10.008C104.032 10.248 103.648 10.472 103.296 10.744C102.432 11.352 100.752 12.76 99.728 13.56C100.272 13.416 100.752 13.384 101.248 13.384C103.968 13.384 106.032 15.08 106.032 17.4C106.032 19.928 104.112 21.928 100.24 21.928C98.016 21.928 96.336 20.92 96.336 19.304C96.336 18.008 97.52 16.824 99.216 16.824C101.408 16.824 102.624 18.296 102.672 20.056L100.8 20.296C100.768 19.144 100.16 18.344 99.216 18.344C98.624 18.344 98.224 18.712 98.224 19.128C98.224 19.72 98.88 20.12 99.856 20.12C102.56 20.12 103.936 19.096 103.936 17.384C103.936 15.928 102.496 14.952 100.624 14.952C98.16 14.952 96.576 16.264 94.864 18.2L93.408 16.696C94.544 15.8 96.48 14.168 97.408 13.384C98.304 12.648 99.984 11.304 100.768 10.6C99.952 10.632 97.744 10.712 96.88 10.776C96.448 10.808 95.952 10.84 95.584 10.904L95.52 8.824ZM114.24 7.464L116.048 8.024C115.04 10.744 113.424 13.64 111.712 15.48C111.536 15 111.008 13.944 110.688 13.48C112.096 12.024 113.456 9.752 114.24 7.464ZM112.672 11.912L114.48 10.088L114.496 10.104V22.424H112.672V11.912ZM115.648 10.632H125.472V18.168H123.568V12.408H117.472V18.296H115.648V10.632ZM116.672 15.56H124.576V17.32H116.672V15.56ZM119.536 7.608H121.44V22.424H119.536V7.608ZM134.592 17.176H138.976V18.552H134.592V17.176ZM134.48 14.808H139.872V20.952H134.48V19.544H138.08V16.216H134.48V14.808ZM133.696 14.808H135.424V21.768H133.696V14.808ZM131.008 10.248H135.024V11.544H131.008V10.248ZM138.432 10.248H142.48V11.544H138.432V10.248ZM141.696 8.024H143.632V20.168C143.632 21.208 143.424 21.768 142.784 22.088C142.144 22.408 141.216 22.44 139.84 22.44C139.76 21.896 139.472 21 139.216 20.488C140.048 20.536 141.024 20.52 141.312 20.52C141.6 20.52 141.696 20.424 141.696 20.152V8.024ZM131.168 8.024H136.224V13.832H131.168V12.456H134.432V9.416H131.168V8.024ZM142.72 8.024V9.416H139.136V12.504H142.72V13.88H137.312V8.024H142.72ZM130.064 8.024H131.968V22.44H130.064V8.024ZM154.976 8.168C154.848 8.76 154.64 9.704 154.192 10.856C153.856 11.64 153.392 12.552 152.944 13.192C153.376 13 154.224 12.888 154.768 12.888C156.096 12.888 157.104 13.672 157.104 15.16C157.104 16.024 157.152 17.768 157.168 18.776H155.248C155.312 18.024 155.344 16.664 155.328 15.8C155.328 14.776 154.688 14.44 154.016 14.44C153.136 14.44 152.128 14.968 151.52 15.544C151.04 16.024 150.592 16.6 150.048 17.304L148.336 16.024C150.384 14.136 151.616 12.408 152.288 10.648C152.608 9.784 152.816 8.808 152.864 7.992L154.976 8.168ZM148.944 9.656C149.76 9.768 150.944 9.832 151.76 9.832C153.872 9.832 156.768 9.72 159.088 9.304L159.072 11.16C156.816 11.48 153.6 11.624 151.648 11.624C150.992 11.624 149.824 11.592 148.944 11.512V9.656ZM161.616 14.2C161.12 14.344 160.256 14.664 159.712 14.872C158.672 15.272 157.232 15.848 155.728 16.616C154.272 17.368 153.488 18.056 153.488 18.936C153.488 19.816 154.256 20.056 155.808 20.056C157.168 20.056 158.96 19.88 160.368 19.592L160.304 21.656C159.232 21.8 157.28 21.944 155.76 21.944C153.264 21.944 151.392 21.32 151.392 19.256C151.392 17.032 153.68 15.72 155.6 14.76C157.072 13.992 158.08 13.608 159.04 13.16C159.664 12.888 160.224 12.632 160.832 12.328L161.616 14.2ZM168.848 18.264H177.088V19.624H168.848V18.264ZM166.416 15.688H180.8V17.176H166.416V15.688ZM171.088 14.696L172.944 14.984C171.92 17.112 170.144 18.76 167.008 19.88C166.8 19.448 166.288 18.792 165.92 18.52C168.816 17.656 170.384 16.248 171.088 14.696ZM176.864 16.168C177.76 17.208 179.552 18.12 181.328 18.52C180.928 18.888 180.384 19.592 180.128 20.056C178.24 19.448 176.448 18.184 175.392 16.728L176.864 16.168ZM176.416 18.264H178.24C178.24 18.264 178.224 18.68 178.192 18.904C178.032 20.632 177.84 21.48 177.472 21.864C177.152 22.184 176.784 22.28 176.304 22.328C175.888 22.376 175.152 22.376 174.368 22.36C174.336 21.88 174.16 21.256 173.92 20.84C174.56 20.904 175.168 20.92 175.456 20.92C175.696 20.92 175.824 20.888 175.968 20.776C176.176 20.584 176.304 19.944 176.416 18.472V18.264ZM172.32 17.416H174.144C173.792 20.088 172.88 21.704 168.624 22.52C168.464 22.072 168.032 21.4 167.712 21.064C171.424 20.472 172.048 19.368 172.32 17.416ZM166.624 8.264H180.576V9.784H166.624V8.264ZM169.984 7.416H171.856V10.344H169.984V7.416ZM175.28 7.416H177.168V10.344H175.28V7.416ZM169.984 13.368V13.992H177.2V13.368H169.984ZM169.984 11.688V12.312H177.2V11.688H169.984ZM168.144 10.584H179.136V15.112H168.144V10.584ZM184.768 17.256H199.232V18.792H184.768V17.256ZM187.84 11.304H197.536V12.552H187.84V11.304ZM187.84 13.224H197.552V14.472H187.84V13.224ZM187.456 9.144H198.336V10.648H187.456V9.144ZM191.44 10.088H193.28V15.704H191.44V10.088ZM190.992 16.232H192.912V22.424H190.992V16.232ZM190.848 17.896L192.288 18.6C190.64 20.232 187.888 21.64 185.456 22.344C185.184 21.864 184.64 21.16 184.224 20.76C186.656 20.248 189.424 19.128 190.848 17.896ZM193.12 17.848C194.496 19.064 197.2 20.184 199.6 20.712C199.2 21.096 198.672 21.8 198.4 22.264C195.984 21.576 193.296 20.168 191.664 18.568L193.12 17.848ZM192.24 7.416L194.4 7.672C193.888 8.632 193.312 9.528 192.864 10.152L191.168 9.816C191.568 9.128 192.016 8.136 192.24 7.416ZM188.144 7.384L190.112 7.768C189.04 9.64 187.632 11.48 185.664 13.064C185.36 12.632 184.736 12.04 184.304 11.768C186.096 10.472 187.408 8.792 188.144 7.384ZM186.592 10.12H188.416V15.16H198.8V16.616H186.592V10.12ZM208.336 8.312C208.24 8.984 208.16 9.816 208.128 10.456C208.048 12.184 207.936 15.752 207.936 17.736C207.936 19.352 208.896 19.88 210.144 19.88C212.784 19.88 214.448 18.36 215.616 16.616L217.072 18.392C216.032 19.928 213.76 22.056 210.112 22.056C207.488 22.056 205.808 20.904 205.808 18.168C205.808 16.024 205.952 11.832 205.952 10.456C205.952 9.688 205.888 8.92 205.76 8.296L208.336 8.312ZM221.452 10.008C222.076 9.992 222.716 9.96 223.02 9.928C224.364 9.8 226.988 9.576 229.932 9.32C231.58 9.176 233.324 9.08 234.46 9.032L234.476 11.096C233.612 11.096 232.236 11.112 231.372 11.304C229.452 11.816 227.996 13.896 227.996 15.784C227.996 18.424 230.46 19.368 233.164 19.512L232.428 21.704C229.068 21.496 225.9 19.688 225.9 16.216C225.9 13.912 227.196 12.104 228.284 11.288C226.78 11.448 223.516 11.784 221.66 12.2L221.452 10.008ZM242.86 9.576C242.748 10.136 242.668 11.08 242.668 11.528C242.668 12.568 242.668 13.752 242.764 14.92C242.988 17.224 243.468 18.808 244.476 18.808C245.244 18.808 245.868 16.92 246.172 15.656L247.788 17.592C246.716 20.392 245.724 21.352 244.444 21.352C242.668 21.352 241.148 19.784 240.7 15.496C240.54 14.024 240.524 12.136 240.524 11.16C240.524 10.728 240.508 10.04 240.396 9.544L242.86 9.576ZM250.86 9.928C252.38 11.768 253.612 15.768 253.788 18.216L251.676 19.048C251.436 16.456 250.572 12.584 248.828 10.6L250.86 9.928ZM266.668 8.072C266.62 8.392 266.572 8.792 266.556 9.208C266.524 10.024 266.508 12.296 266.508 13.64C266.508 15.4 266.764 18.296 266.764 19.56C266.764 20.936 265.724 21.992 263.628 21.992C261.068 21.992 259.724 21.016 259.724 19.32C259.724 17.704 261.212 16.568 263.66 16.568C267.18 16.568 269.804 18.296 271.132 19.416L269.98 21.208C268.46 19.768 266.14 18.216 263.404 18.216C262.284 18.216 261.66 18.648 261.66 19.208C261.66 19.816 262.22 20.184 263.324 20.184C264.172 20.184 264.748 19.944 264.748 19.016C264.748 18.056 264.572 15.192 264.572 13.64C264.572 12.104 264.588 10.072 264.588 9.16C264.588 8.872 264.556 8.376 264.492 8.072H266.668ZM260.028 9.56C261.164 9.752 263.004 9.912 263.98 9.912C266.156 9.912 268.252 9.8 270.588 9.432L270.572 11.256C268.94 11.48 266.396 11.672 263.996 11.672C262.972 11.672 261.116 11.528 260.06 11.4L260.028 9.56ZM259.932 13.016C260.988 13.208 262.94 13.32 263.788 13.32C266.748 13.32 268.812 13.128 270.78 12.872L270.764 14.76C268.556 15.016 266.812 15.112 263.772 15.112C262.828 15.112 261.02 15.032 259.964 14.904L259.932 13.016ZM285.964 8.104C285.916 8.376 285.868 9.224 285.852 9.48C285.804 10.536 285.836 13.8 285.852 15.08L283.852 14.408C283.852 13.416 283.852 10.344 283.788 9.496C283.74 8.856 283.676 8.312 283.644 8.104H285.964ZM276.908 10.104C279.292 10.104 283.516 9.976 285.516 9.976C287.148 9.976 289.58 9.96 290.476 9.976L290.444 11.864C289.452 11.816 287.82 11.768 285.468 11.768C282.556 11.768 279.372 11.896 276.956 12.024L276.908 10.104ZM285.58 14.84C285.58 17.448 284.62 18.744 282.78 18.744C281.548 18.744 280.012 17.768 280.012 15.816C280.012 14.008 281.484 12.824 283.212 12.824C285.324 12.824 286.428 14.376 286.428 16.36C286.428 18.456 285.196 21.096 281.292 22.2L279.596 20.504C282.316 19.912 284.444 18.84 284.444 16.04C284.444 15 283.884 14.504 283.18 14.504C282.556 14.504 281.932 14.936 281.932 15.784C281.932 16.504 282.524 16.968 283.18 16.968C283.932 16.968 284.588 16.328 284.076 14.424L285.58 14.84Z" fill="#333333"/>
<path d="M7.452 199.158H9.27V204.09H7.452V199.158ZM4.932 200.994H11.844V202.542H4.932V200.994ZM11.772 201.822H16.146V203.676H11.772V201.822ZM5.094 209.562H11.7V211.128H5.094V209.562ZM10.818 198.186L11.88 199.716C9.99 200.13 7.434 200.382 5.31 200.472C5.256 200.058 5.04 199.428 4.86 199.014C6.894 198.834 9.306 198.546 10.818 198.186ZM4.698 212.424C6.48 212.298 9.144 212.082 11.736 211.848L11.754 213.414C9.36 213.72 6.858 213.972 4.968 214.188L4.698 212.424ZM15.48 201.822H17.298C17.298 201.822 17.28 202.452 17.28 202.704C17.136 210.228 17.046 212.874 16.542 213.63C16.2 214.17 15.876 214.35 15.372 214.44C14.922 214.53 14.274 214.548 13.59 214.512C13.554 213.972 13.374 213.162 13.104 212.658C13.644 212.694 14.112 212.712 14.4 212.712C14.634 212.712 14.778 212.658 14.922 212.388C15.246 211.884 15.372 209.454 15.48 202.254V201.822ZM6.498 206.61V207.42H10.242V206.61H6.498ZM6.498 204.63V205.422H10.242V204.63H6.498ZM5.13 203.334H11.682V208.716H5.13V203.334ZM7.614 203.766H9.072V208.23H9.252V212.658H7.434V208.23H7.614V203.766ZM12.708 197.772H14.544V204.036C14.544 207.474 14.202 211.848 11.736 214.692C11.394 214.35 10.692 213.81 10.224 213.558C12.456 210.966 12.708 206.988 12.708 204.036V197.772ZM3.402 197.772L5.328 198.312C4.41 201.426 2.916 204.792 1.206 206.952C1.062 206.43 0.558 205.188 0.234 204.612C1.548 202.92 2.718 200.346 3.402 197.772ZM2.196 202.722L4.104 200.814L4.122 200.832V214.656H2.196V202.722ZM22.392 200.094C25.02 200.4 27.216 200.436 29.124 200.292C30.762 200.184 32.238 199.896 33.732 199.428L34.02 201.48C32.724 201.84 31.158 202.146 29.592 202.254C27.738 202.398 25.254 202.416 22.518 202.146L22.392 200.094ZM22.068 203.856C25.308 204.18 28.224 204.126 30.384 203.91C32.328 203.748 33.678 203.388 34.722 203.082L35.082 205.206C34.002 205.476 32.67 205.728 31.212 205.89C28.944 206.142 25.434 206.196 22.194 205.98L22.068 203.856ZM28.08 200.598C27.9 199.932 27.684 199.266 27.432 198.564L29.844 198.294C30.06 200.022 30.51 201.606 30.978 202.992C31.41 204.252 32.292 206.106 33.12 207.366C33.372 207.726 33.606 207.996 33.93 208.302L32.85 209.958C31.842 209.742 29.88 209.526 28.566 209.382L28.746 207.654C29.502 207.726 30.492 207.816 31.014 207.87C30.06 206.268 29.394 204.702 28.944 203.388C28.494 202.11 28.314 201.462 28.08 200.598ZM25.524 208.05C25.092 208.644 24.714 209.256 24.714 210.03C24.714 211.362 25.974 211.902 28.368 211.902C30.06 211.902 31.59 211.776 32.886 211.524L32.76 213.81C31.5 214.008 29.844 214.134 28.368 214.134C24.786 214.134 22.554 213.072 22.5 210.516C22.482 209.346 22.86 208.464 23.292 207.618L25.524 208.05ZM48.348 201.552C47.718 200.904 46.476 199.698 45.774 199.158L47.43 198.006C48.06 198.51 49.41 199.662 50.04 200.328L48.348 201.552ZM43.452 199.626C43.596 199.968 43.956 200.706 44.154 201.048C44.892 202.434 45.702 204.216 46.35 205.728C47.196 207.69 48.6 211.524 49.194 213.558L46.71 214.188C46.152 211.92 45.216 208.878 44.298 206.718C43.578 205.044 42.912 203.406 42.174 202.11C41.904 201.678 41.472 200.994 41.112 200.544L43.452 199.626ZM39.564 204.9C40.266 204.738 41.04 204.45 41.346 204.324C44.622 203.046 48.312 200.94 51.21 200.94C53.982 200.94 55.674 202.632 55.674 204.72C55.674 207.24 53.946 208.824 51.192 208.824C50.202 208.824 49.086 208.572 48.402 208.32L48.474 206.07C49.284 206.412 50.184 206.664 50.958 206.664C52.308 206.664 53.298 205.926 53.298 204.63C53.298 203.73 52.506 202.974 51.156 202.974C48.24 202.974 42.84 206.196 40.608 207.204L39.564 204.9ZM70.074 198.492C70.02 198.798 69.966 199.752 69.948 200.04C69.894 201.228 69.93 204.9 69.948 206.34L67.698 205.584C67.698 204.468 67.698 201.012 67.626 200.058C67.572 199.338 67.5 198.726 67.464 198.492H70.074ZM59.886 200.742C62.568 200.742 67.32 200.598 69.57 200.598C71.406 200.598 74.142 200.58 75.15 200.598L75.114 202.722C73.998 202.668 72.162 202.614 69.516 202.614C66.24 202.614 62.658 202.758 59.94 202.902L59.886 200.742ZM69.642 206.07C69.642 209.004 68.562 210.462 66.492 210.462C65.106 210.462 63.378 209.364 63.378 207.168C63.378 205.134 65.034 203.802 66.978 203.802C69.354 203.802 70.596 205.548 70.596 207.78C70.596 210.138 69.21 213.108 64.818 214.35L62.91 212.442C65.97 211.776 68.364 210.57 68.364 207.42C68.364 206.25 67.734 205.692 66.942 205.692C66.24 205.692 65.538 206.178 65.538 207.132C65.538 207.942 66.204 208.464 66.942 208.464C67.788 208.464 68.526 207.744 67.95 205.602L69.642 206.07ZM82.422 200.148C82.296 200.778 82.206 201.84 82.206 202.344C82.206 203.514 82.206 204.846 82.314 206.16C82.566 208.752 83.106 210.534 84.24 210.534C85.104 210.534 85.806 208.41 86.148 206.988L87.966 209.166C86.76 212.316 85.644 213.396 84.204 213.396C82.206 213.396 80.496 211.632 79.992 206.808C79.812 205.152 79.794 203.028 79.794 201.93C79.794 201.444 79.776 200.67 79.65 200.112L82.422 200.148ZM91.422 200.544C93.132 202.614 94.518 207.114 94.716 209.868L92.34 210.804C92.07 207.888 91.098 203.532 89.136 201.3L91.422 200.544ZM97.848 198.996H103.662V200.886H97.848V198.996ZM98.01 204.18H103.41V206.088H98.01V204.18ZM103.446 202.938H114.606V204.648H103.446V202.938ZM97.596 210.156C99.18 209.814 101.538 209.22 103.788 208.626L104.04 210.552C101.988 211.128 99.774 211.722 98.046 212.19L97.596 210.156ZM106.434 206.844V207.996H111.618V206.844H106.434ZM104.544 205.314H113.616V209.544H104.544V205.314ZM110.97 199.734V200.904H112.122V199.734H110.97ZM108.45 199.734V200.904H109.584V199.734H108.45ZM105.984 199.734V200.904H107.082V199.734H105.984ZM104.256 198.294H113.922V202.344H104.256V198.294ZM109.674 208.716C110.556 210.606 112.374 212.244 114.66 212.946C114.21 213.342 113.598 214.116 113.31 214.638C110.934 213.648 109.134 211.614 108.126 209.166L109.674 208.716ZM112.878 209.49L114.354 210.588C113.634 211.128 112.806 211.668 112.176 212.01L110.952 211.038C111.546 210.66 112.392 209.958 112.878 209.49ZM99.846 199.824H101.79V210.3L99.846 210.624V199.824ZM108.666 208.428L110.178 209.112C108.612 211.038 105.912 212.82 103.482 213.756C103.212 213.306 102.654 212.604 102.24 212.226C104.616 211.488 107.298 209.976 108.666 208.428ZM106.884 210.966L108.918 209.598V214.62H106.884V210.966ZM123.354 198.852H133.686V200.526H123.354V198.852ZM122.958 201.912H134.01V203.658H122.958V201.912ZM127.278 197.772H129.402V199.986H127.278V197.772ZM129.996 200.202L132.102 200.598C131.76 201.264 131.472 201.84 131.238 202.254L129.366 201.876C129.6 201.39 129.87 200.688 129.996 200.202ZM124.902 200.652L126.756 200.274C127.044 200.724 127.296 201.39 127.404 201.84L125.442 202.308C125.388 201.858 125.136 201.174 124.902 200.652ZM125.982 207.834V208.752H131.058V207.834H125.982ZM125.982 205.692V206.592H131.058V205.692H125.982ZM123.966 204.36H133.164V210.084H123.966V204.36ZM128.916 209.67H130.968V212.19C130.968 212.64 131.022 212.712 131.328 212.712C131.454 212.712 131.976 212.712 132.156 212.712C132.444 212.712 132.516 212.514 132.57 211.146C132.948 211.452 133.812 211.794 134.352 211.902C134.154 214.008 133.65 214.53 132.39 214.53C132.048 214.53 131.292 214.53 130.968 214.53C129.276 214.53 128.916 213.936 128.916 212.226V209.67ZM125.622 209.598H127.728C127.368 212.028 126.45 213.72 122.724 214.674C122.526 214.152 121.968 213.27 121.554 212.856C124.704 212.244 125.334 211.2 125.622 209.598ZM117.432 202.002H122.868V204.036H117.432V202.002ZM119.232 197.97H121.23V209.922H119.232V197.97ZM117.036 209.742C118.512 209.238 120.78 208.284 122.904 207.366L123.39 209.292C121.482 210.21 119.412 211.146 117.774 211.902L117.036 209.742ZM136.71 203.424C137.376 203.298 138.276 203.046 138.942 202.866C140.328 202.434 143.982 201.138 146.628 201.138C149.886 201.138 152.442 203.01 152.442 206.34C152.442 210.426 148.554 213.036 142.2 213.36L141.174 210.966C146.016 210.858 149.85 209.454 149.85 206.304C149.85 204.612 148.698 203.316 146.538 203.316C143.874 203.316 139.626 205.116 137.736 205.926L136.71 203.424ZM149.922 198.528C150.372 199.194 151.02 200.346 151.362 201.012L149.904 201.624C149.544 200.886 148.986 199.824 148.5 199.122L149.922 198.528ZM152.046 197.718C152.532 198.402 153.198 199.536 153.504 200.184L152.082 200.796C151.704 200.04 151.128 198.996 150.624 198.312L152.046 197.718ZM168.732 200.04C168.156 200.454 167.562 200.922 167.148 201.264C165.978 202.2 163.602 204.036 162.396 205.08C161.442 205.89 161.46 206.106 162.432 206.952C163.782 208.086 167.202 210.768 169.038 212.55L166.95 214.494C166.446 213.918 165.906 213.36 165.366 212.82C164.286 211.686 161.64 209.418 159.984 208.032C158.202 206.502 158.346 205.53 160.146 204.036C161.55 202.884 164.034 200.886 165.24 199.698C165.762 199.194 166.338 198.6 166.626 198.168L168.732 200.04ZM181.458 198.546C181.206 199.428 180.828 201.282 180.72 202.29C181.584 200.904 183.168 199.374 185.184 199.374C187.686 199.374 189.63 201.84 189.63 205.8C189.63 210.894 186.516 213.306 181.746 214.188L180.378 212.1C184.392 211.488 187.2 210.156 187.2 205.8C187.2 203.028 186.264 201.48 184.77 201.48C182.646 201.48 180.774 204.684 180.702 207.042C180.666 207.546 180.684 208.122 180.774 208.95L178.56 209.112C178.452 208.41 178.344 207.312 178.344 206.106C178.344 204.414 178.578 202.2 178.848 200.328C178.92 199.662 178.974 198.942 178.992 198.456L181.458 198.546ZM203.148 198.564C203.004 199.23 202.77 200.292 202.266 201.588C201.888 202.47 201.366 203.496 200.862 204.216C201.348 204 202.302 203.874 202.914 203.874C204.408 203.874 205.542 204.756 205.542 206.43C205.542 207.402 205.596 209.364 205.614 210.498H203.454C203.526 209.652 203.562 208.122 203.544 207.15C203.544 205.998 202.824 205.62 202.068 205.62C201.078 205.62 199.944 206.214 199.26 206.862C198.72 207.402 198.216 208.05 197.604 208.842L195.678 207.402C197.982 205.278 199.368 203.334 200.124 201.354C200.484 200.382 200.718 199.284 200.772 198.366L203.148 198.564ZM196.362 200.238C197.28 200.364 198.612 200.436 199.53 200.436C201.906 200.436 205.164 200.31 207.774 199.842L207.756 201.93C205.218 202.29 201.6 202.452 199.404 202.452C198.666 202.452 197.352 202.416 196.362 202.326V200.238ZM210.618 205.35C210.06 205.512 209.088 205.872 208.476 206.106C207.306 206.556 205.686 207.204 203.994 208.068C202.356 208.914 201.474 209.688 201.474 210.678C201.474 211.668 202.338 211.938 204.084 211.938C205.614 211.938 207.63 211.74 209.214 211.416L209.142 213.738C207.936 213.9 205.74 214.062 204.03 214.062C201.222 214.062 199.116 213.36 199.116 211.038C199.116 208.536 201.69 207.06 203.85 205.98C205.506 205.116 206.64 204.684 207.72 204.18C208.422 203.874 209.052 203.586 209.736 203.244L210.618 205.35ZM7.452 229.158H9.27V234.09H7.452V229.158ZM4.932 230.994H11.844V232.542H4.932V230.994ZM11.772 231.822H16.146V233.676H11.772V231.822ZM5.094 239.562H11.7V241.128H5.094V239.562ZM10.818 228.186L11.88 229.716C9.99 230.13 7.434 230.382 5.31 230.472C5.256 230.058 5.04 229.428 4.86 229.014C6.894 228.834 9.306 228.546 10.818 228.186ZM4.698 242.424C6.48 242.298 9.144 242.082 11.736 241.848L11.754 243.414C9.36 243.72 6.858 243.972 4.968 244.188L4.698 242.424ZM15.48 231.822H17.298C17.298 231.822 17.28 232.452 17.28 232.704C17.136 240.228 17.046 242.874 16.542 243.63C16.2 244.17 15.876 244.35 15.372 244.44C14.922 244.53 14.274 244.548 13.59 244.512C13.554 243.972 13.374 243.162 13.104 242.658C13.644 242.694 14.112 242.712 14.4 242.712C14.634 242.712 14.778 242.658 14.922 242.388C15.246 241.884 15.372 239.454 15.48 232.254V231.822ZM6.498 236.61V237.42H10.242V236.61H6.498ZM6.498 234.63V235.422H10.242V234.63H6.498ZM5.13 233.334H11.682V238.716H5.13V233.334ZM7.614 233.766H9.072V238.23H9.252V242.658H7.434V238.23H7.614V233.766ZM12.708 227.772H14.544V234.036C14.544 237.474 14.202 241.848 11.736 244.692C11.394 244.35 10.692 243.81 10.224 243.558C12.456 240.966 12.708 236.988 12.708 234.036V227.772ZM3.402 227.772L5.328 228.312C4.41 231.426 2.916 234.792 1.206 236.952C1.062 236.43 0.558 235.188 0.234 234.612C1.548 232.92 2.718 230.346 3.402 227.772ZM2.196 232.722L4.104 230.814L4.122 230.832V244.656H2.196V232.722ZM32.652 230.04C32.076 230.454 31.482 230.922 31.068 231.264C29.898 232.2 27.522 234.036 26.316 235.08C25.362 235.89 25.38 236.106 26.352 236.952C27.702 238.086 31.122 240.768 32.958 242.55L30.87 244.494C30.366 243.918 29.826 243.36 29.286 242.82C28.206 241.686 25.56 239.418 23.904 238.032C22.122 236.502 22.266 235.53 24.066 234.036C25.47 232.884 27.954 230.886 29.16 229.698C29.682 229.194 30.258 228.6 30.546 228.168L32.652 230.04ZM43.4347 229.392C43.9207 229.428 44.5507 229.464 44.9287 229.464C45.9727 229.464 47.8807 229.392 48.7087 229.32C49.1587 229.284 49.6267 229.176 49.9507 229.05L51.3727 230.184C51.1387 230.454 50.9227 230.688 50.7787 230.922C50.1667 231.948 49.1947 234.27 48.3847 236.142C47.6647 237.798 46.8007 239.94 46.0627 241.074C45.3427 242.172 44.4967 242.658 43.2547 242.658C41.6887 242.658 40.5007 241.578 40.5007 239.742C40.5007 236.862 43.2547 234.648 47.1067 234.648C51.3007 234.648 54.9727 236.88 56.8627 238.176L55.8187 240.678C53.6047 238.716 50.4367 236.664 46.7287 236.664C44.1007 236.664 42.5887 238.086 42.5887 239.4C42.5887 239.994 42.9307 240.3 43.3627 240.3C43.7227 240.3 43.9567 240.138 44.2987 239.688C44.8927 238.806 45.5407 237.15 46.1887 235.728C46.8187 234.306 47.5567 232.542 48.0967 231.426C47.3767 231.444 45.8107 231.498 45.0007 231.552C44.6227 231.57 43.9927 231.642 43.5247 231.696L43.4347 229.392ZM55.2787 233.64C55.0267 238.752 54.0187 242.064 49.7167 244.296L47.7907 242.73C52.2367 240.822 52.7767 237.456 52.9387 235.35C52.9747 234.648 52.9927 233.928 52.9207 233.37L55.2787 233.64ZM69.4267 229.644C69.2287 229.878 69.0487 230.184 68.8507 230.49C67.9507 231.768 66.6907 234.072 65.8087 235.674C66.4747 235.278 67.1767 235.116 67.8607 235.116C69.2107 235.116 70.0207 235.962 70.0927 237.474C70.1287 238.266 70.0927 239.706 70.1827 240.462C70.2547 241.164 70.7407 241.452 71.3347 241.452C72.9007 241.452 73.8727 239.418 74.3767 237.186L76.3387 238.77C75.3847 241.866 73.7287 243.918 70.9567 243.918C68.9587 243.918 68.0407 242.712 67.9507 241.416C67.8967 240.444 67.8967 238.986 67.8427 238.248C67.7887 237.618 67.4467 237.24 66.7987 237.24C65.5747 237.24 64.5487 238.5 63.9187 239.958C63.4327 241.002 62.8207 243.018 62.5507 243.972L60.0127 243.108C61.3267 239.508 65.0167 232.164 65.9887 230.436C66.2047 229.968 66.5467 229.374 66.8707 228.618L69.4267 229.644ZM79.9567 231.21C80.7307 231.3 81.7027 231.336 82.3507 231.336C84.5827 231.336 87.0127 230.958 88.7587 230.4L88.8127 232.488C87.2647 232.92 84.6727 233.388 82.3687 233.37C81.6487 233.37 80.8927 233.352 80.1187 233.316L79.9567 231.21ZM86.9587 228.51C86.7247 229.464 86.2927 231.228 85.8067 232.758C84.9787 235.35 83.3587 238.698 81.8287 240.822L79.6507 239.706C81.2707 237.726 82.8907 234.576 83.5927 232.632C84.0247 231.336 84.4207 229.662 84.4747 228.276L86.9587 228.51ZM91.1887 234.126C91.1347 234.882 91.1527 235.638 91.1707 236.43C91.2067 237.492 91.3687 240.174 91.3687 241.182C91.3687 242.856 90.4687 244.17 87.8947 244.17C85.6627 244.17 83.8987 243.162 83.8987 241.182C83.8987 239.436 85.3747 238.068 87.8767 238.068C91.0267 238.068 93.5107 239.652 95.0047 241.002L93.8167 242.946C92.5207 241.74 90.4687 239.886 87.7507 239.886C86.7067 239.886 86.0227 240.336 86.0227 240.966C86.0227 241.632 86.5987 242.1 87.5887 242.1C88.8127 242.1 89.2087 241.416 89.2087 240.408C89.2087 239.328 89.0107 236.016 88.9207 234.126H91.1887ZM94.2847 235.08C93.2407 234.234 91.1887 233.064 89.9467 232.506L91.1167 230.742C92.4127 231.3 94.6267 232.506 95.5627 233.172L94.2847 235.08ZM99.1627 230.67C99.8647 230.652 100.585 230.616 100.927 230.58C102.421 230.436 105.391 230.184 108.685 229.896C110.557 229.752 112.519 229.626 113.797 229.572L113.815 231.894C112.843 231.894 111.295 231.912 110.323 232.128C108.163 232.704 106.525 235.044 106.525 237.186C106.525 240.138 109.297 241.218 112.339 241.362L111.493 243.828C107.731 243.594 104.167 241.56 104.167 237.654C104.167 235.08 105.625 233.028 106.831 232.11C105.157 232.29 101.467 232.686 99.3967 233.136L99.1627 230.67ZM111.241 233.658C111.673 234.288 112.321 235.386 112.663 236.106L111.313 236.7C110.845 235.728 110.467 235.008 109.909 234.216L111.241 233.658ZM113.239 232.83C113.707 233.46 114.391 234.522 114.769 235.224L113.419 235.872C112.933 234.9 112.519 234.216 111.943 233.424L113.239 232.83ZM118.315 233.136C118.981 233.028 119.881 232.794 120.547 232.596C121.915 232.164 125.587 230.886 128.233 230.886C131.473 230.886 134.047 232.758 134.047 236.088C134.047 240.156 130.159 242.766 123.823 243.09L122.761 240.696C127.639 240.588 131.473 239.184 131.473 236.034C131.473 234.342 130.303 233.064 128.143 233.064C125.479 233.064 121.231 234.846 119.341 235.674L118.315 233.136ZM150.013 230.04C149.437 230.454 148.843 230.922 148.429 231.264C147.259 232.2 144.883 234.036 143.677 235.08C142.723 235.89 142.741 236.106 143.713 236.952C145.063 238.086 148.483 240.768 150.319 242.55L148.231 244.494C147.727 243.918 147.187 243.36 146.647 242.82C145.567 241.686 142.921 239.418 141.265 238.032C139.483 236.502 139.627 235.53 141.427 234.036C142.831 232.884 145.315 230.886 146.521 229.698C147.043 229.194 147.619 228.6 147.907 228.168L150.013 230.04ZM159.849 229.302C160.353 229.356 160.965 229.392 161.469 229.392C162.441 229.392 166.275 229.302 167.301 229.212C168.057 229.158 168.471 229.086 168.687 229.014L169.839 230.634C169.425 230.904 168.993 231.156 168.597 231.462C167.625 232.146 165.735 233.73 164.583 234.63C165.195 234.468 165.735 234.432 166.293 234.432C169.353 234.432 171.675 236.34 171.675 238.95C171.675 241.794 169.515 244.044 165.159 244.044C162.657 244.044 160.767 242.91 160.767 241.092C160.767 239.634 162.099 238.302 164.007 238.302C166.473 238.302 167.841 239.958 167.895 241.938L165.789 242.208C165.753 240.912 165.069 240.012 164.007 240.012C163.341 240.012 162.891 240.426 162.891 240.894C162.891 241.56 163.629 242.01 164.727 242.01C167.769 242.01 169.317 240.858 169.317 238.932C169.317 237.294 167.697 236.196 165.591 236.196C162.819 236.196 161.037 237.672 159.111 239.85L157.473 238.158C158.751 237.15 160.929 235.314 161.973 234.432C162.981 233.604 164.871 232.092 165.753 231.3C164.835 231.336 162.351 231.426 161.379 231.498C160.893 231.534 160.335 231.57 159.921 231.642L159.849 229.302ZM178.803 238.554C180.423 238.554 181.719 239.85 181.719 241.452C181.719 243.072 180.423 244.368 178.803 244.368C177.201 244.368 175.887 243.072 175.887 241.452C175.887 239.85 177.201 238.554 178.803 238.554ZM178.803 243.072C179.703 243.072 180.423 242.352 180.423 241.452C180.423 240.57 179.703 239.85 178.803 239.85C177.921 239.85 177.183 240.57 177.183 241.452C177.183 242.352 177.921 243.072 178.803 243.072Z" fill="#333333"/>
</svg>
