<svg width="390" height="844" viewBox="0 0 390 844" fill="none" xmlns="http://www.w3.org/2000/svg">
<rect width="390" height="844" fill="white"/>
<path d="M36.7148 382.562H47.0469C49.2083 382.562 51.0638 382.888 52.6133 383.539C54.1628 384.19 55.3542 385.154 56.1875 386.43C57.0208 387.706 57.4375 389.275 57.4375 391.137C57.4375 392.608 57.1771 393.884 56.6562 394.965C56.1354 396.046 55.3997 396.951 54.4492 397.68C53.5117 398.409 52.4049 398.982 51.1289 399.398L49.4492 400.258H40.3281L40.2891 396.02H47.1055C48.2122 396.02 49.1302 395.824 49.8594 395.434C50.5885 395.043 51.1354 394.503 51.5 393.812C51.8776 393.122 52.0664 392.335 52.0664 391.449C52.0664 390.499 51.8841 389.678 51.5195 388.988C51.1549 388.285 50.6016 387.745 49.8594 387.367C49.1172 386.99 48.1797 386.801 47.0469 386.801H42.0859V411H36.7148V382.562ZM52.7695 411L46.1875 398.266L51.8711 398.246L58.5312 410.727V411H52.7695ZM76.5945 406.508V396.762C76.5945 396.046 76.4708 395.427 76.2234 394.906C75.976 394.385 75.5984 393.982 75.0906 393.695C74.5828 393.409 73.9383 393.266 73.157 393.266C72.4669 393.266 71.8615 393.383 71.3406 393.617C70.8328 393.852 70.4422 394.184 70.1688 394.613C69.8953 395.03 69.7586 395.512 69.7586 396.059H64.5828C64.5828 395.186 64.7911 394.359 65.2078 393.578C65.6245 392.784 66.2169 392.081 66.9852 391.469C67.7664 390.844 68.6974 390.355 69.7781 390.004C70.8719 389.652 72.0958 389.477 73.45 389.477C75.0516 389.477 76.4773 389.75 77.7273 390.297C78.9904 390.831 79.9799 391.638 80.6961 392.719C81.4253 393.799 81.7898 395.16 81.7898 396.801V406.02C81.7898 407.074 81.8549 407.979 81.9852 408.734C82.1284 409.477 82.3367 410.121 82.6102 410.668V411H77.3563C77.1089 410.466 76.9201 409.789 76.7898 408.969C76.6596 408.135 76.5945 407.315 76.5945 406.508ZM77.3172 398.129L77.3563 401.195H74.0945C73.2872 401.195 72.5776 401.28 71.9656 401.449C71.3536 401.605 70.8523 401.84 70.4617 402.152C70.0711 402.452 69.7781 402.816 69.5828 403.246C69.3875 403.663 69.2898 404.138 69.2898 404.672C69.2898 405.193 69.407 405.661 69.6414 406.078C69.8888 406.495 70.2404 406.827 70.6961 407.074C71.1648 407.309 71.7117 407.426 72.3367 407.426C73.2482 407.426 74.0424 407.243 74.7195 406.879C75.3966 406.501 75.924 406.046 76.3016 405.512C76.6792 404.978 76.881 404.47 76.907 403.988L78.3914 406.215C78.2091 406.749 77.9357 407.315 77.5711 407.914C77.2065 408.513 76.7378 409.073 76.1648 409.594C75.5919 410.115 74.9018 410.544 74.0945 410.883C73.2872 411.221 72.3497 411.391 71.282 411.391C69.9148 411.391 68.6909 411.117 67.6102 410.57C66.5294 410.023 65.6766 409.275 65.0516 408.324C64.4266 407.374 64.1141 406.293 64.1141 405.082C64.1141 403.962 64.3224 402.973 64.7391 402.113C65.1557 401.254 65.7742 400.531 66.5945 399.945C67.4148 399.346 68.4305 398.897 69.6414 398.598C70.8654 398.285 72.2651 398.129 73.8406 398.129H77.3172ZM95.5172 408.656L101.181 389.867H106.709L98.232 414.203C98.0367 414.724 97.7828 415.29 97.4703 415.902C97.1708 416.514 96.7672 417.094 96.2594 417.641C95.7516 418.201 95.1135 418.656 94.3453 419.008C93.5901 419.359 92.6721 419.535 91.5914 419.535C91.1227 419.535 90.706 419.503 90.3414 419.438C89.9768 419.372 89.5927 419.288 89.1891 419.184V415.316C89.3193 415.329 89.469 415.336 89.6383 415.336C89.8206 415.349 89.9768 415.355 90.107 415.355C90.8622 415.355 91.4872 415.264 91.982 415.082C92.4768 414.913 92.874 414.633 93.1734 414.242C93.4859 413.865 93.7464 413.37 93.9547 412.758L95.5172 408.656ZM92.7242 389.867L97.5094 405.434L98.3492 410.883L94.7945 411.527L87.1578 389.867H92.7242ZM51.5977 453.617C51.5977 453.07 51.513 452.582 51.3438 452.152C51.1875 451.71 50.8945 451.312 50.4648 450.961C50.0482 450.596 49.4557 450.245 48.6875 449.906C47.9323 449.555 46.9557 449.19 45.7578 448.812C44.4297 448.396 43.1927 447.927 42.0469 447.406C40.901 446.885 39.8919 446.28 39.0195 445.59C38.1602 444.9 37.4896 444.105 37.0078 443.207C36.526 442.296 36.2852 441.241 36.2852 440.043C36.2852 438.871 36.5326 437.803 37.0273 436.84C37.5352 435.876 38.2513 435.049 39.1758 434.359C40.1003 433.656 41.1875 433.116 42.4375 432.738C43.7005 432.361 45.0938 432.172 46.6172 432.172C48.7266 432.172 50.5495 432.556 52.0859 433.324C53.6354 434.092 54.8333 435.134 55.6797 436.449C56.526 437.764 56.9492 439.242 56.9492 440.883H51.5977C51.5977 439.997 51.4089 439.216 51.0312 438.539C50.6667 437.862 50.1068 437.328 49.3516 436.938C48.6094 436.547 47.6719 436.352 46.5391 436.352C45.4453 436.352 44.5339 436.514 43.8047 436.84C43.0885 437.165 42.5482 437.608 42.1836 438.168C41.832 438.728 41.6562 439.353 41.6562 440.043C41.6562 440.564 41.7799 441.033 42.0273 441.449C42.2747 441.853 42.6458 442.237 43.1406 442.602C43.6354 442.953 44.2474 443.285 44.9766 443.598C45.7188 443.897 46.5781 444.197 47.5547 444.496C49.1172 444.965 50.4844 445.486 51.6562 446.059C52.8411 446.632 53.8242 447.283 54.6055 448.012C55.3997 448.741 55.9922 449.561 56.3828 450.473C56.7865 451.384 56.9883 452.419 56.9883 453.578C56.9883 454.802 56.7474 455.896 56.2656 456.859C55.7839 457.823 55.0938 458.643 54.1953 459.32C53.2969 459.997 52.2161 460.512 50.9531 460.863C49.7031 461.215 48.3034 461.391 46.7539 461.391C45.3737 461.391 44.0065 461.208 42.6523 460.844C41.3112 460.466 40.0938 459.906 39 459.164C37.9062 458.409 37.0339 457.458 36.3828 456.312C35.7318 455.154 35.4062 453.799 35.4062 452.25H40.7969C40.7969 453.148 40.9401 453.917 41.2266 454.555C41.526 455.18 41.9427 455.694 42.4766 456.098C43.0234 456.488 43.6615 456.775 44.3906 456.957C45.1198 457.139 45.9076 457.23 46.7539 457.23C47.8477 457.23 48.7461 457.081 49.4492 456.781C50.1654 456.469 50.6992 456.039 51.0508 455.492C51.4154 454.945 51.5977 454.32 51.5977 453.617ZM75.6375 436.879L67.532 461H61.8484L72.4734 432.562H76.1063L75.6375 436.879ZM82.4148 461L74.2703 436.879L73.782 432.562H77.4344L88.118 461H82.4148ZM82.0438 450.434V454.672H66.7898V450.434H82.0438ZM112.295 456.781V461H97.9977V456.781H112.295ZM99.6188 432.562V461H94.2477V432.562H99.6188ZM140.827 446.059V447.523C140.827 449.672 140.54 451.605 139.967 453.324C139.394 455.03 138.58 456.482 137.526 457.68C136.471 458.878 135.215 459.796 133.756 460.434C132.298 461.072 130.677 461.391 128.893 461.391C127.135 461.391 125.521 461.072 124.049 460.434C122.591 459.796 121.328 458.878 120.26 457.68C119.192 456.482 118.366 455.03 117.78 453.324C117.194 451.605 116.901 449.672 116.901 447.523V446.059C116.901 443.897 117.194 441.964 117.78 440.258C118.366 438.552 119.186 437.1 120.241 435.902C121.295 434.691 122.552 433.767 124.01 433.129C125.482 432.491 127.096 432.172 128.854 432.172C130.638 432.172 132.259 432.491 133.717 433.129C135.176 433.767 136.432 434.691 137.487 435.902C138.554 437.1 139.375 438.552 139.948 440.258C140.534 441.964 140.827 443.897 140.827 446.059ZM135.397 447.523V446.02C135.397 444.47 135.254 443.109 134.967 441.938C134.681 440.753 134.258 439.757 133.698 438.949C133.138 438.142 132.448 437.536 131.627 437.133C130.807 436.716 129.883 436.508 128.854 436.508C127.812 436.508 126.888 436.716 126.08 437.133C125.286 437.536 124.609 438.142 124.049 438.949C123.489 439.757 123.06 440.753 122.76 441.938C122.474 443.109 122.33 444.47 122.33 446.02V447.523C122.33 449.06 122.474 450.421 122.76 451.605C123.06 452.79 123.489 453.793 124.049 454.613C124.622 455.421 125.312 456.033 126.12 456.449C126.927 456.866 127.851 457.074 128.893 457.074C129.935 457.074 130.859 456.866 131.666 456.449C132.474 456.033 133.151 455.421 133.698 454.613C134.258 453.793 134.681 452.79 134.967 451.605C135.254 450.421 135.397 449.06 135.397 447.523ZM171.429 432.562V461H166.038L153.948 441.273V461H148.577V432.562H153.948L166.077 452.309V432.562H171.429ZM195.602 432.562H200.251L208.024 453.969L215.778 432.562H220.446L209.88 461H206.149L195.602 432.562ZM193.259 432.562H197.809L198.63 452.23V461H193.259V432.562ZM218.22 432.562H222.79V461H217.419V452.23L218.22 432.562ZM254.486 446.059V447.523C254.486 449.672 254.199 451.605 253.627 453.324C253.054 455.03 252.24 456.482 251.185 457.68C250.13 458.878 248.874 459.796 247.416 460.434C245.957 461.072 244.336 461.391 242.552 461.391C240.795 461.391 239.18 461.072 237.709 460.434C236.25 459.796 234.987 458.878 233.92 457.68C232.852 456.482 232.025 455.03 231.439 453.324C230.853 451.605 230.56 449.672 230.56 447.523V446.059C230.56 443.897 230.853 441.964 231.439 440.258C232.025 438.552 232.845 437.1 233.9 435.902C234.955 434.691 236.211 433.767 237.67 433.129C239.141 432.491 240.755 432.172 242.513 432.172C244.297 432.172 245.918 432.491 247.377 433.129C248.835 433.767 250.091 434.691 251.146 435.902C252.214 437.1 253.034 438.552 253.607 440.258C254.193 441.964 254.486 443.897 254.486 446.059ZM249.056 447.523V446.02C249.056 444.47 248.913 443.109 248.627 441.938C248.34 440.753 247.917 439.757 247.357 438.949C246.797 438.142 246.107 437.536 245.287 437.133C244.466 436.716 243.542 436.508 242.513 436.508C241.472 436.508 240.547 436.716 239.74 437.133C238.946 437.536 238.268 438.142 237.709 438.949C237.149 439.757 236.719 440.753 236.42 441.938C236.133 443.109 235.99 444.47 235.99 446.02V447.523C235.99 449.06 236.133 450.421 236.42 451.605C236.719 452.79 237.149 453.793 237.709 454.613C238.282 455.421 238.972 456.033 239.779 456.449C240.586 456.866 241.511 457.074 242.552 457.074C243.594 457.074 244.518 456.866 245.326 456.449C246.133 456.033 246.81 455.421 247.357 454.613C247.917 453.793 248.34 452.79 248.627 451.605C248.913 450.421 249.056 449.06 249.056 447.523ZM262.237 432.562H272.569C274.73 432.562 276.586 432.888 278.135 433.539C279.685 434.19 280.876 435.154 281.709 436.43C282.543 437.706 282.959 439.275 282.959 441.137C282.959 442.608 282.699 443.884 282.178 444.965C281.657 446.046 280.922 446.951 279.971 447.68C279.034 448.409 277.927 448.982 276.651 449.398L274.971 450.258H265.85L265.811 446.02H272.627C273.734 446.02 274.652 445.824 275.381 445.434C276.11 445.043 276.657 444.503 277.022 443.812C277.399 443.122 277.588 442.335 277.588 441.449C277.588 440.499 277.406 439.678 277.041 438.988C276.677 438.285 276.123 437.745 275.381 437.367C274.639 436.99 273.702 436.801 272.569 436.801H267.608V461H262.237V432.562ZM278.291 461L271.709 448.266L277.393 448.246L284.053 460.727V461H278.291ZM296.589 432.562V461H291.218V432.562H296.589ZM308.363 432.562L314.613 445.824L320.902 432.562H326.801L317.348 450.59V461H311.898V450.59L302.426 432.562H308.363ZM341.739 436.879L333.634 461H327.95L338.575 432.562H342.208L341.739 436.879ZM348.516 461L340.372 436.879L339.884 432.562H343.536L354.22 461H348.516ZM348.145 450.434V454.672H332.891V450.434H348.145Z" fill="#212121"/>
<path d="M34.608 323.72H49.424V325.816H34.608V323.72ZM59.168 319.032H65.056V320.632H59.168V319.032ZM61.184 327.496H65.92V329H61.184V327.496ZM61.136 330.2H65.984V331.784H61.136V330.2ZM58.656 321.976H67.872V323.608H58.656V321.976ZM61.376 317.432H63.152V322.968H61.376V317.432ZM55.264 317.432L56.928 318.008C56.272 319.256 55.536 320.68 54.928 321.576L53.648 321.048C54.208 320.088 54.896 318.536 55.264 317.432ZM57.072 319.32L58.624 320.04C57.456 321.832 55.904 324.056 54.672 325.432L53.568 324.808C54.768 323.368 56.224 321.032 57.072 319.32ZM52.784 321.16L53.728 319.88C54.56 320.632 55.536 321.672 55.92 322.424L54.88 323.896C54.528 323.112 53.584 321.976 52.784 321.16ZM56.528 323.16L57.856 322.6C58.48 323.656 59.088 325.048 59.296 325.96L57.84 326.616C57.68 325.704 57.104 324.264 56.528 323.16ZM52.736 324.44C54.176 324.36 56.24 324.248 58.24 324.12L58.256 325.688C56.384 325.832 54.432 325.976 52.944 326.088L52.736 324.44ZM56.96 327.176L58.304 326.76C58.688 327.656 59.008 328.824 59.12 329.592L57.696 330.056C57.616 329.272 57.312 328.088 56.96 327.176ZM53.424 326.824L54.96 327.08C54.8 328.616 54.464 330.2 54 331.224C53.68 331.016 52.976 330.712 52.608 330.552C53.056 329.608 53.296 328.168 53.424 326.824ZM55.184 325.288H56.832V332.44H55.184V325.288ZM66.08 317.736L67.744 318.264C66.192 322.408 63.408 325.496 59.264 327.544C59.04 327.16 58.496 326.504 58.128 326.2C62.032 324.392 64.784 321.384 66.08 317.736ZM61.888 324.776H65.968V326.344H61.888V332.424H60.16V325.736L61.072 324.776H61.888ZM65.152 324.776H67.008V332.44H65.152V324.776ZM77.952 319.816C79.92 320.088 83.12 320.008 84.832 319.8V321.864C82.88 322.056 79.968 322.056 77.968 321.864L77.952 319.816ZM79.232 326.648C79.104 327.192 79.04 327.576 79.04 327.992C79.04 328.712 79.664 329.144 81.296 329.144C82.72 329.144 83.904 329.016 85.296 328.712L85.344 330.872C84.304 331.08 83.008 331.192 81.2 331.192C78.448 331.192 77.12 330.2 77.12 328.568C77.12 327.928 77.216 327.304 77.408 326.488L79.232 326.648ZM75.488 318.744C75.376 319.08 75.168 319.896 75.104 320.184C74.88 321.24 74.32 324.44 74.32 326.04C74.32 326.36 74.336 326.76 74.384 327.08C74.624 326.536 74.88 325.992 75.12 325.448L76.112 326.232C75.648 327.576 75.12 329.304 74.96 330.152C74.912 330.392 74.864 330.744 74.864 330.904C74.88 331.08 74.88 331.352 74.896 331.576L73.056 331.688C72.736 330.6 72.432 328.648 72.432 326.472C72.432 324.056 72.912 321.368 73.088 320.12C73.152 319.688 73.232 319.08 73.248 318.568L75.488 318.744ZM95.824 318.696H97.44V323.08H95.824V318.696ZM93.584 320.328H99.728V321.704H93.584V320.328ZM99.664 321.064H103.552V322.712H99.664V321.064ZM93.728 327.944H99.6V329.336H93.728V327.944ZM98.816 317.832L99.76 319.192C98.08 319.56 95.808 319.784 93.92 319.864C93.872 319.496 93.68 318.936 93.52 318.568C95.328 318.408 97.472 318.152 98.816 317.832ZM93.376 330.488C94.96 330.376 97.328 330.184 99.632 329.976L99.648 331.368C97.52 331.64 95.296 331.864 93.616 332.056L93.376 330.488ZM102.96 321.064H104.576C104.576 321.064 104.56 321.624 104.56 321.848C104.432 328.536 104.352 330.888 103.904 331.56C103.6 332.04 103.312 332.2 102.864 332.28C102.464 332.36 101.888 332.376 101.28 332.344C101.248 331.864 101.088 331.144 100.848 330.696C101.328 330.728 101.744 330.744 102 330.744C102.208 330.744 102.336 330.696 102.464 330.456C102.752 330.008 102.864 327.848 102.96 321.448V321.064ZM94.976 325.32V326.04H98.304V325.32H94.976ZM94.976 323.56V324.264H98.304V323.56H94.976ZM93.76 322.408H99.584V327.192H93.76V322.408ZM95.968 322.792H97.264V326.76H97.424V330.696H95.808V326.76H95.968V322.792ZM100.496 317.464H102.128V323.032C102.128 326.088 101.824 329.976 99.632 332.504C99.328 332.2 98.704 331.72 98.288 331.496C100.272 329.192 100.496 325.656 100.496 323.032V317.464ZM92.224 317.464L93.936 317.944C93.12 320.712 91.792 323.704 90.272 325.624C90.144 325.16 89.696 324.056 89.408 323.544C90.576 322.04 91.616 319.752 92.224 317.464ZM91.152 321.864L92.848 320.168L92.864 320.184V332.472H91.152V321.864ZM120.048 318.28C119.984 318.632 119.968 319.016 119.968 319.384C119.936 320.12 119.968 323.144 119.968 324.088C119.968 327.848 119.68 330.184 116.496 332.2L114.64 330.76C115.264 330.488 116.064 329.976 116.512 329.48C117.728 328.2 118 326.76 118 324.072C118 322.872 117.968 320.28 117.888 319.384C117.856 319 117.776 318.536 117.712 318.28H120.048ZM113.728 321.416C114.512 321.528 115.296 321.576 116.16 321.576C118.224 321.576 120.784 321.432 122.352 321.144V323.224C120.832 323.4 118.368 323.528 116.208 323.528C115.504 323.528 114.528 323.48 113.728 323.432V321.416ZM112.08 318.552C111.952 318.952 111.792 319.528 111.712 319.864C111.312 321.64 110.736 325 111.168 326.984C111.376 326.488 111.68 325.704 111.936 325.128L112.944 325.768C112.464 327.144 112.048 328.744 111.856 329.656C111.792 329.912 111.744 330.264 111.76 330.44C111.76 330.616 111.776 330.888 111.792 331.112L110 331.288C109.648 330.312 109.088 328.088 109.088 326.104C109.088 323.48 109.408 321.016 109.616 319.704C109.68 319.272 109.696 318.728 109.712 318.328L112.08 318.552ZM129.52 318.824C129.968 318.872 130.512 318.904 130.96 318.904C131.824 318.904 135.232 318.824 136.144 318.744C136.816 318.696 137.184 318.632 137.376 318.568L138.4 320.008C138.032 320.248 137.648 320.472 137.296 320.744C136.432 321.352 134.752 322.76 133.728 323.56C134.272 323.416 134.752 323.384 135.248 323.384C137.968 323.384 140.032 325.08 140.032 327.4C140.032 329.928 138.112 331.928 134.24 331.928C132.016 331.928 130.336 330.92 130.336 329.304C130.336 328.008 131.52 326.824 133.216 326.824C135.408 326.824 136.624 328.296 136.672 330.056L134.8 330.296C134.768 329.144 134.16 328.344 133.216 328.344C132.624 328.344 132.224 328.712 132.224 329.128C132.224 329.72 132.88 330.12 133.856 330.12C136.56 330.12 137.936 329.096 137.936 327.384C137.936 325.928 136.496 324.952 134.624 324.952C132.16 324.952 130.576 326.264 128.864 328.2L127.408 326.696C128.544 325.8 130.48 324.168 131.408 323.384C132.304 322.648 133.984 321.304 134.768 320.6C133.952 320.632 131.744 320.712 130.88 320.776C130.448 320.808 129.952 320.84 129.584 320.904L129.52 318.824ZM148.24 317.464L150.048 318.024C149.04 320.744 147.424 323.64 145.712 325.48C145.536 325 145.008 323.944 144.688 323.48C146.096 322.024 147.456 319.752 148.24 317.464ZM146.672 321.912L148.48 320.088L148.496 320.104V332.424H146.672V321.912ZM149.648 320.632H159.472V328.168H157.568V322.408H151.472V328.296H149.648V320.632ZM150.672 325.56H158.576V327.32H150.672V325.56ZM153.536 317.608H155.44V332.424H153.536V317.608ZM168.592 327.176H172.976V328.552H168.592V327.176ZM168.48 324.808H173.872V330.952H168.48V329.544H172.08V326.216H168.48V324.808ZM167.696 324.808H169.424V331.768H167.696V324.808ZM165.008 320.248H169.024V321.544H165.008V320.248ZM172.432 320.248H176.48V321.544H172.432V320.248ZM175.696 318.024H177.632V330.168C177.632 331.208 177.424 331.768 176.784 332.088C176.144 332.408 175.216 332.44 173.84 332.44C173.76 331.896 173.472 331 173.216 330.488C174.048 330.536 175.024 330.52 175.312 330.52C175.6 330.52 175.696 330.424 175.696 330.152V318.024ZM165.168 318.024H170.224V323.832H165.168V322.456H168.432V319.416H165.168V318.024ZM176.72 318.024V319.416H173.136V322.504H176.72V323.88H171.312V318.024H176.72ZM164.064 318.024H165.968V332.44H164.064V318.024ZM188.976 318.168C188.848 318.76 188.64 319.704 188.192 320.856C187.856 321.64 187.392 322.552 186.944 323.192C187.376 323 188.224 322.888 188.768 322.888C190.096 322.888 191.104 323.672 191.104 325.16C191.104 326.024 191.152 327.768 191.168 328.776H189.248C189.312 328.024 189.344 326.664 189.328 325.8C189.328 324.776 188.688 324.44 188.016 324.44C187.136 324.44 186.128 324.968 185.52 325.544C185.04 326.024 184.592 326.6 184.048 327.304L182.336 326.024C184.384 324.136 185.616 322.408 186.288 320.648C186.608 319.784 186.816 318.808 186.864 317.992L188.976 318.168ZM182.944 319.656C183.76 319.768 184.944 319.832 185.76 319.832C187.872 319.832 190.768 319.72 193.088 319.304L193.072 321.16C190.816 321.48 187.6 321.624 185.648 321.624C184.992 321.624 183.824 321.592 182.944 321.512V319.656ZM195.616 324.2C195.12 324.344 194.256 324.664 193.712 324.872C192.672 325.272 191.232 325.848 189.728 326.616C188.272 327.368 187.488 328.056 187.488 328.936C187.488 329.816 188.256 330.056 189.808 330.056C191.168 330.056 192.96 329.88 194.368 329.592L194.304 331.656C193.232 331.8 191.28 331.944 189.76 331.944C187.264 331.944 185.392 331.32 185.392 329.256C185.392 327.032 187.68 325.72 189.6 324.76C191.072 323.992 192.08 323.608 193.04 323.16C193.664 322.888 194.224 322.632 194.832 322.328L195.616 324.2ZM202.848 328.264H211.088V329.624H202.848V328.264ZM200.416 325.688H214.8V327.176H200.416V325.688ZM205.088 324.696L206.944 324.984C205.92 327.112 204.144 328.76 201.008 329.88C200.8 329.448 200.288 328.792 199.92 328.52C202.816 327.656 204.384 326.248 205.088 324.696ZM210.864 326.168C211.76 327.208 213.552 328.12 215.328 328.52C214.928 328.888 214.384 329.592 214.128 330.056C212.24 329.448 210.448 328.184 209.392 326.728L210.864 326.168ZM210.416 328.264H212.24C212.24 328.264 212.224 328.68 212.192 328.904C212.032 330.632 211.84 331.48 211.472 331.864C211.152 332.184 210.784 332.28 210.304 332.328C209.888 332.376 209.152 332.376 208.368 332.36C208.336 331.88 208.16 331.256 207.92 330.84C208.56 330.904 209.168 330.92 209.456 330.92C209.696 330.92 209.824 330.888 209.968 330.776C210.176 330.584 210.304 329.944 210.416 328.472V328.264ZM206.32 327.416H208.144C207.792 330.088 206.88 331.704 202.624 332.52C202.464 332.072 202.032 331.4 201.712 331.064C205.424 330.472 206.048 329.368 206.32 327.416ZM200.624 318.264H214.576V319.784H200.624V318.264ZM203.984 317.416H205.856V320.344H203.984V317.416ZM209.28 317.416H211.168V320.344H209.28V317.416ZM203.984 323.368V323.992H211.2V323.368H203.984ZM203.984 321.688V322.312H211.2V321.688H203.984ZM202.144 320.584H213.136V325.112H202.144V320.584ZM218.768 327.256H233.232V328.792H218.768V327.256ZM221.84 321.304H231.536V322.552H221.84V321.304ZM221.84 323.224H231.552V324.472H221.84V323.224ZM221.456 319.144H232.336V320.648H221.456V319.144ZM225.44 320.088H227.28V325.704H225.44V320.088ZM224.992 326.232H226.912V332.424H224.992V326.232ZM224.848 327.896L226.288 328.6C224.64 330.232 221.888 331.64 219.456 332.344C219.184 331.864 218.64 331.16 218.224 330.76C220.656 330.248 223.424 329.128 224.848 327.896ZM227.12 327.848C228.496 329.064 231.2 330.184 233.6 330.712C233.2 331.096 232.672 331.8 232.4 332.264C229.984 331.576 227.296 330.168 225.664 328.568L227.12 327.848ZM226.24 317.416L228.4 317.672C227.888 318.632 227.312 319.528 226.864 320.152L225.168 319.816C225.568 319.128 226.016 318.136 226.24 317.416ZM222.144 317.384L224.112 317.768C223.04 319.64 221.632 321.48 219.664 323.064C219.36 322.632 218.736 322.04 218.304 321.768C220.096 320.472 221.408 318.792 222.144 317.384ZM220.592 320.12H222.416V325.16H232.8V326.616H220.592V320.12ZM242.336 318.312C242.24 318.984 242.16 319.816 242.128 320.456C242.048 322.184 241.936 325.752 241.936 327.736C241.936 329.352 242.896 329.88 244.144 329.88C246.784 329.88 248.448 328.36 249.616 326.616L251.072 328.392C250.032 329.928 247.76 332.056 244.112 332.056C241.488 332.056 239.808 330.904 239.808 328.168C239.808 326.024 239.952 321.832 239.952 320.456C239.952 319.688 239.888 318.92 239.76 318.296L242.336 318.312ZM255.452 320.008C256.076 319.992 256.716 319.96 257.02 319.928C258.364 319.8 260.988 319.576 263.932 319.32C265.58 319.176 267.324 319.08 268.46 319.032L268.476 321.096C267.612 321.096 266.236 321.112 265.372 321.304C263.452 321.816 261.996 323.896 261.996 325.784C261.996 328.424 264.46 329.368 267.164 329.512L266.428 331.704C263.068 331.496 259.9 329.688 259.9 326.216C259.9 323.912 261.196 322.104 262.284 321.288C260.78 321.448 257.516 321.784 255.66 322.2L255.452 320.008ZM276.86 319.576C276.748 320.136 276.668 321.08 276.668 321.528C276.668 322.568 276.668 323.752 276.764 324.92C276.988 327.224 277.468 328.808 278.476 328.808C279.244 328.808 279.868 326.92 280.172 325.656L281.788 327.592C280.716 330.392 279.724 331.352 278.444 331.352C276.668 331.352 275.148 329.784 274.7 325.496C274.54 324.024 274.524 322.136 274.524 321.16C274.524 320.728 274.508 320.04 274.396 319.544L276.86 319.576ZM284.86 319.928C286.38 321.768 287.612 325.768 287.788 328.216L285.676 329.048C285.436 326.456 284.572 322.584 282.828 320.6L284.86 319.928ZM300.668 318.072C300.62 318.392 300.572 318.792 300.556 319.208C300.524 320.024 300.508 322.296 300.508 323.64C300.508 325.4 300.764 328.296 300.764 329.56C300.764 330.936 299.724 331.992 297.628 331.992C295.068 331.992 293.724 331.016 293.724 329.32C293.724 327.704 295.212 326.568 297.66 326.568C301.18 326.568 303.804 328.296 305.132 329.416L303.98 331.208C302.46 329.768 300.14 328.216 297.404 328.216C296.284 328.216 295.66 328.648 295.66 329.208C295.66 329.816 296.22 330.184 297.324 330.184C298.172 330.184 298.748 329.944 298.748 329.016C298.748 328.056 298.572 325.192 298.572 323.64C298.572 322.104 298.588 320.072 298.588 319.16C298.588 318.872 298.556 318.376 298.492 318.072H300.668ZM294.028 319.56C295.164 319.752 297.004 319.912 297.98 319.912C300.156 319.912 302.252 319.8 304.588 319.432L304.572 321.256C302.94 321.48 300.396 321.672 297.996 321.672C296.972 321.672 295.116 321.528 294.06 321.4L294.028 319.56ZM293.932 323.016C294.988 323.208 296.94 323.32 297.788 323.32C300.748 323.32 302.812 323.128 304.78 322.872L304.764 324.76C302.556 325.016 300.812 325.112 297.772 325.112C296.828 325.112 295.02 325.032 293.964 324.904L293.932 323.016ZM319.964 318.104C319.916 318.376 319.868 319.224 319.852 319.48C319.804 320.536 319.836 323.8 319.852 325.08L317.852 324.408C317.852 323.416 317.852 320.344 317.788 319.496C317.74 318.856 317.676 318.312 317.644 318.104H319.964ZM310.908 320.104C313.292 320.104 317.516 319.976 319.516 319.976C321.148 319.976 323.58 319.96 324.476 319.976L324.444 321.864C323.452 321.816 321.82 321.768 319.468 321.768C316.556 321.768 313.372 321.896 310.956 322.024L310.908 320.104ZM319.58 324.84C319.58 327.448 318.62 328.744 316.78 328.744C315.548 328.744 314.012 327.768 314.012 325.816C314.012 324.008 315.484 322.824 317.212 322.824C319.324 322.824 320.428 324.376 320.428 326.36C320.428 328.456 319.196 331.096 315.292 332.2L313.596 330.504C316.316 329.912 318.444 328.84 318.444 326.04C318.444 325 317.884 324.504 317.18 324.504C316.556 324.504 315.932 324.936 315.932 325.784C315.932 326.504 316.524 326.968 317.18 326.968C317.932 326.968 318.588 326.328 318.076 324.424L319.58 324.84Z" fill="#212121"/>
<path d="M41.452 509.158H43.27V514.09H41.452V509.158ZM38.932 510.994H45.844V512.542H38.932V510.994ZM45.772 511.822H50.146V513.676H45.772V511.822ZM39.094 519.562H45.7V521.128H39.094V519.562ZM44.818 508.186L45.88 509.716C43.99 510.13 41.434 510.382 39.31 510.472C39.256 510.058 39.04 509.428 38.86 509.014C40.894 508.834 43.306 508.546 44.818 508.186ZM38.698 522.424C40.48 522.298 43.144 522.082 45.736 521.848L45.754 523.414C43.36 523.72 40.858 523.972 38.968 524.188L38.698 522.424ZM49.48 511.822H51.298C51.298 511.822 51.28 512.452 51.28 512.704C51.136 520.228 51.046 522.874 50.542 523.63C50.2 524.17 49.876 524.35 49.372 524.44C48.922 524.53 48.274 524.548 47.59 524.512C47.554 523.972 47.374 523.162 47.104 522.658C47.644 522.694 48.112 522.712 48.4 522.712C48.634 522.712 48.778 522.658 48.922 522.388C49.246 521.884 49.372 519.454 49.48 512.254V511.822ZM40.498 516.61V517.42H44.242V516.61H40.498ZM40.498 514.63V515.422H44.242V514.63H40.498ZM39.13 513.334H45.682V518.716H39.13V513.334ZM41.614 513.766H43.072V518.23H43.252V522.658H41.434V518.23H41.614V513.766ZM46.708 507.772H48.544V514.036C48.544 517.474 48.202 521.848 45.736 524.692C45.394 524.35 44.692 523.81 44.224 523.558C46.456 520.966 46.708 516.988 46.708 514.036V507.772ZM37.402 507.772L39.328 508.312C38.41 511.426 36.916 514.792 35.206 516.952C35.062 516.43 34.558 515.188 34.234 514.612C35.548 512.92 36.718 510.346 37.402 507.772ZM36.196 512.722L38.104 510.814L38.122 510.832V524.656H36.196V512.722ZM56.392 510.094C59.02 510.4 61.216 510.436 63.124 510.292C64.762 510.184 66.238 509.896 67.732 509.428L68.02 511.48C66.724 511.84 65.158 512.146 63.592 512.254C61.738 512.398 59.254 512.416 56.518 512.146L56.392 510.094ZM56.068 513.856C59.308 514.18 62.224 514.126 64.384 513.91C66.328 513.748 67.678 513.388 68.722 513.082L69.082 515.206C68.002 515.476 66.67 515.728 65.212 515.89C62.944 516.142 59.434 516.196 56.194 515.98L56.068 513.856ZM62.08 510.598C61.9 509.932 61.684 509.266 61.432 508.564L63.844 508.294C64.06 510.022 64.51 511.606 64.978 512.992C65.41 514.252 66.292 516.106 67.12 517.366C67.372 517.726 67.606 517.996 67.93 518.302L66.85 519.958C65.842 519.742 63.88 519.526 62.566 519.382L62.746 517.654C63.502 517.726 64.492 517.816 65.014 517.87C64.06 516.268 63.394 514.702 62.944 513.388C62.494 512.11 62.314 511.462 62.08 510.598ZM59.524 518.05C59.092 518.644 58.714 519.256 58.714 520.03C58.714 521.362 59.974 521.902 62.368 521.902C64.06 521.902 65.59 521.776 66.886 521.524L66.76 523.81C65.5 524.008 63.844 524.134 62.368 524.134C58.786 524.134 56.554 523.072 56.5 520.516C56.482 519.346 56.86 518.464 57.292 517.618L59.524 518.05ZM82.348 511.552C81.718 510.904 80.476 509.698 79.774 509.158L81.43 508.006C82.06 508.51 83.41 509.662 84.04 510.328L82.348 511.552ZM77.452 509.626C77.596 509.968 77.956 510.706 78.154 511.048C78.892 512.434 79.702 514.216 80.35 515.728C81.196 517.69 82.6 521.524 83.194 523.558L80.71 524.188C80.152 521.92 79.216 518.878 78.298 516.718C77.578 515.044 76.912 513.406 76.174 512.11C75.904 511.678 75.472 510.994 75.112 510.544L77.452 509.626ZM73.564 514.9C74.266 514.738 75.04 514.45 75.346 514.324C78.622 513.046 82.312 510.94 85.21 510.94C87.982 510.94 89.674 512.632 89.674 514.72C89.674 517.24 87.946 518.824 85.192 518.824C84.202 518.824 83.086 518.572 82.402 518.32L82.474 516.07C83.284 516.412 84.184 516.664 84.958 516.664C86.308 516.664 87.298 515.926 87.298 514.63C87.298 513.73 86.506 512.974 85.156 512.974C82.24 512.974 76.84 516.196 74.608 517.204L73.564 514.9ZM104.074 508.492C104.02 508.798 103.966 509.752 103.948 510.04C103.894 511.228 103.93 514.9 103.948 516.34L101.698 515.584C101.698 514.468 101.698 511.012 101.626 510.058C101.572 509.338 101.5 508.726 101.464 508.492H104.074ZM93.886 510.742C96.568 510.742 101.32 510.598 103.57 510.598C105.406 510.598 108.142 510.58 109.15 510.598L109.114 512.722C107.998 512.668 106.162 512.614 103.516 512.614C100.24 512.614 96.658 512.758 93.94 512.902L93.886 510.742ZM103.642 516.07C103.642 519.004 102.562 520.462 100.492 520.462C99.106 520.462 97.378 519.364 97.378 517.168C97.378 515.134 99.034 513.802 100.978 513.802C103.354 513.802 104.596 515.548 104.596 517.78C104.596 520.138 103.21 523.108 98.818 524.35L96.91 522.442C99.97 521.776 102.364 520.57 102.364 517.42C102.364 516.25 101.734 515.692 100.942 515.692C100.24 515.692 99.538 516.178 99.538 517.132C99.538 517.942 100.204 518.464 100.942 518.464C101.788 518.464 102.526 517.744 101.95 515.602L103.642 516.07ZM116.422 510.148C116.296 510.778 116.206 511.84 116.206 512.344C116.206 513.514 116.206 514.846 116.314 516.16C116.566 518.752 117.106 520.534 118.24 520.534C119.104 520.534 119.806 518.41 120.148 516.988L121.966 519.166C120.76 522.316 119.644 523.396 118.204 523.396C116.206 523.396 114.496 521.632 113.992 516.808C113.812 515.152 113.794 513.028 113.794 511.93C113.794 511.444 113.776 510.67 113.65 510.112L116.422 510.148ZM125.422 510.544C127.132 512.614 128.518 517.114 128.716 519.868L126.34 520.804C126.07 517.888 125.098 513.532 123.136 511.3L125.422 510.544ZM131.848 508.996H137.662V510.886H131.848V508.996ZM132.01 514.18H137.41V516.088H132.01V514.18ZM137.446 512.938H148.606V514.648H137.446V512.938ZM131.596 520.156C133.18 519.814 135.538 519.22 137.788 518.626L138.04 520.552C135.988 521.128 133.774 521.722 132.046 522.19L131.596 520.156ZM140.434 516.844V517.996H145.618V516.844H140.434ZM138.544 515.314H147.616V519.544H138.544V515.314ZM144.97 509.734V510.904H146.122V509.734H144.97ZM142.45 509.734V510.904H143.584V509.734H142.45ZM139.984 509.734V510.904H141.082V509.734H139.984ZM138.256 508.294H147.922V512.344H138.256V508.294ZM143.674 518.716C144.556 520.606 146.374 522.244 148.66 522.946C148.21 523.342 147.598 524.116 147.31 524.638C144.934 523.648 143.134 521.614 142.126 519.166L143.674 518.716ZM146.878 519.49L148.354 520.588C147.634 521.128 146.806 521.668 146.176 522.01L144.952 521.038C145.546 520.66 146.392 519.958 146.878 519.49ZM133.846 509.824H135.79V520.3L133.846 520.624V509.824ZM142.666 518.428L144.178 519.112C142.612 521.038 139.912 522.82 137.482 523.756C137.212 523.306 136.654 522.604 136.24 522.226C138.616 521.488 141.298 519.976 142.666 518.428ZM140.884 520.966L142.918 519.598V524.62H140.884V520.966ZM157.354 508.852H167.686V510.526H157.354V508.852ZM156.958 511.912H168.01V513.658H156.958V511.912ZM161.278 507.772H163.402V509.986H161.278V507.772ZM163.996 510.202L166.102 510.598C165.76 511.264 165.472 511.84 165.238 512.254L163.366 511.876C163.6 511.39 163.87 510.688 163.996 510.202ZM158.902 510.652L160.756 510.274C161.044 510.724 161.296 511.39 161.404 511.84L159.442 512.308C159.388 511.858 159.136 511.174 158.902 510.652ZM159.982 517.834V518.752H165.058V517.834H159.982ZM159.982 515.692V516.592H165.058V515.692H159.982ZM157.966 514.36H167.164V520.084H157.966V514.36ZM162.916 519.67H164.968V522.19C164.968 522.64 165.022 522.712 165.328 522.712C165.454 522.712 165.976 522.712 166.156 522.712C166.444 522.712 166.516 522.514 166.57 521.146C166.948 521.452 167.812 521.794 168.352 521.902C168.154 524.008 167.65 524.53 166.39 524.53C166.048 524.53 165.292 524.53 164.968 524.53C163.276 524.53 162.916 523.936 162.916 522.226V519.67ZM159.622 519.598H161.728C161.368 522.028 160.45 523.72 156.724 524.674C156.526 524.152 155.968 523.27 155.554 522.856C158.704 522.244 159.334 521.2 159.622 519.598ZM151.432 512.002H156.868V514.036H151.432V512.002ZM153.232 507.97H155.23V519.922H153.232V507.97ZM151.036 519.742C152.512 519.238 154.78 518.284 156.904 517.366L157.39 519.292C155.482 520.21 153.412 521.146 151.774 521.902L151.036 519.742ZM170.71 513.424C171.376 513.298 172.276 513.046 172.942 512.866C174.328 512.434 177.982 511.138 180.628 511.138C183.886 511.138 186.442 513.01 186.442 516.34C186.442 520.426 182.554 523.036 176.2 523.36L175.174 520.966C180.016 520.858 183.85 519.454 183.85 516.304C183.85 514.612 182.698 513.316 180.538 513.316C177.874 513.316 173.626 515.116 171.736 515.926L170.71 513.424ZM183.922 508.528C184.372 509.194 185.02 510.346 185.362 511.012L183.904 511.624C183.544 510.886 182.986 509.824 182.5 509.122L183.922 508.528ZM186.046 507.718C186.532 508.402 187.198 509.536 187.504 510.184L186.082 510.796C185.704 510.04 185.128 508.996 184.624 508.312L186.046 507.718ZM202.732 510.04C202.156 510.454 201.562 510.922 201.148 511.264C199.978 512.2 197.602 514.036 196.396 515.08C195.442 515.89 195.46 516.106 196.432 516.952C197.782 518.086 201.202 520.768 203.038 522.55L200.95 524.494C200.446 523.918 199.906 523.36 199.366 522.82C198.286 521.686 195.64 519.418 193.984 518.032C192.202 516.502 192.346 515.53 194.146 514.036C195.55 512.884 198.034 510.886 199.24 509.698C199.762 509.194 200.338 508.6 200.626 508.168L202.732 510.04ZM215.458 508.546C215.206 509.428 214.828 511.282 214.72 512.29C215.584 510.904 217.168 509.374 219.184 509.374C221.686 509.374 223.63 511.84 223.63 515.8C223.63 520.894 220.516 523.306 215.746 524.188L214.378 522.1C218.392 521.488 221.2 520.156 221.2 515.8C221.2 513.028 220.264 511.48 218.77 511.48C216.646 511.48 214.774 514.684 214.702 517.042C214.666 517.546 214.684 518.122 214.774 518.95L212.56 519.112C212.452 518.41 212.344 517.312 212.344 516.106C212.344 514.414 212.578 512.2 212.848 510.328C212.92 509.662 212.974 508.942 212.992 508.456L215.458 508.546ZM237.148 508.564C237.004 509.23 236.77 510.292 236.266 511.588C235.888 512.47 235.366 513.496 234.862 514.216C235.348 514 236.302 513.874 236.914 513.874C238.408 513.874 239.542 514.756 239.542 516.43C239.542 517.402 239.596 519.364 239.614 520.498H237.454C237.526 519.652 237.562 518.122 237.544 517.15C237.544 515.998 236.824 515.62 236.068 515.62C235.078 515.62 233.944 516.214 233.26 516.862C232.72 517.402 232.216 518.05 231.604 518.842L229.678 517.402C231.982 515.278 233.368 513.334 234.124 511.354C234.484 510.382 234.718 509.284 234.772 508.366L237.148 508.564ZM230.362 510.238C231.28 510.364 232.612 510.436 233.53 510.436C235.906 510.436 239.164 510.31 241.774 509.842L241.756 511.93C239.218 512.29 235.6 512.452 233.404 512.452C232.666 512.452 231.352 512.416 230.362 512.326V510.238ZM244.618 515.35C244.06 515.512 243.088 515.872 242.476 516.106C241.306 516.556 239.686 517.204 237.994 518.068C236.356 518.914 235.474 519.688 235.474 520.678C235.474 521.668 236.338 521.938 238.084 521.938C239.614 521.938 241.63 521.74 243.214 521.416L243.142 523.738C241.936 523.9 239.74 524.062 238.03 524.062C235.222 524.062 233.116 523.36 233.116 521.038C233.116 518.536 235.69 517.06 237.85 515.98C239.506 515.116 240.64 514.684 241.72 514.18C242.422 513.874 243.052 513.586 243.736 513.244L244.618 515.35ZM41.452 539.158H43.27V544.09H41.452V539.158ZM38.932 540.994H45.844V542.542H38.932V540.994ZM45.772 541.822H50.146V543.676H45.772V541.822ZM39.094 549.562H45.7V551.128H39.094V549.562ZM44.818 538.186L45.88 539.716C43.99 540.13 41.434 540.382 39.31 540.472C39.256 540.058 39.04 539.428 38.86 539.014C40.894 538.834 43.306 538.546 44.818 538.186ZM38.698 552.424C40.48 552.298 43.144 552.082 45.736 551.848L45.754 553.414C43.36 553.72 40.858 553.972 38.968 554.188L38.698 552.424ZM49.48 541.822H51.298C51.298 541.822 51.28 542.452 51.28 542.704C51.136 550.228 51.046 552.874 50.542 553.63C50.2 554.17 49.876 554.35 49.372 554.44C48.922 554.53 48.274 554.548 47.59 554.512C47.554 553.972 47.374 553.162 47.104 552.658C47.644 552.694 48.112 552.712 48.4 552.712C48.634 552.712 48.778 552.658 48.922 552.388C49.246 551.884 49.372 549.454 49.48 542.254V541.822ZM40.498 546.61V547.42H44.242V546.61H40.498ZM40.498 544.63V545.422H44.242V544.63H40.498ZM39.13 543.334H45.682V548.716H39.13V543.334ZM41.614 543.766H43.072V548.23H43.252V552.658H41.434V548.23H41.614V543.766ZM46.708 537.772H48.544V544.036C48.544 547.474 48.202 551.848 45.736 554.692C45.394 554.35 44.692 553.81 44.224 553.558C46.456 550.966 46.708 546.988 46.708 544.036V537.772ZM37.402 537.772L39.328 538.312C38.41 541.426 36.916 544.792 35.206 546.952C35.062 546.43 34.558 545.188 34.234 544.612C35.548 542.92 36.718 540.346 37.402 537.772ZM36.196 542.722L38.104 540.814L38.122 540.832V554.656H36.196V542.722ZM66.652 540.04C66.076 540.454 65.482 540.922 65.068 541.264C63.898 542.2 61.522 544.036 60.316 545.08C59.362 545.89 59.38 546.106 60.352 546.952C61.702 548.086 65.122 550.768 66.958 552.55L64.87 554.494C64.366 553.918 63.826 553.36 63.286 552.82C62.206 551.686 59.56 549.418 57.904 548.032C56.122 546.502 56.266 545.53 58.066 544.036C59.47 542.884 61.954 540.886 63.16 539.698C63.682 539.194 64.258 538.6 64.546 538.168L66.652 540.04ZM77.4347 539.392C77.9207 539.428 78.5507 539.464 78.9287 539.464C79.9727 539.464 81.8807 539.392 82.7087 539.32C83.1587 539.284 83.6267 539.176 83.9507 539.05L85.3727 540.184C85.1387 540.454 84.9227 540.688 84.7787 540.922C84.1667 541.948 83.1947 544.27 82.3847 546.142C81.6647 547.798 80.8007 549.94 80.0627 551.074C79.3427 552.172 78.4967 552.658 77.2547 552.658C75.6887 552.658 74.5007 551.578 74.5007 549.742C74.5007 546.862 77.2547 544.648 81.1067 544.648C85.3007 544.648 88.9727 546.88 90.8627 548.176L89.8187 550.678C87.6047 548.716 84.4367 546.664 80.7287 546.664C78.1007 546.664 76.5887 548.086 76.5887 549.4C76.5887 549.994 76.9307 550.3 77.3627 550.3C77.7227 550.3 77.9567 550.138 78.2987 549.688C78.8927 548.806 79.5407 547.15 80.1887 545.728C80.8187 544.306 81.5567 542.542 82.0967 541.426C81.3767 541.444 79.8107 541.498 79.0007 541.552C78.6227 541.57 77.9927 541.642 77.5247 541.696L77.4347 539.392ZM89.2787 543.64C89.0267 548.752 88.0187 552.064 83.7167 554.296L81.7907 552.73C86.2367 550.822 86.7767 547.456 86.9387 545.35C86.9747 544.648 86.9927 543.928 86.9207 543.37L89.2787 543.64ZM103.427 539.644C103.229 539.878 103.049 540.184 102.851 540.49C101.951 541.768 100.691 544.072 99.8087 545.674C100.475 545.278 101.177 545.116 101.861 545.116C103.211 545.116 104.021 545.962 104.093 547.474C104.129 548.266 104.093 549.706 104.183 550.462C104.255 551.164 104.741 551.452 105.335 551.452C106.901 551.452 107.873 549.418 108.377 547.186L110.339 548.77C109.385 551.866 107.729 553.918 104.957 553.918C102.959 553.918 102.041 552.712 101.951 551.416C101.897 550.444 101.897 548.986 101.843 548.248C101.789 547.618 101.447 547.24 100.799 547.24C99.5747 547.24 98.5487 548.5 97.9187 549.958C97.4327 551.002 96.8207 553.018 96.5507 553.972L94.0127 553.108C95.3267 549.508 99.0167 542.164 99.9887 540.436C100.205 539.968 100.547 539.374 100.871 538.618L103.427 539.644ZM113.957 541.21C114.731 541.3 115.703 541.336 116.351 541.336C118.583 541.336 121.013 540.958 122.759 540.4L122.813 542.488C121.265 542.92 118.673 543.388 116.369 543.37C115.649 543.37 114.893 543.352 114.119 543.316L113.957 541.21ZM120.959 538.51C120.725 539.464 120.293 541.228 119.807 542.758C118.979 545.35 117.359 548.698 115.829 550.822L113.651 549.706C115.271 547.726 116.891 544.576 117.593 542.632C118.025 541.336 118.421 539.662 118.475 538.276L120.959 538.51ZM125.189 544.126C125.135 544.882 125.153 545.638 125.171 546.43C125.207 547.492 125.369 550.174 125.369 551.182C125.369 552.856 124.469 554.17 121.895 554.17C119.663 554.17 117.899 553.162 117.899 551.182C117.899 549.436 119.375 548.068 121.877 548.068C125.027 548.068 127.511 549.652 129.005 551.002L127.817 552.946C126.521 551.74 124.469 549.886 121.751 549.886C120.707 549.886 120.023 550.336 120.023 550.966C120.023 551.632 120.599 552.1 121.589 552.1C122.813 552.1 123.209 551.416 123.209 550.408C123.209 549.328 123.011 546.016 122.921 544.126H125.189ZM128.285 545.08C127.241 544.234 125.189 543.064 123.947 542.506L125.117 540.742C126.413 541.3 128.627 542.506 129.563 543.172L128.285 545.08ZM133.163 540.67C133.865 540.652 134.585 540.616 134.927 540.58C136.421 540.436 139.391 540.184 142.685 539.896C144.557 539.752 146.519 539.626 147.797 539.572L147.815 541.894C146.843 541.894 145.295 541.912 144.323 542.128C142.163 542.704 140.525 545.044 140.525 547.186C140.525 550.138 143.297 551.218 146.339 551.362L145.493 553.828C141.731 553.594 138.167 551.56 138.167 547.654C138.167 545.08 139.625 543.028 140.831 542.11C139.157 542.29 135.467 542.686 133.397 543.136L133.163 540.67ZM145.241 543.658C145.673 544.288 146.321 545.386 146.663 546.106L145.313 546.7C144.845 545.728 144.467 545.008 143.909 544.216L145.241 543.658ZM147.239 542.83C147.707 543.46 148.391 544.522 148.769 545.224L147.419 545.872C146.933 544.9 146.519 544.216 145.943 543.424L147.239 542.83ZM152.315 543.136C152.981 543.028 153.881 542.794 154.547 542.596C155.915 542.164 159.587 540.886 162.233 540.886C165.473 540.886 168.047 542.758 168.047 546.088C168.047 550.156 164.159 552.766 157.823 553.09L156.761 550.696C161.639 550.588 165.473 549.184 165.473 546.034C165.473 544.342 164.303 543.064 162.143 543.064C159.479 543.064 155.231 544.846 153.341 545.674L152.315 543.136ZM184.013 540.04C183.437 540.454 182.843 540.922 182.429 541.264C181.259 542.2 178.883 544.036 177.677 545.08C176.723 545.89 176.741 546.106 177.713 546.952C179.063 548.086 182.483 550.768 184.319 552.55L182.231 554.494C181.727 553.918 181.187 553.36 180.647 552.82C179.567 551.686 176.921 549.418 175.265 548.032C173.483 546.502 173.627 545.53 175.427 544.036C176.831 542.884 179.315 540.886 180.521 539.698C181.043 539.194 181.619 538.6 181.907 538.168L184.013 540.04ZM193.849 539.302C194.353 539.356 194.965 539.392 195.469 539.392C196.441 539.392 200.275 539.302 201.301 539.212C202.057 539.158 202.471 539.086 202.687 539.014L203.839 540.634C203.425 540.904 202.993 541.156 202.597 541.462C201.625 542.146 199.735 543.73 198.583 544.63C199.195 544.468 199.735 544.432 200.293 544.432C203.353 544.432 205.675 546.34 205.675 548.95C205.675 551.794 203.515 554.044 199.159 554.044C196.657 554.044 194.767 552.91 194.767 551.092C194.767 549.634 196.099 548.302 198.007 548.302C200.473 548.302 201.841 549.958 201.895 551.938L199.789 552.208C199.753 550.912 199.069 550.012 198.007 550.012C197.341 550.012 196.891 550.426 196.891 550.894C196.891 551.56 197.629 552.01 198.727 552.01C201.769 552.01 203.317 550.858 203.317 548.932C203.317 547.294 201.697 546.196 199.591 546.196C196.819 546.196 195.037 547.672 193.111 549.85L191.473 548.158C192.751 547.15 194.929 545.314 195.973 544.432C196.981 543.604 198.871 542.092 199.753 541.3C198.835 541.336 196.351 541.426 195.379 541.498C194.893 541.534 194.335 541.57 193.921 541.642L193.849 539.302ZM212.803 548.554C214.423 548.554 215.719 549.85 215.719 551.452C215.719 553.072 214.423 554.368 212.803 554.368C211.201 554.368 209.887 553.072 209.887 551.452C209.887 549.85 211.201 548.554 212.803 548.554ZM212.803 553.072C213.703 553.072 214.423 552.352 214.423 551.452C214.423 550.57 213.703 549.85 212.803 549.85C211.921 549.85 211.183 550.57 211.183 551.452C211.183 552.352 211.921 553.072 212.803 553.072Z" fill="#212121"/>
</svg>
