<svg width="373" height="242" viewBox="0 0 373 242" fill="none" xmlns="http://www.w3.org/2000/svg">
<path d="M3.84 74V44.56H13.48C19.56 44.56 24.12 46.72 24.12 53.12C24.12 59.28 19.56 62.12 13.48 62.12H8.52V74H3.84ZM8.52 58.4H12.96C17.2 58.4 19.52 56.64 19.52 53.12C19.52 49.56 17.2 48.32 12.96 48.32H8.52V58.4ZM19.96 74L12.6 60.92L16.04 58.2L25.16 74H19.96ZM36.8994 74.56C33.1394 74.56 30.4594 72.04 30.4594 68.16C30.4594 63.44 34.4594 61 43.5794 60C43.5394 57.44 42.6194 55.2 39.4194 55.2C37.0994 55.2 34.8994 56.28 33.0594 57.48L31.3394 54.32C33.5794 52.92 36.6994 51.44 40.2194 51.44C45.6994 51.44 48.2194 54.92 48.2194 60.8V74H44.4194L44.0594 71.52H43.8994C41.8994 73.24 39.5394 74.56 36.8994 74.56ZM38.3394 70.88C40.2594 70.88 41.7794 70 43.5794 68.32V62.96C37.0594 63.72 34.8994 65.36 34.8994 67.84C34.8994 70 36.3794 70.88 38.3394 70.88ZM58.1472 83.2C57.0272 83.2 56.1472 83.04 55.3872 82.76L56.2672 79.16C56.6672 79.32 57.3072 79.48 57.8672 79.48C60.2272 79.48 61.6672 77.72 62.4672 75.36L62.9072 73.84L54.1872 52H58.9072L62.9472 63.32C63.6272 65.28 64.2672 67.48 64.9872 69.56H65.1872C65.7072 67.52 66.3072 65.36 66.8672 63.32L70.4272 52H74.9072L66.8272 75.36C65.1072 80.04 62.7872 83.2 58.1472 83.2ZM12.28 124.56C8.2 124.56 4.48 122.96 1.8 120.24L4.52 117C6.6 119.12 9.52 120.48 12.36 120.48C15.88 120.48 17.88 118.84 17.88 116.32C17.88 113.64 15.88 112.8 13.16 111.64L9.08 109.84C6.24 108.68 3.12 106.44 3.12 102.16C3.12 97.52 7.16 94.04 12.76 94.04C16.24 94.04 19.48 95.48 21.68 97.76L19.28 100.68C17.44 99.08 15.36 98.08 12.76 98.08C9.76 98.08 7.84 99.52 7.84 101.84C7.84 104.36 10.2 105.32 12.6 106.32L16.64 108C20.12 109.48 22.64 111.64 22.64 115.96C22.64 120.68 18.72 124.56 12.28 124.56ZM26.7359 124L36.4559 94.56H41.8559L51.5759 124H46.6559L41.9359 108.04C40.9359 104.84 40.0559 101.52 39.1359 98.24H38.9759C38.0959 101.56 37.2159 104.84 36.2159 108.04L31.4559 124H26.7359ZM32.2159 115.64V112H45.9759V115.64H32.2159ZM57.8587 124V94.56H62.5387V120.08H75.0188V124H57.8587ZM92.3581 124.56C84.7581 124.56 79.5181 118.68 79.5181 109.16C79.5181 99.68 84.7581 94.04 92.3581 94.04C99.9181 94.04 105.158 99.68 105.158 109.16C105.158 118.68 99.9181 124.56 92.3581 124.56ZM92.3581 120.48C97.2381 120.48 100.398 116.04 100.398 109.16C100.398 102.28 97.2381 98.08 92.3581 98.08C87.4381 98.08 84.3181 102.28 84.3181 109.16C84.3181 116.04 87.4381 120.48 92.3581 120.48ZM113.674 124V94.56H118.434L128.234 111.88L131.314 118.08H131.514C131.234 115.08 130.874 111.48 130.874 108.32V94.56H135.314V124H130.514L120.794 106.68L117.714 100.48H117.514C117.714 103.56 118.114 106.92 118.114 110.16V124H113.674ZM156.834 124V94.56H162.194L167.554 109.48C168.274 111.4 168.874 113.4 169.554 115.4H169.714C170.434 113.4 170.994 111.4 171.634 109.48L176.954 94.56H182.314V124H178.034V109.48C178.034 106.8 178.394 103.04 178.634 100.36H178.474L176.074 107.16L170.954 121.2H168.074L162.954 107.16L160.594 100.36H160.434C160.674 103.04 161.034 106.8 161.034 109.48V124H156.834ZM203.677 124.56C196.077 124.56 190.837 118.68 190.837 109.16C190.837 99.68 196.077 94.04 203.677 94.04C211.237 94.04 216.477 99.68 216.477 109.16C216.477 118.68 211.237 124.56 203.677 124.56ZM203.677 120.48C208.557 120.48 211.717 116.04 211.717 109.16C211.717 102.28 208.557 98.08 203.677 98.08C198.757 98.08 195.637 102.28 195.637 109.16C195.637 116.04 198.757 120.48 203.677 120.48ZM224.993 124V94.56H234.633C240.713 94.56 245.273 96.72 245.273 103.12C245.273 109.28 240.713 112.12 234.633 112.12H229.673V124H224.993ZM229.673 108.4H234.113C238.353 108.4 240.673 106.64 240.673 103.12C240.673 99.56 238.353 98.32 234.113 98.32H229.673V108.4ZM241.113 124L233.753 110.92L237.193 108.2L246.313 124H241.113ZM253.643 124V94.56H258.323V124H253.643ZM273.267 124V112.88L264.387 94.56H269.347L272.787 102.4C273.707 104.56 274.547 106.64 275.507 108.88H275.667C276.667 106.64 277.587 104.56 278.507 102.4L281.907 94.56H286.747L277.907 112.88V124H273.267ZM288.236 124L297.956 94.56H303.356L313.076 124H308.156L303.436 108.04C302.436 104.84 301.556 101.52 300.636 98.24H300.476C299.596 101.56 298.716 104.84 297.716 108.04L292.956 124H288.236ZM293.716 115.64V112H307.476V115.64H293.716Z" fill="#212121"/>
<path d="M0.608 15.72H15.424V17.816H0.608V15.72ZM25.168 11.032H31.056V12.632H25.168V11.032ZM27.184 19.496H31.92V21H27.184V19.496ZM27.136 22.2H31.984V23.784H27.136V22.2ZM24.656 13.976H33.872V15.608H24.656V13.976ZM27.376 9.432H29.152V14.968H27.376V9.432ZM21.264 9.432L22.928 10.008C22.272 11.256 21.536 12.68 20.928 13.576L19.648 13.048C20.208 12.088 20.896 10.536 21.264 9.432ZM23.072 11.32L24.624 12.04C23.456 13.832 21.904 16.056 20.672 17.432L19.568 16.808C20.768 15.368 22.224 13.032 23.072 11.32ZM18.784 13.16L19.728 11.88C20.56 12.632 21.536 13.672 21.92 14.424L20.88 15.896C20.528 15.112 19.584 13.976 18.784 13.16ZM22.528 15.16L23.856 14.6C24.48 15.656 25.088 17.048 25.296 17.96L23.84 18.616C23.68 17.704 23.104 16.264 22.528 15.16ZM18.736 16.44C20.176 16.36 22.24 16.248 24.24 16.12L24.256 17.688C22.384 17.832 20.432 17.976 18.944 18.088L18.736 16.44ZM22.96 19.176L24.304 18.76C24.688 19.656 25.008 20.824 25.12 21.592L23.696 22.056C23.616 21.272 23.312 20.088 22.96 19.176ZM19.424 18.824L20.96 19.08C20.8 20.616 20.464 22.2 20 23.224C19.68 23.016 18.976 22.712 18.608 22.552C19.056 21.608 19.296 20.168 19.424 18.824ZM21.184 17.288H22.832V24.44H21.184V17.288ZM32.08 9.736L33.744 10.264C32.192 14.408 29.408 17.496 25.264 19.544C25.04 19.16 24.496 18.504 24.128 18.2C28.032 16.392 30.784 13.384 32.08 9.736ZM27.888 16.776H31.968V18.344H27.888V24.424H26.16V17.736L27.072 16.776H27.888ZM31.152 16.776H33.008V24.44H31.152V16.776ZM43.952 11.816C45.92 12.088 49.12 12.008 50.832 11.8V13.864C48.88 14.056 45.968 14.056 43.968 13.864L43.952 11.816ZM45.232 18.648C45.104 19.192 45.04 19.576 45.04 19.992C45.04 20.712 45.664 21.144 47.296 21.144C48.72 21.144 49.904 21.016 51.296 20.712L51.344 22.872C50.304 23.08 49.008 23.192 47.2 23.192C44.448 23.192 43.12 22.2 43.12 20.568C43.12 19.928 43.216 19.304 43.408 18.488L45.232 18.648ZM41.488 10.744C41.376 11.08 41.168 11.896 41.104 12.184C40.88 13.24 40.32 16.44 40.32 18.04C40.32 18.36 40.336 18.76 40.384 19.08C40.624 18.536 40.88 17.992 41.12 17.448L42.112 18.232C41.648 19.576 41.12 21.304 40.96 22.152C40.912 22.392 40.864 22.744 40.864 22.904C40.88 23.08 40.88 23.352 40.896 23.576L39.056 23.688C38.736 22.6 38.432 20.648 38.432 18.472C38.432 16.056 38.912 13.368 39.088 12.12C39.152 11.688 39.232 11.08 39.248 10.568L41.488 10.744ZM61.824 10.696H63.44V15.08H61.824V10.696ZM59.584 12.328H65.728V13.704H59.584V12.328ZM65.664 13.064H69.552V14.712H65.664V13.064ZM59.728 19.944H65.6V21.336H59.728V19.944ZM64.816 9.832L65.76 11.192C64.08 11.56 61.808 11.784 59.92 11.864C59.872 11.496 59.68 10.936 59.52 10.568C61.328 10.408 63.472 10.152 64.816 9.832ZM59.376 22.488C60.96 22.376 63.328 22.184 65.632 21.976L65.648 23.368C63.52 23.64 61.296 23.864 59.616 24.056L59.376 22.488ZM68.96 13.064H70.576C70.576 13.064 70.56 13.624 70.56 13.848C70.432 20.536 70.352 22.888 69.904 23.56C69.6 24.04 69.312 24.2 68.864 24.28C68.464 24.36 67.888 24.376 67.28 24.344C67.248 23.864 67.088 23.144 66.848 22.696C67.328 22.728 67.744 22.744 68 22.744C68.208 22.744 68.336 22.696 68.464 22.456C68.752 22.008 68.864 19.848 68.96 13.448V13.064ZM60.976 17.32V18.04H64.304V17.32H60.976ZM60.976 15.56V16.264H64.304V15.56H60.976ZM59.76 14.408H65.584V19.192H59.76V14.408ZM61.968 14.792H63.264V18.76H63.424V22.696H61.808V18.76H61.968V14.792ZM66.496 9.464H68.128V15.032C68.128 18.088 67.824 21.976 65.632 24.504C65.328 24.2 64.704 23.72 64.288 23.496C66.272 21.192 66.496 17.656 66.496 15.032V9.464ZM58.224 9.464L59.936 9.944C59.12 12.712 57.792 15.704 56.272 17.624C56.144 17.16 55.696 16.056 55.408 15.544C56.576 14.04 57.616 11.752 58.224 9.464ZM57.152 13.864L58.848 12.168L58.864 12.184V24.472H57.152V13.864ZM86.048 10.28C85.984 10.632 85.968 11.016 85.968 11.384C85.936 12.12 85.968 15.144 85.968 16.088C85.968 19.848 85.68 22.184 82.496 24.2L80.64 22.76C81.264 22.488 82.064 21.976 82.512 21.48C83.728 20.2 84 18.76 84 16.072C84 14.872 83.968 12.28 83.888 11.384C83.856 11 83.776 10.536 83.712 10.28H86.048ZM79.728 13.416C80.512 13.528 81.296 13.576 82.16 13.576C84.224 13.576 86.784 13.432 88.352 13.144V15.224C86.832 15.4 84.368 15.528 82.208 15.528C81.504 15.528 80.528 15.48 79.728 15.432V13.416ZM78.08 10.552C77.952 10.952 77.792 11.528 77.712 11.864C77.312 13.64 76.736 17 77.168 18.984C77.376 18.488 77.68 17.704 77.936 17.128L78.944 17.768C78.464 19.144 78.048 20.744 77.856 21.656C77.792 21.912 77.744 22.264 77.76 22.44C77.76 22.616 77.776 22.888 77.792 23.112L76 23.288C75.648 22.312 75.088 20.088 75.088 18.104C75.088 15.48 75.408 13.016 75.616 11.704C75.68 11.272 75.696 10.728 75.712 10.328L78.08 10.552ZM95.52 10.824C95.968 10.872 96.512 10.904 96.96 10.904C97.824 10.904 101.232 10.824 102.144 10.744C102.816 10.696 103.184 10.632 103.376 10.568L104.4 12.008C104.032 12.248 103.648 12.472 103.296 12.744C102.432 13.352 100.752 14.76 99.728 15.56C100.272 15.416 100.752 15.384 101.248 15.384C103.968 15.384 106.032 17.08 106.032 19.4C106.032 21.928 104.112 23.928 100.24 23.928C98.016 23.928 96.336 22.92 96.336 21.304C96.336 20.008 97.52 18.824 99.216 18.824C101.408 18.824 102.624 20.296 102.672 22.056L100.8 22.296C100.768 21.144 100.16 20.344 99.216 20.344C98.624 20.344 98.224 20.712 98.224 21.128C98.224 21.72 98.88 22.12 99.856 22.12C102.56 22.12 103.936 21.096 103.936 19.384C103.936 17.928 102.496 16.952 100.624 16.952C98.16 16.952 96.576 18.264 94.864 20.2L93.408 18.696C94.544 17.8 96.48 16.168 97.408 15.384C98.304 14.648 99.984 13.304 100.768 12.6C99.952 12.632 97.744 12.712 96.88 12.776C96.448 12.808 95.952 12.84 95.584 12.904L95.52 10.824ZM114.24 9.464L116.048 10.024C115.04 12.744 113.424 15.64 111.712 17.48C111.536 17 111.008 15.944 110.688 15.48C112.096 14.024 113.456 11.752 114.24 9.464ZM112.672 13.912L114.48 12.088L114.496 12.104V24.424H112.672V13.912ZM115.648 12.632H125.472V20.168H123.568V14.408H117.472V20.296H115.648V12.632ZM116.672 17.56H124.576V19.32H116.672V17.56ZM119.536 9.608H121.44V24.424H119.536V9.608ZM134.592 19.176H138.976V20.552H134.592V19.176ZM134.48 16.808H139.872V22.952H134.48V21.544H138.08V18.216H134.48V16.808ZM133.696 16.808H135.424V23.768H133.696V16.808ZM131.008 12.248H135.024V13.544H131.008V12.248ZM138.432 12.248H142.48V13.544H138.432V12.248ZM141.696 10.024H143.632V22.168C143.632 23.208 143.424 23.768 142.784 24.088C142.144 24.408 141.216 24.44 139.84 24.44C139.76 23.896 139.472 23 139.216 22.488C140.048 22.536 141.024 22.52 141.312 22.52C141.6 22.52 141.696 22.424 141.696 22.152V10.024ZM131.168 10.024H136.224V15.832H131.168V14.456H134.432V11.416H131.168V10.024ZM142.72 10.024V11.416H139.136V14.504H142.72V15.88H137.312V10.024H142.72ZM130.064 10.024H131.968V24.44H130.064V10.024ZM154.976 10.168C154.848 10.76 154.64 11.704 154.192 12.856C153.856 13.64 153.392 14.552 152.944 15.192C153.376 15 154.224 14.888 154.768 14.888C156.096 14.888 157.104 15.672 157.104 17.16C157.104 18.024 157.152 19.768 157.168 20.776H155.248C155.312 20.024 155.344 18.664 155.328 17.8C155.328 16.776 154.688 16.44 154.016 16.44C153.136 16.44 152.128 16.968 151.52 17.544C151.04 18.024 150.592 18.6 150.048 19.304L148.336 18.024C150.384 16.136 151.616 14.408 152.288 12.648C152.608 11.784 152.816 10.808 152.864 9.992L154.976 10.168ZM148.944 11.656C149.76 11.768 150.944 11.832 151.76 11.832C153.872 11.832 156.768 11.72 159.088 11.304L159.072 13.16C156.816 13.48 153.6 13.624 151.648 13.624C150.992 13.624 149.824 13.592 148.944 13.512V11.656ZM161.616 16.2C161.12 16.344 160.256 16.664 159.712 16.872C158.672 17.272 157.232 17.848 155.728 18.616C154.272 19.368 153.488 20.056 153.488 20.936C153.488 21.816 154.256 22.056 155.808 22.056C157.168 22.056 158.96 21.88 160.368 21.592L160.304 23.656C159.232 23.8 157.28 23.944 155.76 23.944C153.264 23.944 151.392 23.32 151.392 21.256C151.392 19.032 153.68 17.72 155.6 16.76C157.072 15.992 158.08 15.608 159.04 15.16C159.664 14.888 160.224 14.632 160.832 14.328L161.616 16.2ZM168.848 20.264H177.088V21.624H168.848V20.264ZM166.416 17.688H180.8V19.176H166.416V17.688ZM171.088 16.696L172.944 16.984C171.92 19.112 170.144 20.76 167.008 21.88C166.8 21.448 166.288 20.792 165.92 20.52C168.816 19.656 170.384 18.248 171.088 16.696ZM176.864 18.168C177.76 19.208 179.552 20.12 181.328 20.52C180.928 20.888 180.384 21.592 180.128 22.056C178.24 21.448 176.448 20.184 175.392 18.728L176.864 18.168ZM176.416 20.264H178.24C178.24 20.264 178.224 20.68 178.192 20.904C178.032 22.632 177.84 23.48 177.472 23.864C177.152 24.184 176.784 24.28 176.304 24.328C175.888 24.376 175.152 24.376 174.368 24.36C174.336 23.88 174.16 23.256 173.92 22.84C174.56 22.904 175.168 22.92 175.456 22.92C175.696 22.92 175.824 22.888 175.968 22.776C176.176 22.584 176.304 21.944 176.416 20.472V20.264ZM172.32 19.416H174.144C173.792 22.088 172.88 23.704 168.624 24.52C168.464 24.072 168.032 23.4 167.712 23.064C171.424 22.472 172.048 21.368 172.32 19.416ZM166.624 10.264H180.576V11.784H166.624V10.264ZM169.984 9.416H171.856V12.344H169.984V9.416ZM175.28 9.416H177.168V12.344H175.28V9.416ZM169.984 15.368V15.992H177.2V15.368H169.984ZM169.984 13.688V14.312H177.2V13.688H169.984ZM168.144 12.584H179.136V17.112H168.144V12.584ZM184.768 19.256H199.232V20.792H184.768V19.256ZM187.84 13.304H197.536V14.552H187.84V13.304ZM187.84 15.224H197.552V16.472H187.84V15.224ZM187.456 11.144H198.336V12.648H187.456V11.144ZM191.44 12.088H193.28V17.704H191.44V12.088ZM190.992 18.232H192.912V24.424H190.992V18.232ZM190.848 19.896L192.288 20.6C190.64 22.232 187.888 23.64 185.456 24.344C185.184 23.864 184.64 23.16 184.224 22.76C186.656 22.248 189.424 21.128 190.848 19.896ZM193.12 19.848C194.496 21.064 197.2 22.184 199.6 22.712C199.2 23.096 198.672 23.8 198.4 24.264C195.984 23.576 193.296 22.168 191.664 20.568L193.12 19.848ZM192.24 9.416L194.4 9.672C193.888 10.632 193.312 11.528 192.864 12.152L191.168 11.816C191.568 11.128 192.016 10.136 192.24 9.416ZM188.144 9.384L190.112 9.768C189.04 11.64 187.632 13.48 185.664 15.064C185.36 14.632 184.736 14.04 184.304 13.768C186.096 12.472 187.408 10.792 188.144 9.384ZM186.592 12.12H188.416V17.16H198.8V18.616H186.592V12.12ZM208.336 10.312C208.24 10.984 208.16 11.816 208.128 12.456C208.048 14.184 207.936 17.752 207.936 19.736C207.936 21.352 208.896 21.88 210.144 21.88C212.784 21.88 214.448 20.36 215.616 18.616L217.072 20.392C216.032 21.928 213.76 24.056 210.112 24.056C207.488 24.056 205.808 22.904 205.808 20.168C205.808 18.024 205.952 13.832 205.952 12.456C205.952 11.688 205.888 10.92 205.76 10.296L208.336 10.312ZM221.452 12.008C222.076 11.992 222.716 11.96 223.02 11.928C224.364 11.8 226.988 11.576 229.932 11.32C231.58 11.176 233.324 11.08 234.46 11.032L234.476 13.096C233.612 13.096 232.236 13.112 231.372 13.304C229.452 13.816 227.996 15.896 227.996 17.784C227.996 20.424 230.46 21.368 233.164 21.512L232.428 23.704C229.068 23.496 225.9 21.688 225.9 18.216C225.9 15.912 227.196 14.104 228.284 13.288C226.78 13.448 223.516 13.784 221.66 14.2L221.452 12.008ZM242.86 11.576C242.748 12.136 242.668 13.08 242.668 13.528C242.668 14.568 242.668 15.752 242.764 16.92C242.988 19.224 243.468 20.808 244.476 20.808C245.244 20.808 245.868 18.92 246.172 17.656L247.788 19.592C246.716 22.392 245.724 23.352 244.444 23.352C242.668 23.352 241.148 21.784 240.7 17.496C240.54 16.024 240.524 14.136 240.524 13.16C240.524 12.728 240.508 12.04 240.396 11.544L242.86 11.576ZM250.86 11.928C252.38 13.768 253.612 17.768 253.788 20.216L251.676 21.048C251.436 18.456 250.572 14.584 248.828 12.6L250.86 11.928ZM266.668 10.072C266.62 10.392 266.572 10.792 266.556 11.208C266.524 12.024 266.508 14.296 266.508 15.64C266.508 17.4 266.764 20.296 266.764 21.56C266.764 22.936 265.724 23.992 263.628 23.992C261.068 23.992 259.724 23.016 259.724 21.32C259.724 19.704 261.212 18.568 263.66 18.568C267.18 18.568 269.804 20.296 271.132 21.416L269.98 23.208C268.46 21.768 266.14 20.216 263.404 20.216C262.284 20.216 261.66 20.648 261.66 21.208C261.66 21.816 262.22 22.184 263.324 22.184C264.172 22.184 264.748 21.944 264.748 21.016C264.748 20.056 264.572 17.192 264.572 15.64C264.572 14.104 264.588 12.072 264.588 11.16C264.588 10.872 264.556 10.376 264.492 10.072H266.668ZM260.028 11.56C261.164 11.752 263.004 11.912 263.98 11.912C266.156 11.912 268.252 11.8 270.588 11.432L270.572 13.256C268.94 13.48 266.396 13.672 263.996 13.672C262.972 13.672 261.116 13.528 260.06 13.4L260.028 11.56ZM259.932 15.016C260.988 15.208 262.94 15.32 263.788 15.32C266.748 15.32 268.812 15.128 270.78 14.872L270.764 16.76C268.556 17.016 266.812 17.112 263.772 17.112C262.828 17.112 261.02 17.032 259.964 16.904L259.932 15.016ZM285.964 10.104C285.916 10.376 285.868 11.224 285.852 11.48C285.804 12.536 285.836 15.8 285.852 17.08L283.852 16.408C283.852 15.416 283.852 12.344 283.788 11.496C283.74 10.856 283.676 10.312 283.644 10.104H285.964ZM276.908 12.104C279.292 12.104 283.516 11.976 285.516 11.976C287.148 11.976 289.58 11.96 290.476 11.976L290.444 13.864C289.452 13.816 287.82 13.768 285.468 13.768C282.556 13.768 279.372 13.896 276.956 14.024L276.908 12.104ZM285.58 16.84C285.58 19.448 284.62 20.744 282.78 20.744C281.548 20.744 280.012 19.768 280.012 17.816C280.012 16.008 281.484 14.824 283.212 14.824C285.324 14.824 286.428 16.376 286.428 18.36C286.428 20.456 285.196 23.096 281.292 24.2L279.596 22.504C282.316 21.912 284.444 20.84 284.444 18.04C284.444 17 283.884 16.504 283.18 16.504C282.556 16.504 281.932 16.936 281.932 17.784C281.932 18.504 282.524 18.968 283.18 18.968C283.932 18.968 284.588 18.328 284.076 16.424L285.58 16.84Z" fill="#212121"/>
<path d="M7.452 191.158H9.27V196.09H7.452V191.158ZM4.932 192.994H11.844V194.542H4.932V192.994ZM11.772 193.822H16.146V195.676H11.772V193.822ZM5.094 201.562H11.7V203.128H5.094V201.562ZM10.818 190.186L11.88 191.716C9.99 192.13 7.434 192.382 5.31 192.472C5.256 192.058 5.04 191.428 4.86 191.014C6.894 190.834 9.306 190.546 10.818 190.186ZM4.698 204.424C6.48 204.298 9.144 204.082 11.736 203.848L11.754 205.414C9.36 205.72 6.858 205.972 4.968 206.188L4.698 204.424ZM15.48 193.822H17.298C17.298 193.822 17.28 194.452 17.28 194.704C17.136 202.228 17.046 204.874 16.542 205.63C16.2 206.17 15.876 206.35 15.372 206.44C14.922 206.53 14.274 206.548 13.59 206.512C13.554 205.972 13.374 205.162 13.104 204.658C13.644 204.694 14.112 204.712 14.4 204.712C14.634 204.712 14.778 204.658 14.922 204.388C15.246 203.884 15.372 201.454 15.48 194.254V193.822ZM6.498 198.61V199.42H10.242V198.61H6.498ZM6.498 196.63V197.422H10.242V196.63H6.498ZM5.13 195.334H11.682V200.716H5.13V195.334ZM7.614 195.766H9.072V200.23H9.252V204.658H7.434V200.23H7.614V195.766ZM12.708 189.772H14.544V196.036C14.544 199.474 14.202 203.848 11.736 206.692C11.394 206.35 10.692 205.81 10.224 205.558C12.456 202.966 12.708 198.988 12.708 196.036V189.772ZM3.402 189.772L5.328 190.312C4.41 193.426 2.916 196.792 1.206 198.952C1.062 198.43 0.558 197.188 0.234 196.612C1.548 194.92 2.718 192.346 3.402 189.772ZM2.196 194.722L4.104 192.814L4.122 192.832V206.656H2.196V194.722ZM22.392 192.094C25.02 192.4 27.216 192.436 29.124 192.292C30.762 192.184 32.238 191.896 33.732 191.428L34.02 193.48C32.724 193.84 31.158 194.146 29.592 194.254C27.738 194.398 25.254 194.416 22.518 194.146L22.392 192.094ZM22.068 195.856C25.308 196.18 28.224 196.126 30.384 195.91C32.328 195.748 33.678 195.388 34.722 195.082L35.082 197.206C34.002 197.476 32.67 197.728 31.212 197.89C28.944 198.142 25.434 198.196 22.194 197.98L22.068 195.856ZM28.08 192.598C27.9 191.932 27.684 191.266 27.432 190.564L29.844 190.294C30.06 192.022 30.51 193.606 30.978 194.992C31.41 196.252 32.292 198.106 33.12 199.366C33.372 199.726 33.606 199.996 33.93 200.302L32.85 201.958C31.842 201.742 29.88 201.526 28.566 201.382L28.746 199.654C29.502 199.726 30.492 199.816 31.014 199.87C30.06 198.268 29.394 196.702 28.944 195.388C28.494 194.11 28.314 193.462 28.08 192.598ZM25.524 200.05C25.092 200.644 24.714 201.256 24.714 202.03C24.714 203.362 25.974 203.902 28.368 203.902C30.06 203.902 31.59 203.776 32.886 203.524L32.76 205.81C31.5 206.008 29.844 206.134 28.368 206.134C24.786 206.134 22.554 205.072 22.5 202.516C22.482 201.346 22.86 200.464 23.292 199.618L25.524 200.05ZM48.348 193.552C47.718 192.904 46.476 191.698 45.774 191.158L47.43 190.006C48.06 190.51 49.41 191.662 50.04 192.328L48.348 193.552ZM43.452 191.626C43.596 191.968 43.956 192.706 44.154 193.048C44.892 194.434 45.702 196.216 46.35 197.728C47.196 199.69 48.6 203.524 49.194 205.558L46.71 206.188C46.152 203.92 45.216 200.878 44.298 198.718C43.578 197.044 42.912 195.406 42.174 194.11C41.904 193.678 41.472 192.994 41.112 192.544L43.452 191.626ZM39.564 196.9C40.266 196.738 41.04 196.45 41.346 196.324C44.622 195.046 48.312 192.94 51.21 192.94C53.982 192.94 55.674 194.632 55.674 196.72C55.674 199.24 53.946 200.824 51.192 200.824C50.202 200.824 49.086 200.572 48.402 200.32L48.474 198.07C49.284 198.412 50.184 198.664 50.958 198.664C52.308 198.664 53.298 197.926 53.298 196.63C53.298 195.73 52.506 194.974 51.156 194.974C48.24 194.974 42.84 198.196 40.608 199.204L39.564 196.9ZM70.074 190.492C70.02 190.798 69.966 191.752 69.948 192.04C69.894 193.228 69.93 196.9 69.948 198.34L67.698 197.584C67.698 196.468 67.698 193.012 67.626 192.058C67.572 191.338 67.5 190.726 67.464 190.492H70.074ZM59.886 192.742C62.568 192.742 67.32 192.598 69.57 192.598C71.406 192.598 74.142 192.58 75.15 192.598L75.114 194.722C73.998 194.668 72.162 194.614 69.516 194.614C66.24 194.614 62.658 194.758 59.94 194.902L59.886 192.742ZM69.642 198.07C69.642 201.004 68.562 202.462 66.492 202.462C65.106 202.462 63.378 201.364 63.378 199.168C63.378 197.134 65.034 195.802 66.978 195.802C69.354 195.802 70.596 197.548 70.596 199.78C70.596 202.138 69.21 205.108 64.818 206.35L62.91 204.442C65.97 203.776 68.364 202.57 68.364 199.42C68.364 198.25 67.734 197.692 66.942 197.692C66.24 197.692 65.538 198.178 65.538 199.132C65.538 199.942 66.204 200.464 66.942 200.464C67.788 200.464 68.526 199.744 67.95 197.602L69.642 198.07ZM82.422 192.148C82.296 192.778 82.206 193.84 82.206 194.344C82.206 195.514 82.206 196.846 82.314 198.16C82.566 200.752 83.106 202.534 84.24 202.534C85.104 202.534 85.806 200.41 86.148 198.988L87.966 201.166C86.76 204.316 85.644 205.396 84.204 205.396C82.206 205.396 80.496 203.632 79.992 198.808C79.812 197.152 79.794 195.028 79.794 193.93C79.794 193.444 79.776 192.67 79.65 192.112L82.422 192.148ZM91.422 192.544C93.132 194.614 94.518 199.114 94.716 201.868L92.34 202.804C92.07 199.888 91.098 195.532 89.136 193.3L91.422 192.544ZM97.848 190.996H103.662V192.886H97.848V190.996ZM98.01 196.18H103.41V198.088H98.01V196.18ZM103.446 194.938H114.606V196.648H103.446V194.938ZM97.596 202.156C99.18 201.814 101.538 201.22 103.788 200.626L104.04 202.552C101.988 203.128 99.774 203.722 98.046 204.19L97.596 202.156ZM106.434 198.844V199.996H111.618V198.844H106.434ZM104.544 197.314H113.616V201.544H104.544V197.314ZM110.97 191.734V192.904H112.122V191.734H110.97ZM108.45 191.734V192.904H109.584V191.734H108.45ZM105.984 191.734V192.904H107.082V191.734H105.984ZM104.256 190.294H113.922V194.344H104.256V190.294ZM109.674 200.716C110.556 202.606 112.374 204.244 114.66 204.946C114.21 205.342 113.598 206.116 113.31 206.638C110.934 205.648 109.134 203.614 108.126 201.166L109.674 200.716ZM112.878 201.49L114.354 202.588C113.634 203.128 112.806 203.668 112.176 204.01L110.952 203.038C111.546 202.66 112.392 201.958 112.878 201.49ZM99.846 191.824H101.79V202.3L99.846 202.624V191.824ZM108.666 200.428L110.178 201.112C108.612 203.038 105.912 204.82 103.482 205.756C103.212 205.306 102.654 204.604 102.24 204.226C104.616 203.488 107.298 201.976 108.666 200.428ZM106.884 202.966L108.918 201.598V206.62H106.884V202.966ZM123.354 190.852H133.686V192.526H123.354V190.852ZM122.958 193.912H134.01V195.658H122.958V193.912ZM127.278 189.772H129.402V191.986H127.278V189.772ZM129.996 192.202L132.102 192.598C131.76 193.264 131.472 193.84 131.238 194.254L129.366 193.876C129.6 193.39 129.87 192.688 129.996 192.202ZM124.902 192.652L126.756 192.274C127.044 192.724 127.296 193.39 127.404 193.84L125.442 194.308C125.388 193.858 125.136 193.174 124.902 192.652ZM125.982 199.834V200.752H131.058V199.834H125.982ZM125.982 197.692V198.592H131.058V197.692H125.982ZM123.966 196.36H133.164V202.084H123.966V196.36ZM128.916 201.67H130.968V204.19C130.968 204.64 131.022 204.712 131.328 204.712C131.454 204.712 131.976 204.712 132.156 204.712C132.444 204.712 132.516 204.514 132.57 203.146C132.948 203.452 133.812 203.794 134.352 203.902C134.154 206.008 133.65 206.53 132.39 206.53C132.048 206.53 131.292 206.53 130.968 206.53C129.276 206.53 128.916 205.936 128.916 204.226V201.67ZM125.622 201.598H127.728C127.368 204.028 126.45 205.72 122.724 206.674C122.526 206.152 121.968 205.27 121.554 204.856C124.704 204.244 125.334 203.2 125.622 201.598ZM117.432 194.002H122.868V196.036H117.432V194.002ZM119.232 189.97H121.23V201.922H119.232V189.97ZM117.036 201.742C118.512 201.238 120.78 200.284 122.904 199.366L123.39 201.292C121.482 202.21 119.412 203.146 117.774 203.902L117.036 201.742ZM136.71 195.424C137.376 195.298 138.276 195.046 138.942 194.866C140.328 194.434 143.982 193.138 146.628 193.138C149.886 193.138 152.442 195.01 152.442 198.34C152.442 202.426 148.554 205.036 142.2 205.36L141.174 202.966C146.016 202.858 149.85 201.454 149.85 198.304C149.85 196.612 148.698 195.316 146.538 195.316C143.874 195.316 139.626 197.116 137.736 197.926L136.71 195.424ZM149.922 190.528C150.372 191.194 151.02 192.346 151.362 193.012L149.904 193.624C149.544 192.886 148.986 191.824 148.5 191.122L149.922 190.528ZM152.046 189.718C152.532 190.402 153.198 191.536 153.504 192.184L152.082 192.796C151.704 192.04 151.128 190.996 150.624 190.312L152.046 189.718ZM168.732 192.04C168.156 192.454 167.562 192.922 167.148 193.264C165.978 194.2 163.602 196.036 162.396 197.08C161.442 197.89 161.46 198.106 162.432 198.952C163.782 200.086 167.202 202.768 169.038 204.55L166.95 206.494C166.446 205.918 165.906 205.36 165.366 204.82C164.286 203.686 161.64 201.418 159.984 200.032C158.202 198.502 158.346 197.53 160.146 196.036C161.55 194.884 164.034 192.886 165.24 191.698C165.762 191.194 166.338 190.6 166.626 190.168L168.732 192.04ZM181.458 190.546C181.206 191.428 180.828 193.282 180.72 194.29C181.584 192.904 183.168 191.374 185.184 191.374C187.686 191.374 189.63 193.84 189.63 197.8C189.63 202.894 186.516 205.306 181.746 206.188L180.378 204.1C184.392 203.488 187.2 202.156 187.2 197.8C187.2 195.028 186.264 193.48 184.77 193.48C182.646 193.48 180.774 196.684 180.702 199.042C180.666 199.546 180.684 200.122 180.774 200.95L178.56 201.112C178.452 200.41 178.344 199.312 178.344 198.106C178.344 196.414 178.578 194.2 178.848 192.328C178.92 191.662 178.974 190.942 178.992 190.456L181.458 190.546ZM203.148 190.564C203.004 191.23 202.77 192.292 202.266 193.588C201.888 194.47 201.366 195.496 200.862 196.216C201.348 196 202.302 195.874 202.914 195.874C204.408 195.874 205.542 196.756 205.542 198.43C205.542 199.402 205.596 201.364 205.614 202.498H203.454C203.526 201.652 203.562 200.122 203.544 199.15C203.544 197.998 202.824 197.62 202.068 197.62C201.078 197.62 199.944 198.214 199.26 198.862C198.72 199.402 198.216 200.05 197.604 200.842L195.678 199.402C197.982 197.278 199.368 195.334 200.124 193.354C200.484 192.382 200.718 191.284 200.772 190.366L203.148 190.564ZM196.362 192.238C197.28 192.364 198.612 192.436 199.53 192.436C201.906 192.436 205.164 192.31 207.774 191.842L207.756 193.93C205.218 194.29 201.6 194.452 199.404 194.452C198.666 194.452 197.352 194.416 196.362 194.326V192.238ZM210.618 197.35C210.06 197.512 209.088 197.872 208.476 198.106C207.306 198.556 205.686 199.204 203.994 200.068C202.356 200.914 201.474 201.688 201.474 202.678C201.474 203.668 202.338 203.938 204.084 203.938C205.614 203.938 207.63 203.74 209.214 203.416L209.142 205.738C207.936 205.9 205.74 206.062 204.03 206.062C201.222 206.062 199.116 205.36 199.116 203.038C199.116 200.536 201.69 199.06 203.85 197.98C205.506 197.116 206.64 196.684 207.72 196.18C208.422 195.874 209.052 195.586 209.736 195.244L210.618 197.35ZM7.452 221.158H9.27V226.09H7.452V221.158ZM4.932 222.994H11.844V224.542H4.932V222.994ZM11.772 223.822H16.146V225.676H11.772V223.822ZM5.094 231.562H11.7V233.128H5.094V231.562ZM10.818 220.186L11.88 221.716C9.99 222.13 7.434 222.382 5.31 222.472C5.256 222.058 5.04 221.428 4.86 221.014C6.894 220.834 9.306 220.546 10.818 220.186ZM4.698 234.424C6.48 234.298 9.144 234.082 11.736 233.848L11.754 235.414C9.36 235.72 6.858 235.972 4.968 236.188L4.698 234.424ZM15.48 223.822H17.298C17.298 223.822 17.28 224.452 17.28 224.704C17.136 232.228 17.046 234.874 16.542 235.63C16.2 236.17 15.876 236.35 15.372 236.44C14.922 236.53 14.274 236.548 13.59 236.512C13.554 235.972 13.374 235.162 13.104 234.658C13.644 234.694 14.112 234.712 14.4 234.712C14.634 234.712 14.778 234.658 14.922 234.388C15.246 233.884 15.372 231.454 15.48 224.254V223.822ZM6.498 228.61V229.42H10.242V228.61H6.498ZM6.498 226.63V227.422H10.242V226.63H6.498ZM5.13 225.334H11.682V230.716H5.13V225.334ZM7.614 225.766H9.072V230.23H9.252V234.658H7.434V230.23H7.614V225.766ZM12.708 219.772H14.544V226.036C14.544 229.474 14.202 233.848 11.736 236.692C11.394 236.35 10.692 235.81 10.224 235.558C12.456 232.966 12.708 228.988 12.708 226.036V219.772ZM3.402 219.772L5.328 220.312C4.41 223.426 2.916 226.792 1.206 228.952C1.062 228.43 0.558 227.188 0.234 226.612C1.548 224.92 2.718 222.346 3.402 219.772ZM2.196 224.722L4.104 222.814L4.122 222.832V236.656H2.196V224.722ZM32.652 222.04C32.076 222.454 31.482 222.922 31.068 223.264C29.898 224.2 27.522 226.036 26.316 227.08C25.362 227.89 25.38 228.106 26.352 228.952C27.702 230.086 31.122 232.768 32.958 234.55L30.87 236.494C30.366 235.918 29.826 235.36 29.286 234.82C28.206 233.686 25.56 231.418 23.904 230.032C22.122 228.502 22.266 227.53 24.066 226.036C25.47 224.884 27.954 222.886 29.16 221.698C29.682 221.194 30.258 220.6 30.546 220.168L32.652 222.04ZM43.4347 221.392C43.9207 221.428 44.5507 221.464 44.9287 221.464C45.9727 221.464 47.8807 221.392 48.7087 221.32C49.1587 221.284 49.6267 221.176 49.9507 221.05L51.3727 222.184C51.1387 222.454 50.9227 222.688 50.7787 222.922C50.1667 223.948 49.1947 226.27 48.3847 228.142C47.6647 229.798 46.8007 231.94 46.0627 233.074C45.3427 234.172 44.4967 234.658 43.2547 234.658C41.6887 234.658 40.5007 233.578 40.5007 231.742C40.5007 228.862 43.2547 226.648 47.1067 226.648C51.3007 226.648 54.9727 228.88 56.8627 230.176L55.8187 232.678C53.6047 230.716 50.4367 228.664 46.7287 228.664C44.1007 228.664 42.5887 230.086 42.5887 231.4C42.5887 231.994 42.9307 232.3 43.3627 232.3C43.7227 232.3 43.9567 232.138 44.2987 231.688C44.8927 230.806 45.5407 229.15 46.1887 227.728C46.8187 226.306 47.5567 224.542 48.0967 223.426C47.3767 223.444 45.8107 223.498 45.0007 223.552C44.6227 223.57 43.9927 223.642 43.5247 223.696L43.4347 221.392ZM55.2787 225.64C55.0267 230.752 54.0187 234.064 49.7167 236.296L47.7907 234.73C52.2367 232.822 52.7767 229.456 52.9387 227.35C52.9747 226.648 52.9927 225.928 52.9207 225.37L55.2787 225.64ZM69.4267 221.644C69.2287 221.878 69.0487 222.184 68.8507 222.49C67.9507 223.768 66.6907 226.072 65.8087 227.674C66.4747 227.278 67.1767 227.116 67.8607 227.116C69.2107 227.116 70.0207 227.962 70.0927 229.474C70.1287 230.266 70.0927 231.706 70.1827 232.462C70.2547 233.164 70.7407 233.452 71.3347 233.452C72.9007 233.452 73.8727 231.418 74.3767 229.186L76.3387 230.77C75.3847 233.866 73.7287 235.918 70.9567 235.918C68.9587 235.918 68.0407 234.712 67.9507 233.416C67.8967 232.444 67.8967 230.986 67.8427 230.248C67.7887 229.618 67.4467 229.24 66.7987 229.24C65.5747 229.24 64.5487 230.5 63.9187 231.958C63.4327 233.002 62.8207 235.018 62.5507 235.972L60.0127 235.108C61.3267 231.508 65.0167 224.164 65.9887 222.436C66.2047 221.968 66.5467 221.374 66.8707 220.618L69.4267 221.644ZM79.9567 223.21C80.7307 223.3 81.7027 223.336 82.3507 223.336C84.5827 223.336 87.0127 222.958 88.7587 222.4L88.8127 224.488C87.2647 224.92 84.6727 225.388 82.3687 225.37C81.6487 225.37 80.8927 225.352 80.1187 225.316L79.9567 223.21ZM86.9587 220.51C86.7247 221.464 86.2927 223.228 85.8067 224.758C84.9787 227.35 83.3587 230.698 81.8287 232.822L79.6507 231.706C81.2707 229.726 82.8907 226.576 83.5927 224.632C84.0247 223.336 84.4207 221.662 84.4747 220.276L86.9587 220.51ZM91.1887 226.126C91.1347 226.882 91.1527 227.638 91.1707 228.43C91.2067 229.492 91.3687 232.174 91.3687 233.182C91.3687 234.856 90.4687 236.17 87.8947 236.17C85.6627 236.17 83.8987 235.162 83.8987 233.182C83.8987 231.436 85.3747 230.068 87.8767 230.068C91.0267 230.068 93.5107 231.652 95.0047 233.002L93.8167 234.946C92.5207 233.74 90.4687 231.886 87.7507 231.886C86.7067 231.886 86.0227 232.336 86.0227 232.966C86.0227 233.632 86.5987 234.1 87.5887 234.1C88.8127 234.1 89.2087 233.416 89.2087 232.408C89.2087 231.328 89.0107 228.016 88.9207 226.126H91.1887ZM94.2847 227.08C93.2407 226.234 91.1887 225.064 89.9467 224.506L91.1167 222.742C92.4127 223.3 94.6267 224.506 95.5627 225.172L94.2847 227.08ZM99.1627 222.67C99.8647 222.652 100.585 222.616 100.927 222.58C102.421 222.436 105.391 222.184 108.685 221.896C110.557 221.752 112.519 221.626 113.797 221.572L113.815 223.894C112.843 223.894 111.295 223.912 110.323 224.128C108.163 224.704 106.525 227.044 106.525 229.186C106.525 232.138 109.297 233.218 112.339 233.362L111.493 235.828C107.731 235.594 104.167 233.56 104.167 229.654C104.167 227.08 105.625 225.028 106.831 224.11C105.157 224.29 101.467 224.686 99.3967 225.136L99.1627 222.67ZM111.241 225.658C111.673 226.288 112.321 227.386 112.663 228.106L111.313 228.7C110.845 227.728 110.467 227.008 109.909 226.216L111.241 225.658ZM113.239 224.83C113.707 225.46 114.391 226.522 114.769 227.224L113.419 227.872C112.933 226.9 112.519 226.216 111.943 225.424L113.239 224.83ZM118.315 225.136C118.981 225.028 119.881 224.794 120.547 224.596C121.915 224.164 125.587 222.886 128.233 222.886C131.473 222.886 134.047 224.758 134.047 228.088C134.047 232.156 130.159 234.766 123.823 235.09L122.761 232.696C127.639 232.588 131.473 231.184 131.473 228.034C131.473 226.342 130.303 225.064 128.143 225.064C125.479 225.064 121.231 226.846 119.341 227.674L118.315 225.136ZM150.013 222.04C149.437 222.454 148.843 222.922 148.429 223.264C147.259 224.2 144.883 226.036 143.677 227.08C142.723 227.89 142.741 228.106 143.713 228.952C145.063 230.086 148.483 232.768 150.319 234.55L148.231 236.494C147.727 235.918 147.187 235.36 146.647 234.82C145.567 233.686 142.921 231.418 141.265 230.032C139.483 228.502 139.627 227.53 141.427 226.036C142.831 224.884 145.315 222.886 146.521 221.698C147.043 221.194 147.619 220.6 147.907 220.168L150.013 222.04ZM159.849 221.302C160.353 221.356 160.965 221.392 161.469 221.392C162.441 221.392 166.275 221.302 167.301 221.212C168.057 221.158 168.471 221.086 168.687 221.014L169.839 222.634C169.425 222.904 168.993 223.156 168.597 223.462C167.625 224.146 165.735 225.73 164.583 226.63C165.195 226.468 165.735 226.432 166.293 226.432C169.353 226.432 171.675 228.34 171.675 230.95C171.675 233.794 169.515 236.044 165.159 236.044C162.657 236.044 160.767 234.91 160.767 233.092C160.767 231.634 162.099 230.302 164.007 230.302C166.473 230.302 167.841 231.958 167.895 233.938L165.789 234.208C165.753 232.912 165.069 232.012 164.007 232.012C163.341 232.012 162.891 232.426 162.891 232.894C162.891 233.56 163.629 234.01 164.727 234.01C167.769 234.01 169.317 232.858 169.317 230.932C169.317 229.294 167.697 228.196 165.591 228.196C162.819 228.196 161.037 229.672 159.111 231.85L157.473 230.158C158.751 229.15 160.929 227.314 161.973 226.432C162.981 225.604 164.871 224.092 165.753 223.3C164.835 223.336 162.351 223.426 161.379 223.498C160.893 223.534 160.335 223.57 159.921 223.642L159.849 221.302ZM178.803 230.554C180.423 230.554 181.719 231.85 181.719 233.452C181.719 235.072 180.423 236.368 178.803 236.368C177.201 236.368 175.887 235.072 175.887 233.452C175.887 231.85 177.201 230.554 178.803 230.554ZM178.803 235.072C179.703 235.072 180.423 234.352 180.423 233.452C180.423 232.57 179.703 231.85 178.803 231.85C177.921 231.85 177.183 232.57 177.183 233.452C177.183 234.352 177.921 235.072 178.803 235.072Z" fill="#212121"/>
</svg>
