<svg width="390" height="844" viewBox="0 0 390 844" fill="none" xmlns="http://www.w3.org/2000/svg">
<g clip-path="url(#clip0_87_60)">
<rect width="390" height="844" fill="#BFEAD9" fill-opacity="0.3"/>
<path d="M266.574 631.349L226.001 635.683C221.086 627.118 214.548 619.402 206.419 612.842C171.231 584.448 119.77 589.946 91.3759 625.133C62.9815 660.321 68.4797 711.782 103.667 740.176C138.855 768.571 190.316 763.073 218.71 727.885C225.27 719.756 229.973 710.787 233.025 701.422L273.598 697.087L277.933 737.661C269.367 742.575 261.651 749.114 255.091 757.243C226.697 792.43 232.195 843.891 267.383 872.286C302.57 900.68 354.031 895.182 382.426 859.994C410.82 824.807 405.322 773.346 370.134 744.951C362.005 738.392 353.036 733.688 343.672 730.637L312.647 440.256C311.868 432.963 305.387 427.734 298.095 428.513C269.026 431.619 248.017 457.654 251.122 486.723L266.574 631.349ZM362.551 687.584L483.962 674.612C513.031 671.506 534.04 645.471 530.934 616.402C530.155 609.109 523.675 603.88 516.382 604.659L355.527 621.845L362.551 687.584ZM133.025 703.795C129.442 700.904 126.463 697.335 124.259 693.292C122.055 689.25 120.669 684.812 120.18 680.234C119.691 675.656 120.108 671.026 121.408 666.609C122.708 662.192 124.866 658.074 127.757 654.491C130.649 650.908 134.217 647.929 138.26 645.725C142.303 643.521 146.74 642.135 151.318 641.646C155.896 641.157 160.526 641.574 164.943 642.874C169.36 644.174 173.478 646.332 177.061 649.223C180.644 652.115 183.623 655.684 185.827 659.726C188.031 663.769 189.417 668.206 189.906 672.784C190.395 677.363 189.978 681.993 188.678 686.41C187.378 690.827 185.22 694.944 182.329 698.527C179.437 702.111 175.869 705.089 171.826 707.293C167.783 709.497 163.346 710.883 158.768 711.373C154.19 711.862 149.56 711.444 145.143 710.144C140.726 708.844 136.608 706.687 133.025 703.795ZM291.473 786.6C294.364 783.017 297.933 780.039 301.976 777.835C306.018 775.631 310.455 774.244 315.034 773.755C319.612 773.266 324.242 773.684 328.659 774.984C333.076 776.284 337.193 778.441 340.777 781.333C344.36 784.224 347.339 787.793 349.543 791.836C351.747 795.878 353.133 800.315 353.622 804.894C354.111 809.472 353.694 814.102 352.393 818.519C351.093 822.936 348.936 827.054 346.044 830.637C343.153 834.22 339.584 837.199 335.541 839.403C331.499 841.607 327.062 842.993 322.483 843.482C317.905 843.971 313.275 843.554 308.858 842.254C304.441 840.953 300.323 838.796 296.74 835.905C293.157 833.013 290.178 829.444 287.974 825.402C285.77 821.359 284.384 816.922 283.895 812.343C283.406 807.765 283.823 803.135 285.124 798.718C286.424 794.301 288.581 790.184 291.473 786.6Z" fill="white" fill-opacity="0.8"/>
</g>
<defs>
<clipPath id="clip0_87_60">
<rect width="390" height="844" fill="white"/>
</clipPath>
</defs>
</svg>
