<?xml version="1.0" encoding="UTF-8"?><svg id="_レイヤー_2" xmlns="http://www.w3.org/2000/svg" width="46.42mm" height="35.08mm" viewBox="0 0 131.6 99.43"><defs><style>.cls-1{fill:#727171;}.cls-2{fill:#e39abb;}</style></defs><g id="_レイヤー_1-2"><path class="cls-2" d="M95.62,61.02c.52-.13,1.31-.32,1.95-1.28.63-.94.62-2.33-.19-3.35-.81-1-2.66-1.53-4.79-.11-2.2,1.48-4.08,3.73-5.92,4.66.94-1.83,3.18-3.7,4.65-5.91,1.43-2.12.89-3.98-.11-4.78-1.02-.82-2.41-.82-3.35-.19-.97.64-1.16,1.42-1.28,1.96-.13-.53-.32-1.32-1.29-1.95-.94-.62-2.32-.63-3.35.19-1,.8-1.53,2.66-.11,4.79,1.46,2.19,3.69,4.04,4.63,5.86-1.81-.95-3.66-3.16-5.84-4.62-2.14-1.42-3.99-.89-4.79.11-.82,1.03-.82,2.41-.19,3.35.64.97,1.42,1.16,1.95,1.29-.53.13-1.31.33-1.95,1.28-.62.95-.62,2.33.19,3.35.8,1,2.65,1.53,4.79.11,2.17-1.46,4.04-3.66,5.84-4.61-.95,1.81-3.16,3.68-4.63,5.86-1.42,2.12-.9,3.98.11,4.78,1.03.82,2.42.82,3.36.19.96-.63,1.16-1.41,1.28-1.95.12.53.32,1.31,1.28,1.95.94.63,2.33.63,3.35-.19,1-.79,1.54-2.66.11-4.78-1.48-2.2-3.71-4.07-4.64-5.9,1.83.92,3.71,3.17,5.92,4.65,2.13,1.42,3.98.9,4.79-.11.82-1.02.82-2.4.19-3.35-.64-.96-1.42-1.15-1.95-1.28Z"/><path class="cls-1" d="M85.26,42.06c-3.83,3.12-6.63,4.67-8.4,4.67-2.37,0-3.67-1.72-3.89-5.17-4.22,3.45-7.5,5.17-9.85,5.17s-4.14-.58-5.54-1.74c-1.54-1.24-2.32-2.98-2.32-5.21,0-2.98,1.55-5.17,4.63-6.58,1.05-.47,3.21-1.23,6.49-2.27,2.7-.85,4.84-1.75,6.41-2.69v-2.93c0-2.48-.48-4.29-1.45-5.42-1.38-1.63-2.96-2.44-4.76-2.44-1.16,0-2.3.39-3.43,1.16-1.21.88-1.82,1.88-1.82,2.98,0,.44.14.98.41,1.61l-5.75,2.81c-.17-.55-.25-.95-.25-1.2,0-1.24.9-2.77,2.69-4.59,1.4-1.41,2.85-2.56,4.34-3.48,1.96-1.19,3.79-1.78,5.5-1.78,3.78,0,6.74,1.5,8.89,4.51.85,1.19,1.28,3.61,1.28,7.28v7.61c0,4.8.3,7.43.91,7.9.27.25.7.37,1.28.37,1.29,0,2.68-.62,4.14-1.86l.45,1.28ZM72.81,40.03v-10.09c-1.07.64-2.74,1.42-5,2.36-2.59,1.08-4.18,1.81-4.76,2.19-1.57,1.08-2.36,2.5-2.36,4.26,0,1.41.48,2.59,1.45,3.56.97.97,2.15,1.45,3.56,1.45,1.21,0,3.59-1.24,7.12-3.72"/><path class="cls-1" d="M66.05,61.26c-1.41.06-3.09.1-4.38.1-5.72,0-8.63.28-12.17-2.31-2.85-2.09-21.13-21.46-23.55-23.01-3.2.12-2.4.01-3.56.01-1.26,0-2.89-.06-4.9-.19v16.31c0,3.61,1.07,5.83,3.2,6.65,1.07.41,2.56.61,4.48.61h2.22v1.84H.09v-1.84h1.65c3.02,0,5.06-.57,6.13-1.72,1.07-1.15,1.6-3.24,1.6-6.29V10.79c0-2.89-.5-4.9-1.51-6.03-1.01-1.13-2.92-1.7-5.75-1.7H.09v-1.84c1.26,0,4.08-.13,8.48-.38,1.07-.06,2.29-.12,3.68-.19,4.08-.19,8.14-.28,12.16-.28,8.58,0,15.1,1.6,19.56,4.81,4.21,3.05,6.32,7.16,6.32,12.35,0,3.84-1.23,7.17-3.68,9.99-2.3,2.64-10.56,7-10.56,7,0,0,16.91,19.6,22.74,23.53,1.86,1.26,4.74,1.27,7.25,1.46v1.74ZM41.19,18.14c0-6.82-2.53-11.45-7.59-13.91-2.8-1.35-6.57-2.03-11.31-2.03-2.07,0-3.67.06-4.81.19v31.63c1.1.16,3.09.24,5.99.24,11.82,0,17.72-5.37,17.72-16.12"/><path class="cls-1" d="M130.99,27.58c-2.45.25-4.43,1.49-5.94,3.72-.75,1.13-1.45,2.47-2.07,4.01l-20.77,53.64c-2.77,6.88-5.59,10.32-8.48,10.32-1.04,0-1.93-.3-2.69-.9-.85-.63-1.27-1.44-1.27-2.45,0-1.16.52-2.04,1.55-2.64.41-.25,1.44-.63,3.11-1.13,1.66-.5,2.78-1.05,3.34-1.65,1.26-1.29,10.54-25.5,10.54-25.5l-14.94-31.72c-.94-2.04-1.9-3.44-2.88-4.19-1.13-.97-2.72-1.48-4.76-1.51v-1.75h19.38v1.75c-2.83.03-4.54.49-5.14,1.37-.63.91-.46,2.42.52,4.53l10.94,23.52,8.2-20.46c.91-2.26,1.37-4.04,1.37-5.33,0-.72-.13-1.29-.38-1.7-.75-1.19-2.64-1.84-5.65-1.93v-1.75h16.02v1.75Z"/><path class="cls-1" d="M85.62,41.91c-3.85,3.13-6.67,4.7-8.44,4.7-2.38,0-3.69-1.73-3.91-5.2-4.24,3.47-7.54,5.2-9.9,5.2s-4.16-.58-5.57-1.75c-1.55-1.25-2.33-2.99-2.33-5.24,0-2.99,1.55-5.2,4.66-6.61,1.05-.47,3.23-1.23,6.53-2.29,2.72-.86,4.87-1.76,6.45-2.7v-2.95c0-2.5-.48-4.31-1.45-5.45-1.39-1.63-2.98-2.45-4.78-2.45-1.16,0-2.32.39-3.45,1.17-1.22.89-1.83,1.89-1.83,2.99,0,.44.14.98.42,1.62l-5.78,2.83c-.17-.55-.25-.96-.25-1.21,0-1.25.9-2.79,2.7-4.62,1.41-1.41,2.87-2.58,4.37-3.49,1.97-1.19,3.81-1.79,5.53-1.79,3.8,0,6.78,1.51,8.94,4.53.86,1.19,1.29,3.63,1.29,7.32v7.65c0,4.82.3,7.47.92,7.94.27.25.71.37,1.29.37,1.3,0,2.69-.62,4.16-1.87l.46,1.29ZM73.1,39.87v-10.15c-1.08.64-2.76,1.43-5.03,2.37-2.61,1.08-4.2,1.82-4.78,2.2-1.58,1.08-2.37,2.51-2.37,4.28,0,1.41.48,2.61,1.46,3.58.97.97,2.16,1.46,3.58,1.46,1.22,0,3.61-1.25,7.15-3.74Z"/><path class="cls-1" d="M66.31,61.21c-1.42.07-3.11.1-4.4.1-5.75,0-8.68.28-12.24-2.32-2.86-2.1-21.24-21.58-23.68-23.13-3.22.13-2.42.01-3.58.01-1.26,0-2.91-.06-4.93-.19v16.4c0,3.63,1.07,5.86,3.22,6.68,1.07.41,2.57.62,4.5.62h2.23v1.85H0v-1.85h1.66c3.03,0,5.08-.58,6.16-1.73,1.07-1.15,1.61-3.26,1.61-6.33V10.47c0-2.91-.51-4.93-1.51-6.07-1.01-1.14-2.94-1.71-5.78-1.71H0V.85c1.26,0,4.1-.13,8.53-.38,1.07-.06,2.31-.13,3.69-.19,4.11-.19,8.18-.28,12.23-.28,8.62,0,15.18,1.61,19.66,4.83,4.23,3.06,6.35,7.2,6.35,12.41,0,3.86-1.23,7.2-3.7,10.05-2.31,2.65-10.62,7.04-10.62,7.04,0,0,17,19.71,22.86,23.66,1.87,1.26,4.76,1.28,7.29,1.47v1.75ZM41.32,17.87c0-6.85-2.54-11.51-7.63-13.98-2.81-1.36-6.6-2.04-11.37-2.04-2.09,0-3.69.07-4.83.19v31.8c1.1.16,3.11.24,6.02.24,11.88,0,17.82-5.4,17.82-16.21Z"/><path class="cls-1" d="M131.6,27.35c-2.46.25-4.45,1.5-5.97,3.74-.76,1.14-1.45,2.48-2.09,4.03l-20.88,53.93c-2.78,6.92-5.62,10.38-8.53,10.38-1.04,0-1.94-.3-2.7-.9-.85-.63-1.28-1.45-1.28-2.46,0-1.17.52-2.05,1.56-2.65.41-.25,1.45-.63,3.13-1.14,1.67-.51,2.79-1.06,3.36-1.66,1.26-1.3,10.6-25.64,10.6-25.64l-15.02-31.89c-.95-2.05-1.91-3.46-2.89-4.22-1.14-.98-2.73-1.48-4.79-1.52v-1.76h19.48v1.76c-2.84.03-4.57.49-5.17,1.37-.63.92-.46,2.43.52,4.55l10.99,23.65,8.24-20.57c.92-2.27,1.37-4.06,1.37-5.35,0-.73-.13-1.3-.38-1.71-.76-1.2-2.65-1.85-5.68-1.94v-1.76h16.11v1.76Z"/></g></svg>