<svg width="390" height="799" viewBox="0 0 390 799" fill="none" xmlns="http://www.w3.org/2000/svg">
<path d="M44.1842 132.787L35.3767 133.728C34.3098 131.868 32.8905 130.193 31.1258 128.769C23.4874 122.605 12.3163 123.799 6.15256 131.437C-0.0112209 139.076 1.1823 150.247 8.82072 156.411C16.4591 162.574 27.6302 161.381 33.794 153.743C35.2179 151.978 36.239 150.031 36.9014 147.998L45.7089 147.057L46.6499 155.865C44.7906 156.931 43.1155 158.351 41.6916 160.115C35.5278 167.754 36.7213 178.925 44.3597 185.089C51.9981 191.252 63.1692 190.059 69.333 182.421C75.4968 174.782 74.3033 163.611 66.6648 157.447C64.9002 156.023 62.9531 155.002 60.9203 154.34L54.1856 91.3046C54.0165 89.7215 52.6097 88.5864 51.0266 88.7555C44.7164 89.4297 40.1558 95.0814 40.83 101.392L44.1842 132.787ZM65.0186 144.994L91.3743 142.178C97.6845 141.504 102.245 135.852 101.571 129.542C101.402 127.959 99.9951 126.824 98.4119 126.993L63.4939 130.724L65.0186 144.994ZM15.1936 148.513C14.4158 147.885 13.7692 147.111 13.2907 146.233C12.8123 145.356 12.5114 144.392 12.4052 143.399C12.2991 142.405 12.3897 141.4 12.6719 140.441C12.9541 139.482 13.4224 138.588 14.0501 137.81C14.6778 137.032 15.4525 136.386 16.3301 135.907C17.2077 135.429 18.1709 135.128 19.1647 135.022C20.1586 134.916 21.1636 135.006 22.1224 135.289C23.0813 135.571 23.9751 136.039 24.753 136.667C25.5308 137.294 26.1774 138.069 26.6558 138.947C27.1342 139.824 27.4351 140.788 27.5413 141.781C27.6475 142.775 27.5569 143.78 27.2747 144.739C26.9924 145.698 26.5241 146.592 25.8964 147.37C25.2688 148.147 24.494 148.794 23.6165 149.272C22.7389 149.751 21.7757 150.052 20.7819 150.158C19.788 150.264 18.783 150.174 17.8241 149.891C16.8653 149.609 15.9715 149.141 15.1936 148.513ZM49.5891 166.488C50.2168 165.71 50.9915 165.064 51.8691 164.585C52.7467 164.107 53.7099 163.806 54.7037 163.7C55.6976 163.594 56.7026 163.684 57.6614 163.967C58.6203 164.249 59.5141 164.717 60.2919 165.345C61.0698 165.972 61.7164 166.747 62.1948 167.625C62.6732 168.502 62.9741 169.466 63.0803 170.459C63.1865 171.453 63.0959 172.458 62.8137 173.417C62.5314 174.376 62.0631 175.27 61.4354 176.048C60.8078 176.825 60.033 177.472 59.1555 177.95C58.2779 178.429 57.3147 178.73 56.3209 178.836C55.327 178.942 54.322 178.852 53.3631 178.569C52.4043 178.287 51.5105 177.819 50.7326 177.191C49.9548 176.563 49.3082 175.789 48.8297 174.911C48.3513 174.034 48.0504 173.07 47.9442 172.077C47.838 171.083 47.9287 170.078 48.2109 169.119C48.4931 168.16 48.9614 167.266 49.5891 166.488Z" fill="white" fill-opacity="0.8"/>
<path d="M187.603 132.787L178.796 133.728C177.729 131.868 176.31 130.193 174.545 128.769C166.907 122.605 155.736 123.799 149.572 131.437C143.408 139.076 144.601 150.247 152.24 156.411C159.878 162.574 171.049 161.381 177.213 153.742C178.637 151.978 179.658 150.031 180.321 147.998L189.128 147.057L190.069 155.864C188.21 156.931 186.535 158.351 185.111 160.115C178.947 167.754 180.14 178.925 187.779 185.089C195.417 191.252 206.588 190.059 212.752 182.42C218.916 174.782 217.722 163.611 210.084 157.447C208.319 156.023 206.372 155.002 204.34 154.34L197.605 91.3046C197.436 89.7215 196.029 88.5863 194.446 88.7554C188.136 89.4296 183.575 95.0813 184.249 101.392L187.603 132.787ZM208.438 144.994L234.794 142.178C241.104 141.504 245.664 135.852 244.99 129.542C244.821 127.959 243.414 126.824 241.831 126.993L206.913 130.723L208.438 144.994ZM158.613 148.513C157.835 147.885 157.188 147.111 156.71 146.233C156.232 145.356 155.931 144.392 155.824 143.398C155.718 142.405 155.809 141.4 156.091 140.441C156.373 139.482 156.842 138.588 157.469 137.81C158.097 137.032 158.872 136.386 159.749 135.907C160.627 135.429 161.59 135.128 162.584 135.022C163.578 134.916 164.583 135.006 165.542 135.288C166.5 135.571 167.394 136.039 168.172 136.667C168.95 137.294 169.597 138.069 170.075 138.947C170.553 139.824 170.854 140.787 170.961 141.781C171.067 142.775 170.976 143.78 170.694 144.739C170.412 145.698 169.943 146.592 169.316 147.37C168.688 148.147 167.913 148.794 167.036 149.272C166.158 149.751 165.195 150.052 164.201 150.158C163.207 150.264 162.202 150.174 161.243 149.891C160.284 149.609 159.391 149.141 158.613 148.513ZM193.008 166.488C193.636 165.71 194.411 165.064 195.288 164.585C196.166 164.107 197.129 163.806 198.123 163.7C199.117 163.594 200.122 163.684 201.081 163.967C202.039 164.249 202.933 164.717 203.711 165.345C204.489 165.972 205.136 166.747 205.614 167.625C206.092 168.502 206.393 169.465 206.5 170.459C206.606 171.453 206.515 172.458 206.233 173.417C205.951 174.376 205.482 175.27 204.855 176.048C204.227 176.825 203.452 177.472 202.575 177.95C201.697 178.429 200.734 178.73 199.74 178.836C198.746 178.942 197.741 178.852 196.782 178.569C195.823 178.287 194.93 177.819 194.152 177.191C193.374 176.563 192.727 175.789 192.249 174.911C191.771 174.034 191.47 173.07 191.363 172.076C191.257 171.083 191.348 170.078 191.63 169.119C191.912 168.16 192.381 167.266 193.008 166.488Z" fill="white" fill-opacity="0.8"/>
<path d="M331.023 132.787L322.215 133.728C321.148 131.868 319.729 130.193 317.964 128.769C310.326 122.605 299.155 123.799 292.991 131.437C286.827 139.076 288.021 150.247 295.659 156.411C303.298 162.574 314.469 161.381 320.633 153.742C322.057 151.978 323.078 150.031 323.74 147.998L332.548 147.057L333.489 155.864C331.629 156.931 329.954 158.351 328.53 160.115C322.366 167.754 323.56 178.925 331.198 185.089C338.837 191.252 350.008 190.059 356.172 182.42C362.335 174.782 361.142 163.611 353.503 157.447C351.739 156.023 349.792 155.002 347.759 154.34L341.024 91.3046C340.855 89.7215 339.448 88.5863 337.865 88.7554C331.555 89.4296 326.994 95.0813 327.669 101.392L331.023 132.787ZM351.857 144.994L378.213 142.178C384.523 141.504 389.084 135.852 388.41 129.542C388.24 127.959 386.834 126.824 385.251 126.993L350.333 130.723L351.857 144.994ZM302.032 148.513C301.254 147.885 300.608 147.111 300.129 146.233C299.651 145.356 299.35 144.392 299.244 143.398C299.138 142.405 299.228 141.4 299.511 140.441C299.793 139.482 300.261 138.588 300.889 137.81C301.516 137.032 302.291 136.386 303.169 135.907C304.046 135.429 305.009 135.128 306.003 135.022C306.997 134.916 308.002 135.006 308.961 135.288C309.92 135.571 310.814 136.039 311.592 136.667C312.369 137.294 313.016 138.069 313.494 138.947C313.973 139.824 314.274 140.787 314.38 141.781C314.486 142.775 314.396 143.78 314.113 144.739C313.831 145.698 313.363 146.592 312.735 147.37C312.107 148.147 311.333 148.794 310.455 149.272C309.578 149.751 308.614 150.052 307.62 150.158C306.627 150.264 305.622 150.174 304.663 149.891C303.704 149.609 302.81 149.141 302.032 148.513ZM336.428 166.488C337.055 165.71 337.83 165.064 338.708 164.585C339.585 164.107 340.548 163.806 341.542 163.7C342.536 163.594 343.541 163.684 344.5 163.967C345.459 164.249 346.353 164.717 347.131 165.345C347.908 165.972 348.555 166.747 349.033 167.625C349.512 168.502 349.813 169.465 349.919 170.459C350.025 171.453 349.935 172.458 349.652 173.417C349.37 174.376 348.902 175.27 348.274 176.048C347.646 176.825 346.872 177.472 345.994 177.95C345.117 178.429 344.153 178.73 343.159 178.836C342.166 178.942 341.161 178.852 340.202 178.569C339.243 178.287 338.349 177.819 337.571 177.191C336.793 176.563 336.147 175.789 335.668 174.911C335.19 174.034 334.889 173.07 334.783 172.076C334.677 171.083 334.767 170.078 335.05 169.119C335.332 168.16 335.8 167.266 336.428 166.488Z" fill="white" fill-opacity="0.8"/>
<path d="M346.074 250.455L354.881 249.514C355.948 251.373 357.367 253.048 359.132 254.472C366.77 260.636 377.941 259.442 384.105 251.804C390.269 244.165 389.076 232.994 381.437 226.831C373.799 220.667 362.628 221.86 356.464 229.499C355.04 231.263 354.019 233.21 353.356 235.243L344.549 236.184L343.608 227.377C345.467 226.31 347.142 224.89 348.566 223.126C354.73 215.487 353.537 204.316 345.898 198.153C338.26 191.989 327.089 193.182 320.925 200.821C314.761 208.459 315.955 219.63 323.593 225.794C325.358 227.218 327.305 228.239 329.337 228.901L336.072 291.937C336.241 293.52 337.648 294.655 339.231 294.486C345.541 293.812 350.102 288.16 349.428 281.85L346.074 250.455ZM325.239 238.247L298.883 241.063C292.573 241.737 288.013 247.389 288.687 253.699C288.856 255.282 290.263 256.418 291.846 256.248L326.764 252.518L325.239 238.247ZM375.064 234.728C375.842 235.356 376.489 236.13 376.967 237.008C377.445 237.886 377.746 238.849 377.853 239.843C377.959 240.837 377.868 241.842 377.586 242.8C377.304 243.759 376.835 244.653 376.208 245.431C375.58 246.209 374.805 246.855 373.928 247.334C373.05 247.812 372.087 248.113 371.093 248.219C370.099 248.325 369.094 248.235 368.135 247.953C367.177 247.67 366.283 247.202 365.505 246.574C364.727 245.947 364.08 245.172 363.602 244.294C363.124 243.417 362.823 242.454 362.716 241.46C362.61 240.466 362.701 239.461 362.983 238.502C363.265 237.543 363.734 236.649 364.361 235.872C364.989 235.094 365.764 234.447 366.641 233.969C367.519 233.49 368.482 233.189 369.476 233.083C370.47 232.977 371.475 233.068 372.434 233.35C373.393 233.632 374.286 234.1 375.064 234.728ZM340.669 216.753C340.041 217.531 339.266 218.177 338.389 218.656C337.511 219.134 336.548 219.435 335.554 219.541C334.56 219.647 333.555 219.557 332.596 219.275C331.638 218.992 330.744 218.524 329.966 217.896C329.188 217.269 328.541 216.494 328.063 215.616C327.585 214.739 327.284 213.776 327.177 212.782C327.071 211.788 327.162 210.783 327.444 209.824C327.726 208.865 328.195 207.971 328.822 207.194C329.45 206.416 330.225 205.769 331.102 205.291C331.98 204.812 332.943 204.511 333.937 204.405C334.931 204.299 335.936 204.39 336.895 204.672C337.854 204.954 338.747 205.422 339.525 206.05C340.303 206.678 340.95 207.452 341.428 208.33C341.907 209.208 342.207 210.171 342.314 211.165C342.42 212.159 342.329 213.164 342.047 214.122C341.765 215.081 341.296 215.975 340.669 216.753Z" fill="white" fill-opacity="0.8"/>
<path d="M202.654 250.455L211.462 249.514C212.529 251.373 213.948 253.048 215.713 254.472C223.351 260.636 234.522 259.442 240.686 251.804C246.85 244.165 245.656 232.994 238.018 226.831C230.379 220.667 219.208 221.86 213.045 229.499C211.621 231.263 210.6 233.21 209.937 235.243L201.13 236.184L200.189 227.377C202.048 226.31 203.723 224.89 205.147 223.126C211.311 215.487 210.117 204.316 202.479 198.153C194.84 191.989 183.669 193.182 177.506 200.821C171.342 208.459 172.535 219.63 180.174 225.794C181.938 227.218 183.885 228.239 185.918 228.901L192.653 291.937C192.822 293.52 194.229 294.655 195.812 294.486C202.122 293.812 206.683 288.16 206.009 281.85L202.654 250.455ZM181.82 238.247L155.464 241.063C149.154 241.737 144.593 247.389 145.268 253.699C145.437 255.282 146.844 256.418 148.427 256.248L183.345 252.518L181.82 238.247ZM231.645 234.728C232.423 235.356 233.069 236.131 233.548 237.008C234.026 237.886 234.327 238.849 234.433 239.843C234.54 240.837 234.449 241.842 234.167 242.8C233.885 243.759 233.416 244.653 232.789 245.431C232.161 246.209 231.386 246.855 230.509 247.334C229.631 247.812 228.668 248.113 227.674 248.219C226.68 248.326 225.675 248.235 224.716 247.953C223.757 247.67 222.864 247.202 222.086 246.574C221.308 245.947 220.661 245.172 220.183 244.295C219.704 243.417 219.403 242.454 219.297 241.46C219.191 240.466 219.282 239.461 219.564 238.502C219.846 237.543 220.314 236.649 220.942 235.872C221.57 235.094 222.345 234.447 223.222 233.969C224.1 233.49 225.063 233.189 226.057 233.083C227.051 232.977 228.056 233.068 229.014 233.35C229.973 233.632 230.867 234.1 231.645 234.728ZM197.25 216.753C196.622 217.531 195.847 218.177 194.97 218.656C194.092 219.134 193.129 219.435 192.135 219.541C191.141 219.648 190.136 219.557 189.177 219.275C188.218 218.992 187.325 218.524 186.547 217.896C185.769 217.269 185.122 216.494 184.644 215.616C184.165 214.739 183.864 213.776 183.758 212.782C183.652 211.788 183.743 210.783 184.025 209.824C184.307 208.865 184.776 207.971 185.403 207.194C186.031 206.416 186.806 205.769 187.683 205.291C188.561 204.812 189.524 204.511 190.518 204.405C191.512 204.299 192.517 204.39 193.475 204.672C194.434 204.954 195.328 205.422 196.106 206.05C196.884 206.678 197.53 207.453 198.009 208.33C198.487 209.208 198.788 210.171 198.894 211.165C199.001 212.159 198.91 213.164 198.628 214.122C198.346 215.081 197.877 215.975 197.25 216.753Z" fill="white" fill-opacity="0.8"/>
<path d="M59.235 250.455L68.0425 249.514C69.1094 251.373 70.5287 253.048 72.2933 254.472C79.9318 260.636 91.1028 259.442 97.2666 251.804C103.43 244.165 102.237 232.994 94.5985 226.831C86.9601 220.667 75.789 221.86 69.6252 229.499C68.2012 231.263 67.1802 233.21 66.5178 235.243L57.7103 236.184L56.7693 227.377C58.6286 226.31 60.3037 224.89 61.7276 223.126C67.8914 215.487 66.6979 204.316 59.0595 198.153C51.4211 191.989 40.25 193.182 34.0862 200.821C27.9224 208.459 29.1159 219.63 36.7544 225.794C38.519 227.218 40.466 228.239 42.4988 228.901L49.2336 291.937C49.4027 293.52 50.8095 294.655 52.3926 294.486C58.7028 293.812 63.2634 288.16 62.5892 281.85L59.235 250.455ZM38.4006 238.247L12.0449 241.063C5.73465 241.737 1.17405 247.389 1.84824 253.699C2.01738 255.282 3.42413 256.418 5.00726 256.248L39.9253 252.518L38.4006 238.247ZM88.2256 234.728C89.0034 235.356 89.65 236.131 90.1284 237.008C90.6069 237.886 90.9078 238.849 91.014 239.843C91.1201 240.837 91.0295 241.842 90.7473 242.8C90.4651 243.759 89.9967 244.653 89.3691 245.431C88.7414 246.209 87.9667 246.855 87.0891 247.334C86.2115 247.812 85.2483 248.113 84.2545 248.219C83.2606 248.326 82.2556 248.235 81.2968 247.953C80.3379 247.67 79.4441 247.202 78.6662 246.574C77.8884 245.947 77.2418 245.172 76.7634 244.295C76.2849 243.417 75.984 242.454 75.8779 241.46C75.7717 240.466 75.8623 239.461 76.1445 238.502C76.4267 237.543 76.8951 236.649 77.5227 235.872C78.1504 235.094 78.9252 234.447 79.8027 233.969C80.6803 233.49 81.6435 233.189 82.6373 233.083C83.6312 232.977 84.6362 233.068 85.595 233.35C86.5539 233.632 87.4477 234.1 88.2256 234.728ZM53.8301 216.753C53.2024 217.531 52.4277 218.177 51.5501 218.656C50.6725 219.134 49.7093 219.435 48.7155 219.541C47.7216 219.648 46.7166 219.557 45.7578 219.275C44.7989 218.992 43.9051 218.524 43.1272 217.896C42.3494 217.269 41.7028 216.494 41.2244 215.616C40.7459 214.739 40.445 213.776 40.3389 212.782C40.2327 211.788 40.3233 210.783 40.6055 209.824C40.8877 208.865 41.3561 207.971 41.9837 207.194C42.6114 206.416 43.3862 205.769 44.2637 205.291C45.1413 204.812 46.1045 204.511 47.0983 204.405C48.0922 204.299 49.0972 204.39 50.0561 204.672C51.0149 204.954 51.9087 205.422 52.6866 206.05C53.4644 206.678 54.111 207.453 54.5894 208.33C55.0679 209.208 55.3688 210.171 55.475 211.165C55.5811 212.159 55.4905 213.164 55.2083 214.122C54.9261 215.081 54.4578 215.975 53.8301 216.753Z" fill="white" fill-opacity="0.8"/>
<path d="M346.074 630.455L354.881 629.514C355.948 631.373 357.367 633.048 359.132 634.472C366.77 640.636 377.941 639.442 384.105 631.804C390.269 624.165 389.076 612.994 381.437 606.831C373.799 600.667 362.628 601.86 356.464 609.499C355.04 611.263 354.019 613.21 353.356 615.243L344.549 616.184L343.608 607.377C345.467 606.31 347.142 604.89 348.566 603.126C354.73 595.487 353.537 584.316 345.898 578.153C338.26 571.989 327.089 573.182 320.925 580.821C314.761 588.459 315.955 599.63 323.593 605.794C325.358 607.218 327.305 608.239 329.337 608.901L336.072 671.937C336.241 673.52 337.648 674.655 339.231 674.486C345.541 673.812 350.102 668.16 349.428 661.85L346.074 630.455ZM325.239 618.247L298.883 621.063C292.573 621.737 288.013 627.389 288.687 633.699C288.856 635.282 290.263 636.418 291.846 636.248L326.764 632.518L325.239 618.247ZM375.064 614.728C375.842 615.356 376.489 616.131 376.967 617.008C377.445 617.886 377.746 618.849 377.853 619.843C377.959 620.837 377.868 621.842 377.586 622.8C377.304 623.759 376.835 624.653 376.208 625.431C375.58 626.209 374.805 626.855 373.928 627.334C373.05 627.812 372.087 628.113 371.093 628.219C370.099 628.326 369.094 628.235 368.135 627.953C367.177 627.67 366.283 627.202 365.505 626.574C364.727 625.947 364.08 625.172 363.602 624.295C363.124 623.417 362.823 622.454 362.716 621.46C362.61 620.466 362.701 619.461 362.983 618.502C363.265 617.543 363.734 616.649 364.361 615.872C364.989 615.094 365.764 614.447 366.641 613.969C367.519 613.49 368.482 613.189 369.476 613.083C370.47 612.977 371.475 613.068 372.434 613.35C373.393 613.632 374.286 614.1 375.064 614.728ZM340.669 596.753C340.041 597.531 339.266 598.177 338.389 598.656C337.511 599.134 336.548 599.435 335.554 599.541C334.56 599.648 333.555 599.557 332.596 599.275C331.638 598.992 330.744 598.524 329.966 597.896C329.188 597.269 328.541 596.494 328.063 595.616C327.585 594.739 327.284 593.776 327.177 592.782C327.071 591.788 327.162 590.783 327.444 589.824C327.726 588.865 328.195 587.971 328.822 587.194C329.45 586.416 330.225 585.769 331.102 585.291C331.98 584.812 332.943 584.511 333.937 584.405C334.931 584.299 335.936 584.39 336.895 584.672C337.854 584.954 338.747 585.422 339.525 586.05C340.303 586.678 340.95 587.453 341.428 588.33C341.907 589.208 342.207 590.171 342.314 591.165C342.42 592.159 342.329 593.164 342.047 594.122C341.765 595.081 341.296 595.975 340.669 596.753Z" fill="white" fill-opacity="0.8"/>
<path d="M202.654 630.455L211.462 629.514C212.529 631.373 213.948 633.048 215.713 634.472C223.351 640.636 234.522 639.442 240.686 631.804C246.85 624.165 245.656 612.994 238.018 606.831C230.379 600.667 219.208 601.86 213.045 609.499C211.621 611.263 210.6 613.21 209.937 615.243L201.13 616.184L200.189 607.377C202.048 606.31 203.723 604.89 205.147 603.126C211.311 595.487 210.117 584.316 202.479 578.153C194.84 571.989 183.669 573.182 177.506 580.821C171.342 588.459 172.535 599.63 180.174 605.794C181.938 607.218 183.885 608.239 185.918 608.901L192.653 671.937C192.822 673.52 194.229 674.655 195.812 674.486C202.122 673.812 206.683 668.16 206.009 661.85L202.654 630.455ZM181.82 618.247L155.464 621.063C149.154 621.737 144.593 627.389 145.268 633.699C145.437 635.282 146.844 636.418 148.427 636.248L183.345 632.518L181.82 618.247ZM231.645 614.728C232.423 615.356 233.069 616.131 233.548 617.008C234.026 617.886 234.327 618.849 234.433 619.843C234.54 620.837 234.449 621.842 234.167 622.8C233.885 623.759 233.416 624.653 232.789 625.431C232.161 626.209 231.386 626.855 230.509 627.334C229.631 627.812 228.668 628.113 227.674 628.219C226.68 628.326 225.675 628.235 224.716 627.953C223.757 627.67 222.864 627.202 222.086 626.574C221.308 625.947 220.661 625.172 220.183 624.295C219.704 623.417 219.403 622.454 219.297 621.46C219.191 620.466 219.282 619.461 219.564 618.502C219.846 617.543 220.314 616.649 220.942 615.872C221.57 615.094 222.345 614.447 223.222 613.969C224.1 613.49 225.063 613.189 226.057 613.083C227.051 612.977 228.056 613.068 229.014 613.35C229.973 613.632 230.867 614.1 231.645 614.728ZM197.25 596.753C196.622 597.531 195.847 598.177 194.97 598.656C194.092 599.134 193.129 599.435 192.135 599.541C191.141 599.648 190.136 599.557 189.177 599.275C188.218 598.992 187.325 598.524 186.547 597.896C185.769 597.269 185.122 596.494 184.644 595.616C184.165 594.739 183.864 593.776 183.758 592.782C183.652 591.788 183.743 590.783 184.025 589.824C184.307 588.865 184.776 587.971 185.403 587.194C186.031 586.416 186.806 585.769 187.683 585.291C188.561 584.812 189.524 584.511 190.518 584.405C191.512 584.299 192.517 584.39 193.475 584.672C194.434 584.954 195.328 585.422 196.106 586.05C196.884 586.678 197.53 587.453 198.009 588.33C198.487 589.208 198.788 590.171 198.894 591.165C199.001 592.159 198.91 593.164 198.628 594.122C198.346 595.081 197.877 595.975 197.25 596.753Z" fill="white" fill-opacity="0.8"/>
<path d="M59.235 630.455L68.0425 629.514C69.1094 631.373 70.5287 633.048 72.2933 634.472C79.9318 640.636 91.1028 639.442 97.2666 631.804C103.43 624.165 102.237 612.994 94.5985 606.831C86.9601 600.667 75.789 601.86 69.6252 609.499C68.2012 611.263 67.1802 613.21 66.5178 615.243L57.7103 616.184L56.7693 607.377C58.6286 606.31 60.3037 604.89 61.7276 603.126C67.8914 595.487 66.6979 584.316 59.0595 578.153C51.4211 571.989 40.25 573.182 34.0862 580.821C27.9224 588.459 29.1159 599.63 36.7544 605.794C38.519 607.218 40.466 608.239 42.4988 608.901L49.2336 671.937C49.4027 673.52 50.8095 674.655 52.3926 674.486C58.7028 673.812 63.2634 668.16 62.5892 661.85L59.235 630.455ZM38.4006 618.247L12.0449 621.063C5.73465 621.737 1.17405 627.389 1.84824 633.699C2.01738 635.282 3.42413 636.418 5.00726 636.248L39.9253 632.518L38.4006 618.247ZM88.2256 614.728C89.0034 615.356 89.65 616.131 90.1284 617.008C90.6069 617.886 90.9078 618.849 91.014 619.843C91.1201 620.837 91.0295 621.842 90.7473 622.8C90.4651 623.759 89.9967 624.653 89.3691 625.431C88.7414 626.209 87.9667 626.855 87.0891 627.334C86.2115 627.812 85.2483 628.113 84.2545 628.219C83.2606 628.326 82.2556 628.235 81.2968 627.953C80.3379 627.67 79.4441 627.202 78.6662 626.574C77.8884 625.947 77.2418 625.172 76.7634 624.295C76.2849 623.417 75.984 622.454 75.8779 621.46C75.7717 620.466 75.8623 619.461 76.1445 618.502C76.4267 617.543 76.8951 616.649 77.5227 615.872C78.1504 615.094 78.9252 614.447 79.8027 613.969C80.6803 613.49 81.6435 613.189 82.6373 613.083C83.6312 612.977 84.6362 613.068 85.595 613.35C86.5539 613.632 87.4477 614.1 88.2256 614.728ZM53.8301 596.753C53.2024 597.531 52.4277 598.177 51.5501 598.656C50.6725 599.134 49.7093 599.435 48.7155 599.541C47.7216 599.648 46.7166 599.557 45.7578 599.275C44.7989 598.992 43.9051 598.524 43.1272 597.896C42.3494 597.269 41.7028 596.494 41.2244 595.616C40.7459 594.739 40.445 593.776 40.3389 592.782C40.2327 591.788 40.3233 590.783 40.6055 589.824C40.8877 588.865 41.3561 587.971 41.9837 587.194C42.6114 586.416 43.3862 585.769 44.2637 585.291C45.1413 584.812 46.1045 584.511 47.0983 584.405C48.0922 584.299 49.0972 584.39 50.0561 584.672C51.0149 584.954 51.9087 585.422 52.6866 586.05C53.4644 586.678 54.111 587.453 54.5894 588.33C55.0679 589.208 55.3688 590.171 55.475 591.165C55.5811 592.159 55.4905 593.164 55.2083 594.122C54.9261 595.081 54.4578 595.975 53.8301 596.753Z" fill="white" fill-opacity="0.8"/>
<path d="M44.1842 734.787L35.3767 735.728C34.3098 733.868 32.8905 732.193 31.1258 730.769C23.4874 724.605 12.3163 725.799 6.15256 733.437C-0.01122 741.076 1.1823 752.247 8.82072 758.411C16.4591 764.574 27.6302 763.381 33.794 755.742C35.2179 753.978 36.239 752.031 36.9014 749.998L45.7089 749.057L46.6499 757.865C44.7906 758.931 43.1155 760.351 41.6916 762.115C35.5278 769.754 36.7213 780.925 44.3597 787.089C51.9981 793.252 63.1692 792.059 69.333 784.42C75.4968 776.782 74.3033 765.611 66.6648 759.447C64.9002 758.023 62.9531 757.002 60.9203 756.34L54.1856 693.305C54.0165 691.721 52.6097 690.586 51.0266 690.755C44.7164 691.43 40.1558 697.081 40.83 703.392L44.1842 734.787ZM65.0186 746.994L91.3743 744.178C97.6845 743.504 102.245 737.852 101.571 731.542C101.402 729.959 99.9951 728.824 98.4119 728.993L63.4939 732.723L65.0186 746.994ZM15.1936 750.513C14.4158 749.885 13.7692 749.111 13.2907 748.233C12.8123 747.356 12.5114 746.392 12.4052 745.398C12.2991 744.405 12.3897 743.4 12.6719 742.441C12.9541 741.482 13.4224 740.588 14.0501 739.81C14.6778 739.032 15.4525 738.386 16.3301 737.907C17.2077 737.429 18.1709 737.128 19.1647 737.022C20.1586 736.916 21.1636 737.006 22.1224 737.289C23.0813 737.571 23.9751 738.039 24.753 738.667C25.5308 739.294 26.1774 740.069 26.6558 740.947C27.1342 741.824 27.4351 742.787 27.5413 743.781C27.6475 744.775 27.5569 745.78 27.2747 746.739C26.9924 747.698 26.5241 748.592 25.8964 749.37C25.2688 750.147 24.494 750.794 23.6165 751.272C22.7389 751.751 21.7757 752.052 20.7819 752.158C19.788 752.264 18.783 752.174 17.8241 751.891C16.8653 751.609 15.9715 751.141 15.1936 750.513ZM49.5891 768.488C50.2168 767.71 50.9915 767.064 51.8691 766.585C52.7466 766.107 53.7099 765.806 54.7037 765.7C55.6976 765.594 56.7026 765.684 57.6614 765.967C58.6202 766.249 59.5141 766.717 60.2919 767.345C61.0698 767.972 61.7164 768.747 62.1948 769.625C62.6732 770.502 62.9741 771.465 63.0803 772.459C63.1865 773.453 63.0959 774.458 62.8137 775.417C62.5314 776.376 62.0631 777.27 61.4354 778.048C60.8078 778.825 60.033 779.472 59.1555 779.95C58.2779 780.429 57.3147 780.73 56.3208 780.836C55.327 780.942 54.322 780.852 53.3631 780.569C52.4043 780.287 51.5104 779.819 50.7326 779.191C49.9548 778.563 49.3082 777.789 48.8297 776.911C48.3513 776.034 48.0504 775.07 47.9442 774.076C47.838 773.083 47.9287 772.078 48.2109 771.119C48.4931 770.16 48.9614 769.266 49.5891 768.488Z" fill="white" fill-opacity="0.8"/>
<path d="M187.603 734.787L178.796 735.728C177.729 733.868 176.31 732.193 174.545 730.769C166.907 724.605 155.736 725.799 149.572 733.437C143.408 741.076 144.601 752.247 152.24 758.411C159.878 764.574 171.049 763.381 177.213 755.742C178.637 753.978 179.658 752.031 180.321 749.998L189.128 749.057L190.069 757.865C188.21 758.931 186.535 760.351 185.111 762.115C178.947 769.754 180.14 780.925 187.779 787.089C195.417 793.252 206.588 792.059 212.752 784.42C218.916 776.782 217.722 765.611 210.084 759.447C208.319 758.023 206.372 757.002 204.34 756.34L197.605 693.305C197.436 691.721 196.029 690.586 194.446 690.755C188.136 691.43 183.575 697.081 184.249 703.392L187.603 734.787ZM208.438 746.994L234.794 744.178C241.104 743.504 245.664 737.852 244.99 731.542C244.821 729.959 243.414 728.824 241.831 728.993L206.913 732.723L208.438 746.994ZM158.613 750.513C157.835 749.885 157.188 749.111 156.71 748.233C156.232 747.356 155.931 746.392 155.824 745.398C155.718 744.405 155.809 743.4 156.091 742.441C156.373 741.482 156.842 740.588 157.469 739.81C158.097 739.032 158.872 738.386 159.749 737.907C160.627 737.429 161.59 737.128 162.584 737.022C163.578 736.916 164.583 737.006 165.542 737.289C166.5 737.571 167.394 738.039 168.172 738.667C168.95 739.294 169.597 740.069 170.075 740.947C170.553 741.824 170.854 742.787 170.961 743.781C171.067 744.775 170.976 745.78 170.694 746.739C170.412 747.698 169.943 748.592 169.316 749.37C168.688 750.147 167.913 750.794 167.036 751.272C166.158 751.751 165.195 752.052 164.201 752.158C163.207 752.264 162.202 752.174 161.243 751.891C160.284 751.609 159.391 751.141 158.613 750.513ZM193.008 768.488C193.636 767.71 194.411 767.064 195.288 766.585C196.166 766.107 197.129 765.806 198.123 765.7C199.117 765.594 200.122 765.684 201.081 765.967C202.039 766.249 202.933 766.717 203.711 767.345C204.489 767.972 205.136 768.747 205.614 769.625C206.092 770.502 206.393 771.465 206.5 772.459C206.606 773.453 206.515 774.458 206.233 775.417C205.951 776.376 205.482 777.27 204.855 778.048C204.227 778.825 203.452 779.472 202.575 779.95C201.697 780.429 200.734 780.73 199.74 780.836C198.746 780.942 197.741 780.852 196.782 780.569C195.823 780.287 194.93 779.819 194.152 779.191C193.374 778.563 192.727 777.789 192.249 776.911C191.77 776.034 191.47 775.07 191.363 774.076C191.257 773.083 191.348 772.078 191.63 771.119C191.912 770.16 192.381 769.266 193.008 768.488Z" fill="white" fill-opacity="0.8"/>
<path d="M331.023 734.787L322.215 735.728C321.148 733.868 319.729 732.193 317.964 730.769C310.326 724.605 299.155 725.799 292.991 733.437C286.827 741.076 288.021 752.247 295.659 758.411C303.298 764.574 314.469 763.381 320.632 755.742C322.056 753.978 323.077 752.031 323.74 749.998L332.547 749.057L333.488 757.865C331.629 758.931 329.954 760.351 328.53 762.115C322.366 769.754 323.56 780.925 331.198 787.089C338.837 793.252 350.008 792.059 356.171 784.42C362.335 776.782 361.142 765.611 353.503 759.447C351.739 758.023 349.792 757.002 347.759 756.34L341.024 693.305C340.855 691.721 339.448 690.586 337.865 690.755C331.555 691.43 326.994 697.081 327.668 703.392L331.023 734.787ZM351.857 746.994L378.213 744.178C384.523 743.504 389.084 737.852 388.409 731.542C388.24 729.959 386.833 728.824 385.25 728.993L350.332 732.723L351.857 746.994ZM302.032 750.513C301.254 749.885 300.608 749.111 300.129 748.233C299.651 747.356 299.35 746.392 299.244 745.398C299.137 744.405 299.228 743.4 299.51 742.441C299.792 741.482 300.261 740.588 300.888 739.81C301.516 739.032 302.291 738.386 303.168 737.907C304.046 737.429 305.009 737.128 306.003 737.022C306.997 736.916 308.002 737.006 308.961 737.289C309.92 737.571 310.813 738.039 311.591 738.667C312.369 739.294 313.016 740.069 313.494 740.947C313.973 741.824 314.274 742.787 314.38 743.781C314.486 744.775 314.395 745.78 314.113 746.739C313.831 747.698 313.363 748.592 312.735 749.37C312.107 750.147 311.332 750.794 310.455 751.272C309.577 751.751 308.614 752.052 307.62 752.158C306.626 752.264 305.621 752.174 304.663 751.891C303.704 751.609 302.81 751.141 302.032 750.513ZM336.427 768.488C337.055 767.71 337.83 767.064 338.707 766.585C339.585 766.107 340.548 765.806 341.542 765.7C342.536 765.594 343.541 765.684 344.5 765.967C345.459 766.249 346.352 766.717 347.13 767.345C347.908 767.972 348.555 768.747 349.033 769.625C349.512 770.502 349.813 771.465 349.919 772.459C350.025 773.453 349.934 774.458 349.652 775.417C349.37 776.376 348.901 777.27 348.274 778.048C347.646 778.825 346.871 779.472 345.994 779.95C345.116 780.429 344.153 780.73 343.159 780.836C342.165 780.942 341.16 780.852 340.202 780.569C339.243 780.287 338.349 779.819 337.571 779.191C336.793 778.563 336.147 777.789 335.668 776.911C335.19 776.034 334.889 775.07 334.783 774.076C334.676 773.083 334.767 772.078 335.049 771.119C335.331 770.16 335.8 769.266 336.427 768.488Z" fill="white" fill-opacity="0.8"/>
<path d="M346.074 33.4547L354.881 32.5137C355.948 34.373 357.367 36.0481 359.132 37.472C366.77 43.6358 377.941 42.4423 384.105 34.8039C390.269 27.1655 389.076 15.9944 381.437 9.83059C373.799 3.66681 362.628 4.86033 356.464 12.4987C355.04 14.2634 354.019 16.2104 353.356 18.2432L344.549 19.1842L343.608 10.3767C345.467 9.3098 347.142 7.89047 348.566 6.12586C354.73 -1.51256 353.537 -12.6836 345.898 -18.8474C338.26 -25.0112 327.089 -23.8177 320.925 -16.1793C314.761 -8.54085 315.955 2.63023 323.593 8.79401C325.358 10.218 327.305 11.239 329.337 11.9014L336.072 74.9366C336.241 76.5197 337.648 77.6549 339.231 77.4858C345.541 76.8116 350.102 71.1599 349.428 64.8497L346.074 33.4547ZM325.239 21.2473L298.883 24.0632C292.573 24.7373 288.013 30.389 288.687 36.6993C288.856 38.2824 290.263 39.4175 291.846 39.2484L326.764 35.5177L325.239 21.2473ZM375.064 17.7281C375.842 18.3558 376.489 19.1306 376.967 20.0081C377.445 20.8857 377.746 21.8489 377.853 22.8427C377.959 23.8366 377.868 24.8416 377.586 25.8005C377.304 26.7593 376.835 27.6531 376.208 28.431C375.58 29.2088 374.805 29.8554 373.928 30.3338C373.05 30.8123 372.087 31.1132 371.093 31.2194C370.099 31.3255 369.094 31.2349 368.135 30.9527C367.177 30.6705 366.283 30.2022 365.505 29.5745C364.727 28.9468 364.08 28.1721 363.602 27.2945C363.124 26.4169 362.823 25.4537 362.716 24.4599C362.61 23.466 362.701 22.461 362.983 21.5022C363.265 20.5433 363.734 19.6495 364.361 18.8716C364.989 18.0938 365.764 17.4472 366.641 16.9688C367.519 16.4903 368.482 16.1894 369.476 16.0833C370.47 15.9771 371.475 16.0677 372.434 16.3499C373.393 16.6321 374.286 17.1005 375.064 17.7281ZM340.669 -0.247037C340.041 0.530804 339.266 1.1774 338.389 1.65583C337.511 2.13426 336.548 2.43516 335.554 2.54134C334.56 2.64753 333.555 2.55692 332.596 2.27469C331.638 1.99246 330.744 1.52413 329.966 0.896459C329.188 0.268784 328.541 -0.505952 328.063 -1.38351C327.585 -2.26108 327.284 -3.22428 327.177 -4.21813C327.071 -5.21198 327.162 -6.21702 327.444 -7.17585C327.726 -8.13468 328.195 -9.02853 328.822 -9.80638C329.45 -10.5842 330.225 -11.2308 331.102 -11.7092C331.98 -12.1877 332.943 -12.4886 333.937 -12.5948C334.931 -12.7009 335.936 -12.6103 336.895 -12.3281C337.854 -12.0459 338.747 -11.5775 339.525 -10.9499C340.303 -10.3222 340.95 -9.54746 341.428 -8.6699C341.907 -7.79233 342.207 -6.82913 342.314 -5.83528C342.42 -4.84143 342.329 -3.8364 342.047 -2.87756C341.765 -1.91873 341.296 -1.02488 340.669 -0.247037Z" fill="white" fill-opacity="0.8"/>
<path d="M202.654 33.4547L211.462 32.5137C212.529 34.373 213.948 36.0481 215.713 37.472C223.351 43.6358 234.522 42.4423 240.686 34.8039C246.85 27.1655 245.656 15.9944 238.018 9.83059C230.379 3.66681 219.208 4.86033 213.045 12.4987C211.621 14.2634 210.6 16.2104 209.937 18.2432L201.13 19.1842L200.189 10.3767C202.048 9.3098 203.723 7.89047 205.147 6.12586C211.311 -1.51256 210.117 -12.6836 202.479 -18.8474C194.84 -25.0112 183.669 -23.8177 177.506 -16.1793C171.342 -8.54085 172.535 2.63023 180.174 8.79401C181.938 10.218 183.885 11.239 185.918 11.9014L192.653 74.9366C192.822 76.5197 194.229 77.6549 195.812 77.4858C202.122 76.8116 206.683 71.1599 206.009 64.8497L202.654 33.4547ZM181.82 21.2473L155.464 24.0632C149.154 24.7373 144.593 30.389 145.268 36.6993C145.437 38.2824 146.844 39.4175 148.427 39.2484L183.345 35.5177L181.82 21.2473ZM231.645 17.7281C232.423 18.3558 233.069 19.1306 233.548 20.0081C234.026 20.8857 234.327 21.8489 234.433 22.8427C234.54 23.8366 234.449 24.8416 234.167 25.8005C233.885 26.7593 233.416 27.6531 232.789 28.431C232.161 29.2088 231.386 29.8554 230.509 30.3338C229.631 30.8123 228.668 31.1132 227.674 31.2194C226.68 31.3255 225.675 31.2349 224.716 30.9527C223.757 30.6705 222.864 30.2022 222.086 29.5745C221.308 28.9468 220.661 28.1721 220.183 27.2945C219.704 26.4169 219.403 25.4537 219.297 24.4599C219.191 23.466 219.282 22.461 219.564 21.5022C219.846 20.5433 220.315 19.6495 220.942 18.8716C221.57 18.0938 222.345 17.4472 223.222 16.9688C224.1 16.4903 225.063 16.1894 226.057 16.0833C227.051 15.9771 228.056 16.0677 229.014 16.3499C229.973 16.6321 230.867 17.1005 231.645 17.7281ZM197.25 -0.247037C196.622 0.530804 195.847 1.1774 194.97 1.65583C194.092 2.13426 193.129 2.43516 192.135 2.54134C191.141 2.64753 190.136 2.55692 189.177 2.27469C188.218 1.99246 187.325 1.52413 186.547 0.896459C185.769 0.268784 185.122 -0.505952 184.644 -1.38351C184.165 -2.26108 183.864 -3.22428 183.758 -4.21813C183.652 -5.21198 183.743 -6.21702 184.025 -7.17585C184.307 -8.13468 184.776 -9.02853 185.403 -9.80638C186.031 -10.5842 186.806 -11.2308 187.683 -11.7092C188.561 -12.1877 189.524 -12.4886 190.518 -12.5948C191.512 -12.7009 192.517 -12.6103 193.475 -12.3281C194.434 -12.0459 195.328 -11.5775 196.106 -10.9499C196.884 -10.3222 197.53 -9.54746 198.009 -8.6699C198.487 -7.79233 198.788 -6.82913 198.894 -5.83528C199.001 -4.84143 198.91 -3.8364 198.628 -2.87756C198.346 -1.91873 197.877 -1.02488 197.25 -0.247037Z" fill="white" fill-opacity="0.8"/>
<path d="M59.2352 33.4547L68.0427 32.5137C69.1096 34.373 70.529 36.0481 72.2936 37.472C79.932 43.6358 91.1031 42.4423 97.2669 34.8039C103.431 27.1655 102.237 15.9944 94.5987 9.83059C86.9603 3.66681 75.7892 4.86033 69.6254 12.4987C68.2015 14.2634 67.1804 16.2104 66.5181 18.2432L57.7105 19.1842L56.7695 10.3767C58.6289 9.3098 60.3039 7.89047 61.7279 6.12586C67.8917 -1.51256 66.6981 -12.6836 59.0597 -18.8474C51.4213 -25.0112 40.2502 -23.8177 34.0864 -16.1793C27.9227 -8.54085 29.1162 2.63023 36.7546 8.79401C38.5192 10.218 40.4663 11.239 42.4991 11.9014L49.2338 74.9366C49.4029 76.5197 50.8097 77.6549 52.3928 77.4858C58.703 76.8116 63.2636 71.1599 62.5895 64.8497L59.2352 33.4547ZM38.4008 21.2473L12.0451 24.0632C5.7349 24.7373 1.17429 30.389 1.84848 36.6993C2.01762 38.2824 3.42437 39.4175 5.0075 39.2484L39.9255 35.5177L38.4008 21.2473ZM88.2258 17.7281C89.0037 18.3558 89.6503 19.1306 90.1287 20.0081C90.6071 20.8857 90.908 21.8489 91.0142 22.8427C91.1204 23.8366 91.0298 24.8416 90.7475 25.8005C90.4653 26.7593 89.997 27.6531 89.3693 28.431C88.7416 29.2088 87.9669 29.8554 87.0893 30.3338C86.2118 30.8123 85.2486 31.1132 84.2547 31.2194C83.2609 31.3255 82.2558 31.2349 81.297 30.9527C80.3382 30.6705 79.4443 30.2022 78.6665 29.5745C77.8886 28.9468 77.242 28.1721 76.7636 27.2945C76.2852 26.4169 75.9843 25.4537 75.8781 24.4599C75.7719 23.466 75.8625 22.461 76.1448 21.5022C76.427 20.5433 76.8953 19.6495 77.523 18.8716C78.1507 18.0938 78.9254 17.4472 79.803 16.9688C80.6805 16.4903 81.6437 16.1894 82.6376 16.0833C83.6314 15.9771 84.6365 16.0677 85.5953 16.3499C86.5541 16.6321 87.448 17.1005 88.2258 17.7281ZM53.8303 -0.247037C53.2027 0.530804 52.4279 1.1774 51.5504 1.65583C50.6728 2.13426 49.7096 2.43516 48.7157 2.54134C47.7219 2.64753 46.7169 2.55692 45.758 2.27469C44.7992 1.99246 43.9053 1.52413 43.1275 0.896459C42.3497 0.268784 41.7031 -0.505952 41.2246 -1.38351C40.7462 -2.26108 40.4453 -3.22428 40.3391 -4.21813C40.2329 -5.21198 40.3235 -6.21702 40.6058 -7.17585C40.888 -8.13468 41.3563 -9.02853 41.984 -9.80638C42.6117 -10.5842 43.3864 -11.2308 44.264 -11.7092C45.1415 -12.1877 46.1047 -12.4886 47.0986 -12.5948C48.0924 -12.7009 49.0975 -12.6103 50.0563 -12.3281C51.0151 -12.0459 51.909 -11.5775 52.6868 -10.9499C53.4647 -10.3222 54.1113 -9.54746 54.5897 -8.6699C55.0681 -7.79233 55.369 -6.82913 55.4752 -5.83528C55.5814 -4.84143 55.4908 -3.8364 55.2086 -2.87756C54.9263 -1.91873 54.458 -1.02488 53.8303 -0.247037Z" fill="white" fill-opacity="0.8"/>
</svg>
