<svg width="817" height="346" viewBox="0 0 817 346" fill="none" xmlns="http://www.w3.org/2000/svg">
<path d="M5.78125 79.125H25.8984C30.2214 79.125 33.9062 79.776 36.9531 81.0781C40 82.3802 42.3307 84.3073 43.9453 86.8594C45.5859 89.3854 46.4062 92.5104 46.4062 96.2344C46.4062 99.0729 45.8854 101.573 44.8438 103.734C43.8021 105.896 42.3307 107.719 40.4297 109.203C38.5286 110.661 36.263 111.794 33.6328 112.602L30.6641 114.047H12.5781L12.5 106.273H26.0547C28.3984 106.273 30.3516 105.857 31.9141 105.023C33.4766 104.19 34.6484 103.057 35.4297 101.625C36.237 100.167 36.6406 98.526 36.6406 96.7031C36.6406 94.724 36.25 93.0052 35.4688 91.5469C34.7135 90.0625 33.5417 88.9297 31.9531 88.1484C30.3646 87.3411 28.3464 86.9375 25.8984 86.9375H15.5859V136H5.78125V79.125ZM38.2422 136L24.8828 110.453L35.1562 110.414L48.7109 135.492V136H38.2422ZM85.4625 127.523V107.367C85.4625 105.857 85.1891 104.555 84.6422 103.461C84.0953 102.367 83.262 101.521 82.1422 100.922C81.0484 100.323 79.6682 100.023 78.0016 100.023C76.4651 100.023 75.137 100.284 74.0172 100.805C72.8974 101.326 72.025 102.029 71.4 102.914C70.775 103.799 70.4625 104.802 70.4625 105.922H61.0875C61.0875 104.255 61.4911 102.641 62.2984 101.078C63.1057 99.5156 64.2776 98.1224 65.8141 96.8984C67.3505 95.6745 69.1865 94.7109 71.3219 94.0078C73.4573 93.3047 75.8531 92.9531 78.5094 92.9531C81.6865 92.9531 84.499 93.487 86.9469 94.5547C89.4208 95.6224 91.3609 97.237 92.7672 99.3984C94.1995 101.534 94.9156 104.216 94.9156 107.445V126.234C94.9156 128.161 95.0458 129.893 95.3063 131.43C95.5927 132.94 95.9964 134.255 96.5172 135.375V136H86.8688C86.426 134.984 86.0745 133.695 85.8141 132.133C85.5797 130.544 85.4625 129.008 85.4625 127.523ZM86.8297 110.297L86.9078 116.117H80.15C78.4052 116.117 76.8688 116.286 75.5406 116.625C74.2125 116.938 73.1057 117.406 72.2203 118.031C71.3349 118.656 70.6708 119.411 70.2281 120.297C69.7854 121.182 69.5641 122.185 69.5641 123.305C69.5641 124.424 69.8245 125.453 70.3453 126.391C70.8661 127.302 71.6214 128.018 72.6109 128.539C73.6266 129.06 74.8505 129.32 76.2828 129.32C78.2099 129.32 79.8896 128.93 81.3219 128.148C82.7802 127.341 83.926 126.365 84.7594 125.219C85.5927 124.047 86.0354 122.94 86.0875 121.898L89.1344 126.078C88.8219 127.146 88.288 128.292 87.5328 129.516C86.7776 130.74 85.788 131.911 84.5641 133.031C83.3661 134.125 81.9208 135.023 80.2281 135.727C78.5615 136.43 76.6344 136.781 74.4469 136.781C71.6865 136.781 69.2255 136.234 67.0641 135.141C64.9026 134.021 63.2099 132.523 61.9859 130.648C60.762 128.747 60.15 126.599 60.15 124.203C60.15 121.964 60.5667 119.984 61.4 118.266C62.2594 116.521 63.5094 115.062 65.15 113.891C66.8167 112.719 68.8479 111.833 71.2438 111.234C73.6396 110.609 76.374 110.297 79.4469 110.297H86.8297ZM122.8 131.391L134.284 93.7344H144.363L127.409 142.445C127.019 143.487 126.511 144.62 125.886 145.844C125.261 147.068 124.441 148.227 123.425 149.32C122.435 150.44 121.198 151.339 119.714 152.016C118.23 152.719 116.433 153.07 114.323 153.07C113.49 153.07 112.683 152.992 111.902 152.836C111.146 152.706 110.43 152.562 109.753 152.406L109.714 145.219C109.974 145.245 110.287 145.271 110.652 145.297C111.042 145.323 111.355 145.336 111.589 145.336C113.152 145.336 114.454 145.141 115.495 144.75C116.537 144.385 117.383 143.786 118.034 142.953C118.711 142.12 119.284 141 119.753 139.594L122.8 131.391ZM116.316 93.7344L126.355 125.375L128.034 135.297L121.511 136.977L106.159 93.7344H116.316ZM213.334 121.352C213.334 120.18 213.152 119.138 212.788 118.227C212.449 117.315 211.837 116.482 210.952 115.727C210.066 114.971 208.816 114.242 207.202 113.539C205.613 112.81 203.582 112.068 201.108 111.312C198.399 110.479 195.899 109.555 193.608 108.539C191.342 107.497 189.363 106.299 187.67 104.945C185.978 103.565 184.663 101.99 183.725 100.219C182.788 98.4219 182.319 96.3516 182.319 94.0078C182.319 91.6901 182.801 89.5807 183.764 87.6797C184.754 85.7786 186.147 84.138 187.944 82.7578C189.767 81.3516 191.915 80.2708 194.389 79.5156C196.863 78.7344 199.597 78.3438 202.592 78.3438C206.811 78.3438 210.444 79.125 213.491 80.6875C216.564 82.25 218.92 84.3464 220.561 86.9766C222.228 89.6068 223.061 92.5104 223.061 95.6875H213.334C213.334 93.8125 212.931 92.1589 212.123 90.7266C211.342 89.2682 210.144 88.1224 208.53 87.2891C206.941 86.4557 204.923 86.0391 202.475 86.0391C200.157 86.0391 198.23 86.3906 196.694 87.0938C195.157 87.7969 194.011 88.7474 193.256 89.9453C192.501 91.1432 192.123 92.4974 192.123 94.0078C192.123 95.0755 192.371 96.0521 192.866 96.9375C193.36 97.7969 194.116 98.6042 195.131 99.3594C196.147 100.089 197.423 100.779 198.959 101.43C200.496 102.081 202.306 102.706 204.389 103.305C207.54 104.242 210.288 105.284 212.631 106.43C214.975 107.549 216.928 108.826 218.491 110.258C220.053 111.69 221.225 113.318 222.006 115.141C222.788 116.938 223.178 118.982 223.178 121.273C223.178 123.669 222.696 125.831 221.733 127.758C220.769 129.659 219.389 131.286 217.592 132.641C215.821 133.969 213.686 134.997 211.186 135.727C208.712 136.43 205.952 136.781 202.905 136.781C200.17 136.781 197.475 136.417 194.819 135.688C192.189 134.958 189.793 133.852 187.631 132.367C185.47 130.857 183.751 128.982 182.475 126.742C181.199 124.477 180.561 121.833 180.561 118.812H190.366C190.366 120.661 190.678 122.237 191.303 123.539C191.954 124.841 192.853 125.909 193.998 126.742C195.144 127.549 196.472 128.148 197.983 128.539C199.519 128.93 201.16 129.125 202.905 129.125C205.196 129.125 207.11 128.799 208.647 128.148C210.209 127.497 211.381 126.586 212.163 125.414C212.944 124.242 213.334 122.888 213.334 121.352ZM260.398 86.7031L243.406 136H233.133L254.539 79.125H261.102L260.398 86.7031ZM274.617 136L257.586 86.7031L256.844 79.125H263.445L284.93 136H274.617ZM273.797 114.906V122.68H242.859V114.906H273.797ZM333.322 128.227V136H304.767V128.227H333.322ZM307.502 79.125V136H297.697V79.125H307.502ZM390.073 106V109.125C390.073 113.422 389.514 117.276 388.394 120.688C387.274 124.099 385.672 127.003 383.589 129.398C381.532 131.794 379.058 133.63 376.167 134.906C373.277 136.156 370.073 136.781 366.558 136.781C363.068 136.781 359.878 136.156 356.987 134.906C354.123 133.63 351.636 131.794 349.527 129.398C347.417 127.003 345.777 124.099 344.605 120.688C343.459 117.276 342.886 113.422 342.886 109.125V106C342.886 101.703 343.459 97.862 344.605 94.4766C345.751 91.0651 347.365 88.1615 349.448 85.7656C351.558 83.3438 354.045 81.5078 356.909 80.2578C359.8 78.9818 362.99 78.3438 366.48 78.3438C369.995 78.3438 373.198 78.9818 376.089 80.2578C378.98 81.5078 381.467 83.3438 383.55 85.7656C385.633 88.1615 387.235 91.0651 388.355 94.4766C389.501 97.862 390.073 101.703 390.073 106ZM380.269 109.125V105.922C380.269 102.745 379.956 99.9453 379.331 97.5234C378.732 95.0755 377.834 93.0312 376.636 91.3906C375.464 89.724 374.019 88.474 372.3 87.6406C370.581 86.7812 368.641 86.3516 366.48 86.3516C364.318 86.3516 362.391 86.7812 360.698 87.6406C359.006 88.474 357.56 89.724 356.362 91.3906C355.191 93.0312 354.292 95.0755 353.667 97.5234C353.042 99.9453 352.73 102.745 352.73 105.922V109.125C352.73 112.302 353.042 115.115 353.667 117.562C354.292 120.01 355.204 122.081 356.402 123.773C357.626 125.44 359.084 126.703 360.777 127.562C362.469 128.396 364.396 128.812 366.558 128.812C368.745 128.812 370.685 128.396 372.378 127.562C374.071 126.703 375.503 125.44 376.675 123.773C377.847 122.081 378.732 120.01 379.331 117.562C379.956 115.115 380.269 112.302 380.269 109.125ZM451.395 79.125V136H441.591L416.083 95.2578V136H406.278V79.125H416.083L441.669 119.945V79.125H451.395ZM499.781 79.125H508.531L524.977 122.992L541.383 79.125H550.133L528.414 136H521.461L499.781 79.125ZM495.797 79.125H504.117L505.562 117.094V136H495.797V79.125ZM545.797 79.125H554.156V136H544.352V117.094L545.797 79.125ZM617.548 106V109.125C617.548 113.422 616.989 117.276 615.869 120.688C614.749 124.099 613.147 127.003 611.064 129.398C609.007 131.794 606.533 133.63 603.642 134.906C600.752 136.156 597.548 136.781 594.033 136.781C590.543 136.781 587.353 136.156 584.463 134.906C581.598 133.63 579.111 131.794 577.002 129.398C574.892 127.003 573.252 124.099 572.08 120.688C570.934 117.276 570.361 113.422 570.361 109.125V106C570.361 101.703 570.934 97.862 572.08 94.4766C573.226 91.0651 574.84 88.1615 576.923 85.7656C579.033 83.3438 581.52 81.5078 584.384 80.2578C587.275 78.9818 590.465 78.3438 593.955 78.3438C597.47 78.3438 600.673 78.9818 603.564 80.2578C606.455 81.5078 608.942 83.3438 611.025 85.7656C613.108 88.1615 614.71 91.0651 615.83 94.4766C616.976 97.862 617.548 101.703 617.548 106ZM607.744 109.125V105.922C607.744 102.745 607.431 99.9453 606.806 97.5234C606.207 95.0755 605.309 93.0312 604.111 91.3906C602.939 89.724 601.494 88.474 599.775 87.6406C598.056 86.7812 596.116 86.3516 593.955 86.3516C591.793 86.3516 589.866 86.7812 588.173 87.6406C586.481 88.474 585.035 89.724 583.838 91.3906C582.666 93.0312 581.767 95.0755 581.142 97.5234C580.517 99.9453 580.205 102.745 580.205 105.922V109.125C580.205 112.302 580.517 115.115 581.142 117.562C581.767 120.01 582.679 122.081 583.877 123.773C585.101 125.44 586.559 126.703 588.252 127.562C589.944 128.396 591.871 128.812 594.033 128.812C596.22 128.812 598.16 128.396 599.853 127.562C601.546 126.703 602.978 125.44 604.15 123.773C605.322 122.081 606.207 120.01 606.806 117.562C607.431 115.115 607.744 112.302 607.744 109.125ZM633.753 79.125H653.87C658.193 79.125 661.878 79.776 664.925 81.0781C667.972 82.3802 670.303 84.3073 671.917 86.8594C673.558 89.3854 674.378 92.5104 674.378 96.2344C674.378 99.0729 673.857 101.573 672.816 103.734C671.774 105.896 670.303 107.719 668.402 109.203C666.501 110.661 664.235 111.794 661.605 112.602L658.636 114.047H640.55L640.472 106.273H654.027C656.37 106.273 658.323 105.857 659.886 105.023C661.448 104.19 662.62 103.057 663.402 101.625C664.209 100.167 664.612 98.526 664.612 96.7031C664.612 94.724 664.222 93.0052 663.441 91.5469C662.685 90.0625 661.514 88.9297 659.925 88.1484C658.336 87.3411 656.318 86.9375 653.87 86.9375H643.558V136H633.753V79.125ZM666.214 136L652.855 110.453L663.128 110.414L676.683 135.492V136H666.214ZM701.013 79.125V136H691.208V79.125H701.013ZM723.936 79.125L737.139 106.273L750.342 79.125H761.202L742.061 115.062V136H732.178V115.062L713.037 79.125H723.936ZM791.508 86.7031L774.516 136H764.242L785.648 79.125H792.211L791.508 86.7031ZM805.727 136L788.695 86.7031L787.953 79.125H794.555L816.039 136H805.727ZM804.906 114.906V122.68H773.969V114.906H804.906Z" fill="#212121"/>
<path d="M14.904 240.316H18.54V250.18H14.904V240.316ZM9.864 243.988H23.688V247.084H9.864V243.988ZM23.544 245.644H32.292V249.352H23.544V245.644ZM10.188 261.124H23.4V264.256H10.188V261.124ZM21.636 238.372L23.76 241.432C19.98 242.26 14.868 242.764 10.62 242.944C10.512 242.116 10.08 240.856 9.72 240.028C13.788 239.668 18.612 239.092 21.636 238.372ZM9.396 266.848C12.96 266.596 18.288 266.164 23.472 265.696L23.508 268.828C18.72 269.44 13.716 269.944 9.936 270.376L9.396 266.848ZM30.96 245.644H34.596C34.596 245.644 34.56 246.904 34.56 247.408C34.272 262.456 34.092 267.748 33.084 269.26C32.4 270.34 31.752 270.7 30.744 270.88C29.844 271.06 28.548 271.096 27.18 271.024C27.108 269.944 26.748 268.324 26.208 267.316C27.288 267.388 28.224 267.424 28.8 267.424C29.268 267.424 29.556 267.316 29.844 266.776C30.492 265.768 30.744 260.908 30.96 246.508V245.644ZM12.996 255.22V256.84H20.484V255.22H12.996ZM12.996 251.26V252.844H20.484V251.26H12.996ZM10.26 248.668H23.364V259.432H10.26V248.668ZM15.228 249.532H18.144V258.46H18.504V267.316H14.868V258.46H15.228V249.532ZM25.416 237.544H29.088V250.072C29.088 256.948 28.404 265.696 23.472 271.384C22.788 270.7 21.384 269.62 20.448 269.116C24.912 263.932 25.416 255.976 25.416 250.072V237.544ZM6.804 237.544L10.656 238.624C8.82 244.852 5.832 251.584 2.412 255.904C2.124 254.86 1.116 252.376 0.468 251.224C3.096 247.84 5.436 242.692 6.804 237.544ZM4.392 247.444L8.208 243.628L8.244 243.664V271.312H4.392V247.444ZM44.784 242.188C50.04 242.8 54.432 242.872 58.248 242.584C61.524 242.368 64.476 241.792 67.464 240.856L68.04 244.96C65.448 245.68 62.316 246.292 59.184 246.508C55.476 246.796 50.508 246.832 45.036 246.292L44.784 242.188ZM44.136 249.712C50.616 250.36 56.448 250.252 60.768 249.82C64.656 249.496 67.356 248.776 69.444 248.164L70.164 252.412C68.004 252.952 65.34 253.456 62.424 253.78C57.888 254.284 50.868 254.392 44.388 253.96L44.136 249.712ZM56.16 243.196C55.8 241.864 55.368 240.532 54.864 239.128L59.688 238.588C60.12 242.044 61.02 245.212 61.956 247.984C62.82 250.504 64.584 254.212 66.24 256.732C66.744 257.452 67.212 257.992 67.86 258.604L65.7 261.916C63.684 261.484 59.76 261.052 57.132 260.764L57.492 257.308C59.004 257.452 60.984 257.632 62.028 257.74C60.12 254.536 58.788 251.404 57.888 248.776C56.988 246.22 56.628 244.924 56.16 243.196ZM51.048 258.1C50.184 259.288 49.428 260.512 49.428 262.06C49.428 264.724 51.948 265.804 56.736 265.804C60.12 265.804 63.18 265.552 65.772 265.048L65.52 269.62C63 270.016 59.688 270.268 56.736 270.268C49.572 270.268 45.108 268.144 45 263.032C44.964 260.692 45.72 258.928 46.584 257.236L51.048 258.1ZM96.696 245.104C95.436 243.808 92.952 241.396 91.548 240.316L94.86 238.012C96.12 239.02 98.82 241.324 100.08 242.656L96.696 245.104ZM86.904 241.252C87.192 241.936 87.912 243.412 88.308 244.096C89.784 246.868 91.404 250.432 92.7 253.456C94.392 257.38 97.2 265.048 98.388 269.116L93.42 270.376C92.304 265.84 90.432 259.756 88.596 255.436C87.156 252.088 85.824 248.812 84.348 246.22C83.808 245.356 82.944 243.988 82.224 243.088L86.904 241.252ZM79.128 251.8C80.532 251.476 82.08 250.9 82.692 250.648C89.244 248.092 96.624 243.88 102.42 243.88C107.964 243.88 111.348 247.264 111.348 251.44C111.348 256.48 107.892 259.648 102.384 259.648C100.404 259.648 98.172 259.144 96.804 258.64L96.948 254.14C98.568 254.824 100.368 255.328 101.916 255.328C104.616 255.328 106.596 253.852 106.596 251.26C106.596 249.46 105.012 247.948 102.312 247.948C96.48 247.948 85.68 254.392 81.216 256.408L79.128 251.8ZM140.148 238.984C140.04 239.596 139.932 241.504 139.896 242.08C139.788 244.456 139.86 251.8 139.896 254.68L135.396 253.168C135.396 250.936 135.396 244.024 135.252 242.116C135.144 240.676 135 239.452 134.928 238.984H140.148ZM119.772 243.484C125.136 243.484 134.64 243.196 139.14 243.196C142.812 243.196 148.284 243.16 150.3 243.196L150.228 247.444C147.996 247.336 144.324 247.228 139.032 247.228C132.48 247.228 125.316 247.516 119.88 247.804L119.772 243.484ZM139.284 254.14C139.284 260.008 137.124 262.924 132.984 262.924C130.212 262.924 126.756 260.728 126.756 256.336C126.756 252.268 130.068 249.604 133.956 249.604C138.708 249.604 141.192 253.096 141.192 257.56C141.192 262.276 138.42 268.216 129.636 270.7L125.82 266.884C131.94 265.552 136.728 263.14 136.728 256.84C136.728 254.5 135.468 253.384 133.884 253.384C132.48 253.384 131.076 254.356 131.076 256.264C131.076 257.884 132.408 258.928 133.884 258.928C135.576 258.928 137.052 257.488 135.9 253.204L139.284 254.14ZM164.844 242.296C164.592 243.556 164.412 245.68 164.412 246.688C164.412 249.028 164.412 251.692 164.628 254.32C165.132 259.504 166.212 263.068 168.48 263.068C170.208 263.068 171.612 258.82 172.296 255.976L175.932 260.332C173.52 266.632 171.288 268.792 168.408 268.792C164.412 268.792 160.992 265.264 159.984 255.616C159.624 252.304 159.588 248.056 159.588 245.86C159.588 244.888 159.552 243.34 159.3 242.224L164.844 242.296ZM182.844 243.088C186.264 247.228 189.036 256.228 189.432 261.736L184.68 263.608C184.14 257.776 182.196 249.064 178.272 244.6L182.844 243.088ZM195.696 239.992H207.324V243.772H195.696V239.992ZM196.02 250.36H206.82V254.176H196.02V250.36ZM206.892 247.876H229.212V251.296H206.892V247.876ZM195.192 262.312C198.36 261.628 203.076 260.44 207.576 259.252L208.08 263.104C203.976 264.256 199.548 265.444 196.092 266.38L195.192 262.312ZM212.868 255.688V257.992H223.236V255.688H212.868ZM209.088 252.628H227.232V261.088H209.088V252.628ZM221.94 241.468V243.808H224.244V241.468H221.94ZM216.9 241.468V243.808H219.168V241.468H216.9ZM211.968 241.468V243.808H214.164V241.468H211.968ZM208.512 238.588H227.844V246.688H208.512V238.588ZM219.348 259.432C221.112 263.212 224.748 266.488 229.32 267.892C228.42 268.684 227.196 270.232 226.62 271.276C221.868 269.296 218.268 265.228 216.252 260.332L219.348 259.432ZM225.756 260.98L228.708 263.176C227.268 264.256 225.612 265.336 224.352 266.02L221.904 264.076C223.092 263.32 224.784 261.916 225.756 260.98ZM199.692 241.648H203.58V262.6L199.692 263.248V241.648ZM217.332 258.856L220.356 260.224C217.224 264.076 211.824 267.64 206.964 269.512C206.424 268.612 205.308 267.208 204.48 266.452C209.232 264.976 214.596 261.952 217.332 258.856ZM213.768 263.932L217.836 261.196V271.24H213.768V263.932ZM246.708 239.704H267.372V243.052H246.708V239.704ZM245.916 245.824H268.02V249.316H245.916V245.824ZM254.556 237.544H258.804V241.972H254.556V237.544ZM259.992 242.404L264.204 243.196C263.52 244.528 262.944 245.68 262.476 246.508L258.732 245.752C259.2 244.78 259.74 243.376 259.992 242.404ZM249.804 243.304L253.512 242.548C254.088 243.448 254.592 244.78 254.808 245.68L250.884 246.616C250.776 245.716 250.272 244.348 249.804 243.304ZM251.964 257.668V259.504H262.116V257.668H251.964ZM251.964 253.384V255.184H262.116V253.384H251.964ZM247.932 250.72H266.328V262.168H247.932V250.72ZM257.832 261.34H261.936V266.38C261.936 267.28 262.044 267.424 262.656 267.424C262.908 267.424 263.952 267.424 264.312 267.424C264.888 267.424 265.032 267.028 265.14 264.292C265.896 264.904 267.624 265.588 268.704 265.804C268.308 270.016 267.3 271.06 264.78 271.06C264.096 271.06 262.584 271.06 261.936 271.06C258.552 271.06 257.832 269.872 257.832 266.452V261.34ZM251.244 261.196H255.456C254.736 266.056 252.9 269.44 245.448 271.348C245.052 270.304 243.936 268.54 243.108 267.712C249.408 266.488 250.668 264.4 251.244 261.196ZM234.864 246.004H245.736V250.072H234.864V246.004ZM238.464 237.94H242.46V261.844H238.464V237.94ZM234.072 261.484C237.024 260.476 241.56 258.568 245.808 256.732L246.78 260.584C242.964 262.42 238.824 264.292 235.548 265.804L234.072 261.484ZM273.42 248.848C274.752 248.596 276.552 248.092 277.884 247.732C280.656 246.868 287.964 244.276 293.256 244.276C299.772 244.276 304.884 248.02 304.884 254.68C304.884 262.852 297.108 268.072 284.4 268.72L282.348 263.932C292.032 263.716 299.7 260.908 299.7 254.608C299.7 251.224 297.396 248.632 293.076 248.632C287.748 248.632 279.252 252.232 275.472 253.852L273.42 248.848ZM299.844 239.056C300.744 240.388 302.04 242.692 302.724 244.024L299.808 245.248C299.088 243.772 297.972 241.648 297 240.244L299.844 239.056ZM304.092 237.436C305.064 238.804 306.396 241.072 307.008 242.368L304.164 243.592C303.408 242.08 302.256 239.992 301.248 238.624L304.092 237.436ZM337.464 242.08C336.312 242.908 335.124 243.844 334.296 244.528C331.956 246.4 327.204 250.072 324.792 252.16C322.884 253.78 322.92 254.212 324.864 255.904C327.564 258.172 334.404 263.536 338.076 267.1L333.9 270.988C332.892 269.836 331.812 268.72 330.732 267.64C328.572 265.372 323.28 260.836 319.968 258.064C316.404 255.004 316.692 253.06 320.292 250.072C323.1 247.768 328.068 243.772 330.48 241.396C331.524 240.388 332.676 239.2 333.252 238.336L337.464 242.08ZM362.916 239.092C362.412 240.856 361.656 244.564 361.44 246.58C363.168 243.808 366.336 240.748 370.368 240.748C375.372 240.748 379.26 245.68 379.26 253.6C379.26 263.788 373.032 268.612 363.492 270.376L360.756 266.2C368.784 264.976 374.4 262.312 374.4 253.6C374.4 248.056 372.528 244.96 369.54 244.96C365.292 244.96 361.548 251.368 361.404 256.084C361.332 257.092 361.368 258.244 361.548 259.9L357.12 260.224C356.904 258.82 356.688 256.624 356.688 254.212C356.688 250.828 357.156 246.4 357.696 242.656C357.84 241.324 357.948 239.884 357.984 238.912L362.916 239.092ZM406.296 239.128C406.008 240.46 405.54 242.584 404.532 245.176C403.776 246.94 402.732 248.992 401.724 250.432C402.696 250 404.604 249.748 405.828 249.748C408.816 249.748 411.084 251.512 411.084 254.86C411.084 256.804 411.192 260.728 411.228 262.996H406.908C407.052 261.304 407.124 258.244 407.088 256.3C407.088 253.996 405.648 253.24 404.136 253.24C402.156 253.24 399.888 254.428 398.52 255.724C397.44 256.804 396.432 258.1 395.208 259.684L391.356 256.804C395.964 252.556 398.736 248.668 400.248 244.708C400.968 242.764 401.436 240.568 401.544 238.732L406.296 239.128ZM392.724 242.476C394.56 242.728 397.224 242.872 399.06 242.872C403.812 242.872 410.328 242.62 415.548 241.684L415.512 245.86C410.436 246.58 403.2 246.904 398.808 246.904C397.332 246.904 394.704 246.832 392.724 246.652V242.476ZM421.236 252.7C420.12 253.024 418.176 253.744 416.952 254.212C414.612 255.112 411.372 256.408 407.988 258.136C404.712 259.828 402.948 261.376 402.948 263.356C402.948 265.336 404.676 265.876 408.168 265.876C411.228 265.876 415.26 265.48 418.428 264.832L418.284 269.476C415.872 269.8 411.48 270.124 408.06 270.124C402.444 270.124 398.232 268.72 398.232 264.076C398.232 259.072 403.38 256.12 407.7 253.96C411.012 252.232 413.28 251.368 415.44 250.36C416.844 249.748 418.104 249.172 419.472 248.488L421.236 252.7ZM14.904 300.316H18.54V310.18H14.904V300.316ZM9.864 303.988H23.688V307.084H9.864V303.988ZM23.544 305.644H32.292V309.352H23.544V305.644ZM10.188 321.124H23.4V324.256H10.188V321.124ZM21.636 298.372L23.76 301.432C19.98 302.26 14.868 302.764 10.62 302.944C10.512 302.116 10.08 300.856 9.72 300.028C13.788 299.668 18.612 299.092 21.636 298.372ZM9.396 326.848C12.96 326.596 18.288 326.164 23.472 325.696L23.508 328.828C18.72 329.44 13.716 329.944 9.936 330.376L9.396 326.848ZM30.96 305.644H34.596C34.596 305.644 34.56 306.904 34.56 307.408C34.272 322.456 34.092 327.748 33.084 329.26C32.4 330.34 31.752 330.7 30.744 330.88C29.844 331.06 28.548 331.096 27.18 331.024C27.108 329.944 26.748 328.324 26.208 327.316C27.288 327.388 28.224 327.424 28.8 327.424C29.268 327.424 29.556 327.316 29.844 326.776C30.492 325.768 30.744 320.908 30.96 306.508V305.644ZM12.996 315.22V316.84H20.484V315.22H12.996ZM12.996 311.26V312.844H20.484V311.26H12.996ZM10.26 308.668H23.364V319.432H10.26V308.668ZM15.228 309.532H18.144V318.46H18.504V327.316H14.868V318.46H15.228V309.532ZM25.416 297.544H29.088V310.072C29.088 316.948 28.404 325.696 23.472 331.384C22.788 330.7 21.384 329.62 20.448 329.116C24.912 323.932 25.416 315.976 25.416 310.072V297.544ZM6.804 297.544L10.656 298.624C8.82 304.852 5.832 311.584 2.412 315.904C2.124 314.86 1.116 312.376 0.468 311.224C3.096 307.84 5.436 302.692 6.804 297.544ZM4.392 307.444L8.208 303.628L8.244 303.664V331.312H4.392V307.444ZM65.304 302.08C64.152 302.908 62.964 303.844 62.136 304.528C59.796 306.4 55.044 310.072 52.632 312.16C50.724 313.78 50.76 314.212 52.704 315.904C55.404 318.172 62.244 323.536 65.916 327.1L61.74 330.988C60.732 329.836 59.652 328.72 58.572 327.64C56.412 325.372 51.12 320.836 47.808 318.064C44.244 315.004 44.532 313.06 48.132 310.072C50.94 307.768 55.908 303.772 58.32 301.396C59.364 300.388 60.516 299.2 61.092 298.336L65.304 302.08ZM86.8694 300.784C87.8414 300.856 89.1014 300.928 89.8574 300.928C91.9454 300.928 95.7614 300.784 97.4174 300.64C98.3174 300.568 99.2534 300.352 99.9014 300.1L102.745 302.368C102.277 302.908 101.845 303.376 101.557 303.844C100.333 305.896 98.3894 310.54 96.7694 314.284C95.3294 317.596 93.6014 321.88 92.1254 324.148C90.6854 326.344 88.9934 327.316 86.5094 327.316C83.3774 327.316 81.0014 325.156 81.0014 321.484C81.0014 315.724 86.5094 311.296 94.2134 311.296C102.601 311.296 109.945 315.76 113.725 318.352L111.637 323.356C107.209 319.432 100.873 315.328 93.4574 315.328C88.2014 315.328 85.1774 318.172 85.1774 320.8C85.1774 321.988 85.8614 322.6 86.7254 322.6C87.4454 322.6 87.9134 322.276 88.5974 321.376C89.7854 319.612 91.0814 316.3 92.3774 313.456C93.6374 310.612 95.1134 307.084 96.1934 304.852C94.7534 304.888 91.6214 304.996 90.0014 305.104C89.2454 305.14 87.9854 305.284 87.0494 305.392L86.8694 300.784ZM110.557 309.28C110.053 319.504 108.037 326.128 99.4334 330.592L95.5814 327.46C104.473 323.644 105.553 316.912 105.877 312.7C105.949 311.296 105.985 309.856 105.841 308.74L110.557 309.28ZM138.853 301.288C138.457 301.756 138.097 302.368 137.701 302.98C135.901 305.536 133.381 310.144 131.617 313.348C132.949 312.556 134.353 312.232 135.721 312.232C138.421 312.232 140.041 313.924 140.185 316.948C140.257 318.532 140.185 321.412 140.365 322.924C140.509 324.328 141.481 324.904 142.669 324.904C145.801 324.904 147.745 320.836 148.753 316.372L152.677 319.54C150.769 325.732 147.457 329.836 141.913 329.836C137.917 329.836 136.081 327.424 135.901 324.832C135.793 322.888 135.793 319.972 135.685 318.496C135.577 317.236 134.893 316.48 133.597 316.48C131.149 316.48 129.097 319 127.837 321.916C126.865 324.004 125.641 328.036 125.101 329.944L120.025 328.216C122.653 321.016 130.033 306.328 131.977 302.872C132.409 301.936 133.093 300.748 133.741 299.236L138.853 301.288ZM159.913 304.42C161.461 304.6 163.405 304.672 164.701 304.672C169.165 304.672 174.025 303.916 177.517 302.8L177.625 306.976C174.529 307.84 169.345 308.776 164.737 308.74C163.297 308.74 161.785 308.704 160.237 308.632L159.913 304.42ZM173.917 299.02C173.449 300.928 172.585 304.456 171.613 307.516C169.957 312.7 166.717 319.396 163.657 323.644L159.301 321.412C162.541 317.452 165.781 311.152 167.185 307.264C168.049 304.672 168.841 301.324 168.949 298.552L173.917 299.02ZM182.377 310.252C182.269 311.764 182.305 313.276 182.341 314.86C182.413 316.984 182.737 322.348 182.737 324.364C182.737 327.712 180.937 330.34 175.789 330.34C171.325 330.34 167.797 328.324 167.797 324.364C167.797 320.872 170.749 318.136 175.753 318.136C182.053 318.136 187.021 321.304 190.009 324.004L187.633 327.892C185.041 325.48 180.937 321.772 175.501 321.772C173.413 321.772 172.045 322.672 172.045 323.932C172.045 325.264 173.197 326.2 175.177 326.2C177.625 326.2 178.417 324.832 178.417 322.816C178.417 320.656 178.021 314.032 177.841 310.252H182.377ZM188.569 312.16C186.481 310.468 182.377 308.128 179.893 307.012L182.233 303.484C184.825 304.6 189.253 307.012 191.125 308.344L188.569 312.16ZM198.325 303.34C199.729 303.304 201.169 303.232 201.853 303.16C204.841 302.872 210.781 302.368 217.369 301.792C221.113 301.504 225.037 301.252 227.593 301.144L227.629 305.788C225.685 305.788 222.589 305.824 220.645 306.256C216.325 307.408 213.049 312.088 213.049 316.372C213.049 322.276 218.593 324.436 224.677 324.724L222.985 329.656C215.461 329.188 208.333 325.12 208.333 317.308C208.333 312.16 211.249 308.056 213.661 306.22C210.313 306.58 202.933 307.372 198.793 308.272L198.325 303.34ZM222.481 309.316C223.345 310.576 224.641 312.772 225.325 314.212L222.625 315.4C221.689 313.456 220.933 312.016 219.817 310.432L222.481 309.316ZM226.477 307.66C227.413 308.92 228.781 311.044 229.537 312.448L226.837 313.744C225.865 311.8 225.037 310.432 223.885 308.848L226.477 307.66ZM236.629 308.272C237.961 308.056 239.761 307.588 241.093 307.192C243.829 306.328 251.173 303.772 256.465 303.772C262.945 303.772 268.093 307.516 268.093 314.176C268.093 322.312 260.317 327.532 247.645 328.18L245.521 323.392C255.277 323.176 262.945 320.368 262.945 314.068C262.945 310.684 260.605 308.128 256.285 308.128C250.957 308.128 242.461 311.692 238.681 313.348L236.629 308.272ZM300.025 302.08C298.873 302.908 297.685 303.844 296.857 304.528C294.517 306.4 289.765 310.072 287.353 312.16C285.445 313.78 285.481 314.212 287.425 315.904C290.125 318.172 296.965 323.536 300.637 327.1L296.461 330.988C295.453 329.836 294.373 328.72 293.293 327.64C291.133 325.372 285.841 320.836 282.529 318.064C278.965 315.004 279.253 313.06 282.853 310.072C285.661 307.768 290.629 303.772 293.041 301.396C294.085 300.388 295.237 299.2 295.813 298.336L300.025 302.08ZM319.698 300.604C320.706 300.712 321.93 300.784 322.938 300.784C324.882 300.784 332.55 300.604 334.602 300.424C336.114 300.316 336.942 300.172 337.374 300.028L339.678 303.268C338.85 303.808 337.986 304.312 337.194 304.924C335.25 306.292 331.47 309.46 329.166 311.26C330.39 310.936 331.47 310.864 332.586 310.864C338.706 310.864 343.35 314.68 343.35 319.9C343.35 325.588 339.03 330.088 330.318 330.088C325.314 330.088 321.534 327.82 321.534 324.184C321.534 321.268 324.198 318.604 328.014 318.604C332.946 318.604 335.682 321.916 335.79 325.876L331.578 326.416C331.506 323.824 330.138 322.024 328.014 322.024C326.682 322.024 325.782 322.852 325.782 323.788C325.782 325.12 327.258 326.02 329.454 326.02C335.538 326.02 338.634 323.716 338.634 319.864C338.634 316.588 335.394 314.392 331.182 314.392C325.638 314.392 322.074 317.344 318.222 321.7L314.946 318.316C317.502 316.3 321.858 312.628 323.946 310.864C325.962 309.208 329.742 306.184 331.506 304.6C329.67 304.672 324.702 304.852 322.758 304.996C321.786 305.068 320.67 305.14 319.842 305.284L319.698 300.604ZM357.606 319.108C360.846 319.108 363.438 321.7 363.438 324.904C363.438 328.144 360.846 330.736 357.606 330.736C354.402 330.736 351.774 328.144 351.774 324.904C351.774 321.7 354.402 319.108 357.606 319.108ZM357.606 328.144C359.406 328.144 360.846 326.704 360.846 324.904C360.846 323.14 359.406 321.7 357.606 321.7C355.842 321.7 354.366 323.14 354.366 324.904C354.366 326.704 355.842 328.144 357.606 328.144Z" fill="#212121"/>
<path d="M1.14 12.35H28.92V16.28H1.14V12.35ZM47.19 3.56H58.23V6.56H47.19V3.56ZM50.97 19.43H59.85V22.25H50.97V19.43ZM50.88 24.5H59.97V27.47H50.88V24.5ZM46.23 9.08H63.51V12.14H46.23V9.08ZM51.33 0.559999H54.66V10.94H51.33V0.559999ZM39.87 0.559999L42.99 1.64C41.76 3.98 40.38 6.65 39.24 8.33L36.84 7.34C37.89 5.54 39.18 2.63 39.87 0.559999ZM43.26 4.1L46.17 5.45C43.98 8.81 41.07 12.98 38.76 15.56L36.69 14.39C38.94 11.69 41.67 7.31 43.26 4.1ZM35.22 7.55L36.99 5.15C38.55 6.56 40.38 8.51 41.1 9.92L39.15 12.68C38.49 11.21 36.72 9.08 35.22 7.55ZM42.24 11.3L44.73 10.25C45.9 12.23 47.04 14.84 47.43 16.55L44.7 17.78C44.4 16.07 43.32 13.37 42.24 11.3ZM35.13 13.7C37.83 13.55 41.7 13.34 45.45 13.1L45.48 16.04C41.97 16.31 38.31 16.58 35.52 16.79L35.13 13.7ZM43.05 18.83L45.57 18.05C46.29 19.73 46.89 21.92 47.1 23.36L44.43 24.23C44.28 22.76 43.71 20.54 43.05 18.83ZM36.42 18.17L39.3 18.65C39 21.53 38.37 24.5 37.5 26.42C36.9 26.03 35.58 25.46 34.89 25.16C35.73 23.39 36.18 20.69 36.42 18.17ZM39.72 15.29H42.81V28.7H39.72V15.29ZM60.15 1.13L63.27 2.12C60.36 9.89 55.14 15.68 47.37 19.52C46.95 18.8 45.93 17.57 45.24 17C52.56 13.61 57.72 7.97 60.15 1.13ZM52.29 14.33H59.94V17.27H52.29V28.67H49.05V16.13L50.76 14.33H52.29ZM58.41 14.33H61.89V28.7H58.41V14.33ZM82.41 5.03C86.1 5.54 92.1 5.39 95.31 5V8.87C91.65 9.23 86.19 9.23 82.44 8.87L82.41 5.03ZM84.81 17.84C84.57 18.86 84.45 19.58 84.45 20.36C84.45 21.71 85.62 22.52 88.68 22.52C91.35 22.52 93.57 22.28 96.18 21.71L96.27 25.76C94.32 26.15 91.89 26.36 88.5 26.36C83.34 26.36 80.85 24.5 80.85 21.44C80.85 20.24 81.03 19.07 81.39 17.54L84.81 17.84ZM77.79 3.02C77.58 3.65 77.19 5.18 77.07 5.72C76.65 7.7 75.6 13.7 75.6 16.7C75.6 17.3 75.63 18.05 75.72 18.65C76.17 17.63 76.65 16.61 77.1 15.59L78.96 17.06C78.09 19.58 77.1 22.82 76.8 24.41C76.71 24.86 76.62 25.52 76.62 25.82C76.65 26.15 76.65 26.66 76.68 27.08L73.23 27.29C72.63 25.25 72.06 21.59 72.06 17.51C72.06 12.98 72.96 7.94 73.29 5.6C73.41 4.79 73.56 3.65 73.59 2.69L77.79 3.02ZM115.92 2.93H118.95V11.15H115.92V2.93ZM111.72 5.99H123.24V8.57H111.72V5.99ZM123.12 7.37H130.41V10.46H123.12V7.37ZM111.99 20.27H123V22.88H111.99V20.27ZM121.53 1.31L123.3 3.86C120.15 4.55 115.89 4.97 112.35 5.12C112.26 4.43 111.9 3.38 111.6 2.69C114.99 2.39 119.01 1.91 121.53 1.31ZM111.33 25.04C114.3 24.83 118.74 24.47 123.06 24.08L123.09 26.69C119.1 27.2 114.93 27.62 111.78 27.98L111.33 25.04ZM129.3 7.37H132.33C132.33 7.37 132.3 8.42 132.3 8.84C132.06 21.38 131.91 25.79 131.07 27.05C130.5 27.95 129.96 28.25 129.12 28.4C128.37 28.55 127.29 28.58 126.15 28.52C126.09 27.62 125.79 26.27 125.34 25.43C126.24 25.49 127.02 25.52 127.5 25.52C127.89 25.52 128.13 25.43 128.37 24.98C128.91 24.14 129.12 20.09 129.3 8.09V7.37ZM114.33 15.35V16.7H120.57V15.35H114.33ZM114.33 12.05V13.37H120.57V12.05H114.33ZM112.05 9.89H122.97V18.86H112.05V9.89ZM116.19 10.61H118.62V18.05H118.92V25.43H115.89V18.05H116.19V10.61ZM124.68 0.62H127.74V11.06C127.74 16.79 127.17 24.08 123.06 28.82C122.49 28.25 121.32 27.35 120.54 26.93C124.26 22.61 124.68 15.98 124.68 11.06V0.62ZM109.17 0.62L112.38 1.52C110.85 6.71 108.36 12.32 105.51 15.92C105.27 15.05 104.43 12.98 103.89 12.02C106.08 9.2 108.03 4.91 109.17 0.62ZM107.16 8.87L110.34 5.69L110.37 5.72V28.76H107.16V8.87ZM161.34 2.15C161.22 2.81 161.19 3.53 161.19 4.22C161.13 5.6 161.19 11.27 161.19 13.04C161.19 20.09 160.65 24.47 154.68 28.25L151.2 25.55C152.37 25.04 153.87 24.08 154.71 23.15C156.99 20.75 157.5 18.05 157.5 13.01C157.5 10.76 157.44 5.9 157.29 4.22C157.23 3.5 157.08 2.63 156.96 2.15H161.34ZM149.49 8.03C150.96 8.24 152.43 8.33 154.05 8.33C157.92 8.33 162.72 8.06 165.66 7.52V11.42C162.81 11.75 158.19 11.99 154.14 11.99C152.82 11.99 150.99 11.9 149.49 11.81V8.03ZM146.4 2.66C146.16 3.41 145.86 4.49 145.71 5.12C144.96 8.45 143.88 14.75 144.69 18.47C145.08 17.54 145.65 16.07 146.13 14.99L148.02 16.19C147.12 18.77 146.34 21.77 145.98 23.48C145.86 23.96 145.77 24.62 145.8 24.95C145.8 25.28 145.83 25.79 145.86 26.21L142.5 26.54C141.84 24.71 140.79 20.54 140.79 16.82C140.79 11.9 141.39 7.28 141.78 4.82C141.9 4.01 141.93 2.99 141.96 2.24L146.4 2.66ZM179.1 3.17C179.94 3.26 180.96 3.32 181.8 3.32C183.42 3.32 189.81 3.17 191.52 3.02C192.78 2.93 193.47 2.81 193.83 2.69L195.75 5.39C195.06 5.84 194.34 6.26 193.68 6.77C192.06 7.91 188.91 10.55 186.99 12.05C188.01 11.78 188.91 11.72 189.84 11.72C194.94 11.72 198.81 14.9 198.81 19.25C198.81 23.99 195.21 27.74 187.95 27.74C183.78 27.74 180.63 25.85 180.63 22.82C180.63 20.39 182.85 18.17 186.03 18.17C190.14 18.17 192.42 20.93 192.51 24.23L189 24.68C188.94 22.52 187.8 21.02 186.03 21.02C184.92 21.02 184.17 21.71 184.17 22.49C184.17 23.6 185.4 24.35 187.23 24.35C192.3 24.35 194.88 22.43 194.88 19.22C194.88 16.49 192.18 14.66 188.67 14.66C184.05 14.66 181.08 17.12 177.87 20.75L175.14 17.93C177.27 16.25 180.9 13.19 182.64 11.72C184.32 10.34 187.47 7.82 188.94 6.5C187.41 6.56 183.27 6.71 181.65 6.83C180.84 6.89 179.91 6.95 179.22 7.07L179.1 3.17ZM214.2 0.62L217.59 1.67C215.7 6.77 212.67 12.2 209.46 15.65C209.13 14.75 208.14 12.77 207.54 11.9C210.18 9.17 212.73 4.91 214.2 0.62ZM211.26 8.96L214.65 5.54L214.68 5.57V28.67H211.26V8.96ZM216.84 6.56H235.26V20.69H231.69V9.89H220.26V20.93H216.84V6.56ZM218.76 15.8H233.58V19.1H218.76V15.8ZM224.13 0.89H227.7V28.67H224.13V0.89ZM252.36 18.83H260.58V21.41H252.36V18.83ZM252.15 14.39H262.26V25.91H252.15V23.27H258.9V17.03H252.15V14.39ZM250.68 14.39H253.92V27.44H250.68V14.39ZM245.64 5.84H253.17V8.27H245.64V5.84ZM259.56 5.84H267.15V8.27H259.56V5.84ZM265.68 1.67H269.31V24.44C269.31 26.39 268.92 27.44 267.72 28.04C266.52 28.64 264.78 28.7 262.2 28.7C262.05 27.68 261.51 26 261.03 25.04C262.59 25.13 264.42 25.1 264.96 25.1C265.5 25.1 265.68 24.92 265.68 24.41V1.67ZM245.94 1.67H255.42V12.56H245.94V9.98H252.06V4.28H245.94V1.67ZM267.6 1.67V4.28H260.88V10.07H267.6V12.65H257.46V1.67H267.6ZM243.87 1.67H247.44V28.7H243.87V1.67ZM290.58 1.94C290.34 3.05 289.95 4.82 289.11 6.98C288.48 8.45 287.61 10.16 286.77 11.36C287.58 11 289.17 10.79 290.19 10.79C292.68 10.79 294.57 12.26 294.57 15.05C294.57 16.67 294.66 19.94 294.69 21.83H291.09C291.21 20.42 291.27 17.87 291.24 16.25C291.24 14.33 290.04 13.7 288.78 13.7C287.13 13.7 285.24 14.69 284.1 15.77C283.2 16.67 282.36 17.75 281.34 19.07L278.13 16.67C281.97 13.13 284.28 9.89 285.54 6.59C286.14 4.97 286.53 3.14 286.62 1.61L290.58 1.94ZM279.27 4.73C280.8 4.94 283.02 5.06 284.55 5.06C288.51 5.06 293.94 4.85 298.29 4.07L298.26 7.55C294.03 8.15 288 8.42 284.34 8.42C283.11 8.42 280.92 8.36 279.27 8.21V4.73ZM303.03 13.25C302.1 13.52 300.48 14.12 299.46 14.51C297.51 15.26 294.81 16.34 291.99 17.78C289.26 19.19 287.79 20.48 287.79 22.13C287.79 23.78 289.23 24.23 292.14 24.23C294.69 24.23 298.05 23.9 300.69 23.36L300.57 27.23C298.56 27.5 294.9 27.77 292.05 27.77C287.37 27.77 283.86 26.6 283.86 22.73C283.86 18.56 288.15 16.1 291.75 14.3C294.51 12.86 296.4 12.14 298.2 11.3C299.37 10.79 300.42 10.31 301.56 9.74L303.03 13.25ZM316.59 20.87H332.04V23.42H316.59V20.87ZM312.03 16.04H339V18.83H312.03V16.04ZM320.79 14.18L324.27 14.72C322.35 18.71 319.02 21.8 313.14 23.9C312.75 23.09 311.79 21.86 311.1 21.35C316.53 19.73 319.47 17.09 320.79 14.18ZM331.62 16.94C333.3 18.89 336.66 20.6 339.99 21.35C339.24 22.04 338.22 23.36 337.74 24.23C334.2 23.09 330.84 20.72 328.86 17.99L331.62 16.94ZM330.78 20.87H334.2C334.2 20.87 334.17 21.65 334.11 22.07C333.81 25.31 333.45 26.9 332.76 27.62C332.16 28.22 331.47 28.4 330.57 28.49C329.79 28.58 328.41 28.58 326.94 28.55C326.88 27.65 326.55 26.48 326.1 25.7C327.3 25.82 328.44 25.85 328.98 25.85C329.43 25.85 329.67 25.79 329.94 25.58C330.33 25.22 330.57 24.02 330.78 21.26V20.87ZM323.1 19.28H326.52C325.86 24.29 324.15 27.32 316.17 28.85C315.87 28.01 315.06 26.75 314.46 26.12C321.42 25.01 322.59 22.94 323.1 19.28ZM312.42 2.12H338.58V4.97H312.42V2.12ZM318.72 0.529999H322.23V6.02H318.72V0.529999ZM328.65 0.529999H332.19V6.02H328.65V0.529999ZM318.72 11.69V12.86H332.25V11.69H318.72ZM318.72 8.54V9.71H332.25V8.54H318.72ZM315.27 6.47H335.88V14.96H315.27V6.47ZM346.44 18.98H373.56V21.86H346.44V18.98ZM352.2 7.82H370.38V10.16H352.2V7.82ZM352.2 11.42H370.41V13.76H352.2V11.42ZM351.48 3.77H371.88V6.59H351.48V3.77ZM358.95 5.54H362.4V16.07H358.95V5.54ZM358.11 17.06H361.71V28.67H358.11V17.06ZM357.84 20.18L360.54 21.5C357.45 24.56 352.29 27.2 347.73 28.52C347.22 27.62 346.2 26.3 345.42 25.55C349.98 24.59 355.17 22.49 357.84 20.18ZM362.1 20.09C364.68 22.37 369.75 24.47 374.25 25.46C373.5 26.18 372.51 27.5 372 28.37C367.47 27.08 362.43 24.44 359.37 21.44L362.1 20.09ZM360.45 0.529999L364.5 1.01C363.54 2.81 362.46 4.49 361.62 5.66L358.44 5.03C359.19 3.74 360.03 1.88 360.45 0.529999ZM352.77 0.47L356.46 1.19C354.45 4.7 351.81 8.15 348.12 11.12C347.55 10.31 346.38 9.2 345.57 8.69C348.93 6.26 351.39 3.11 352.77 0.47ZM349.86 5.6H353.28V15.05H372.75V17.78H349.86V5.6ZM390.63 2.21C390.45 3.47 390.3 5.03 390.24 6.23C390.09 9.47 389.88 16.16 389.88 19.88C389.88 22.91 391.68 23.9 394.02 23.9C398.97 23.9 402.09 21.05 404.28 17.78L407.01 21.11C405.06 23.99 400.8 27.98 393.96 27.98C389.04 27.98 385.89 25.82 385.89 20.69C385.89 16.67 386.16 8.81 386.16 6.23C386.16 4.79 386.04 3.35 385.8 2.18L390.63 2.21ZM415.222 5.39C416.392 5.36 417.592 5.3 418.162 5.24C420.682 5 425.602 4.58 431.122 4.1C434.212 3.83 437.482 3.65 439.612 3.56L439.642 7.43C438.022 7.43 435.442 7.46 433.822 7.82C430.222 8.78 427.492 12.68 427.492 16.22C427.492 21.17 432.112 22.94 437.182 23.21L435.802 27.32C429.502 26.93 423.562 23.54 423.562 17.03C423.562 12.71 425.992 9.32 428.032 7.79C425.212 8.09 419.092 8.72 415.612 9.5L415.222 5.39ZM455.362 4.58C455.152 5.63 455.002 7.4 455.002 8.24C455.002 10.19 455.002 12.41 455.182 14.6C455.602 18.92 456.502 21.89 458.392 21.89C459.832 21.89 461.002 18.35 461.572 15.98L464.602 19.61C462.592 24.86 460.732 26.66 458.332 26.66C455.002 26.66 452.152 23.72 451.312 15.68C451.012 12.92 450.982 9.38 450.982 7.55C450.982 6.74 450.952 5.45 450.742 4.52L455.362 4.58ZM470.362 5.24C473.212 8.69 475.522 16.19 475.852 20.78L471.892 22.34C471.442 17.48 469.822 10.22 466.552 6.5L470.362 5.24ZM500.002 1.76C499.912 2.36 499.822 3.11 499.792 3.89C499.732 5.42 499.702 9.68 499.702 12.2C499.702 15.5 500.182 20.93 500.182 23.3C500.182 25.88 498.232 27.86 494.302 27.86C489.502 27.86 486.982 26.03 486.982 22.85C486.982 19.82 489.772 17.69 494.362 17.69C500.962 17.69 505.882 20.93 508.372 23.03L506.212 26.39C503.362 23.69 499.012 20.78 493.882 20.78C491.782 20.78 490.612 21.59 490.612 22.64C490.612 23.78 491.662 24.47 493.732 24.47C495.322 24.47 496.402 24.02 496.402 22.28C496.402 20.48 496.072 15.11 496.072 12.2C496.072 9.32 496.102 5.51 496.102 3.8C496.102 3.26 496.042 2.33 495.922 1.76H500.002ZM487.552 4.55C489.682 4.91 493.132 5.21 494.962 5.21C499.042 5.21 502.972 5 507.352 4.31L507.322 7.73C504.262 8.15 499.492 8.51 494.992 8.51C493.072 8.51 489.592 8.24 487.612 8L487.552 4.55ZM487.372 11.03C489.352 11.39 493.012 11.6 494.602 11.6C500.152 11.6 504.022 11.24 507.712 10.76L507.682 14.3C503.542 14.78 500.272 14.96 494.572 14.96C492.802 14.96 489.412 14.81 487.432 14.57L487.372 11.03ZM536.182 1.82C536.092 2.33 536.002 3.92 535.972 4.4C535.882 6.38 535.942 12.5 535.972 14.9L532.222 13.64C532.222 11.78 532.222 6.02 532.102 4.43C532.012 3.23 531.892 2.21 531.832 1.82H536.182ZM519.202 5.57C523.672 5.57 531.592 5.33 535.342 5.33C538.402 5.33 542.962 5.3 544.642 5.33L544.582 8.87C542.722 8.78 539.662 8.69 535.252 8.69C529.792 8.69 523.822 8.93 519.292 9.17L519.202 5.57ZM535.462 14.45C535.462 19.34 533.662 21.77 530.212 21.77C527.902 21.77 525.022 19.94 525.022 16.28C525.022 12.89 527.782 10.67 531.022 10.67C534.982 10.67 537.052 13.58 537.052 17.3C537.052 21.23 534.742 26.18 527.422 28.25L524.242 25.07C529.342 23.96 533.332 21.95 533.332 16.7C533.332 14.75 532.282 13.82 530.962 13.82C529.792 13.82 528.622 14.63 528.622 16.22C528.622 17.57 529.732 18.44 530.962 18.44C532.372 18.44 533.602 17.24 532.642 13.67L535.462 14.45Z" fill="#212121"/>
</svg>
