<svg width="150" height="152" viewBox="0 0 150 152" fill="none" xmlns="http://www.w3.org/2000/svg">
<path d="M63.7763 66.6797L50.565 68.0912C48.9647 65.3023 46.8357 62.7897 44.1888 60.6537C32.7311 51.4081 15.9745 53.1984 6.72884 64.656C-2.51683 76.1136 -0.726544 92.8702 10.7311 102.116C22.1887 111.362 38.9453 109.571 48.191 98.1137C50.3269 95.4667 51.8585 92.5461 52.852 89.4969L66.0633 88.0854L67.4748 101.297C64.6859 102.897 62.1732 105.026 60.0373 107.673C50.7917 119.131 52.5819 135.887 64.0396 145.133C75.4972 154.379 92.2538 152.588 101.499 141.131C110.745 129.673 108.955 112.916 97.4973 103.671C94.8503 101.535 91.9297 100.003 88.8805 99.0097L78.7784 4.45687C78.5247 2.08218 76.4146 0.379425 74.0399 0.633139C64.5746 1.64442 57.7337 10.122 58.745 19.5873L63.7763 66.6797ZM95.0279 84.9908L134.561 80.767C144.027 79.7558 150.868 71.2782 149.856 61.8129C149.603 59.4382 147.493 57.7355 145.118 57.9892L92.7409 63.5852L95.0279 84.9908ZM20.2904 90.2696C19.1237 89.3281 18.1538 88.1659 17.4361 86.8496C16.7185 85.5333 16.2671 84.0885 16.1079 82.5977C15.9486 81.1069 16.0845 79.5994 16.5078 78.1611C16.9312 76.7229 17.6337 75.3821 18.5752 74.2153C19.5167 73.0486 20.6788 72.0787 21.9951 71.361C23.3115 70.6434 24.7563 70.192 26.2471 70.0327C27.7378 69.8735 29.2454 70.0094 30.6836 70.4327C32.1219 70.8561 33.4627 71.5586 34.6294 72.5001C35.7962 73.4416 36.7661 74.6037 37.4837 75.92C38.2014 77.2364 38.6527 78.6812 38.812 80.172C38.9713 81.6627 38.8354 83.1703 38.412 84.6085C37.9887 86.0468 37.2862 87.3876 36.3447 88.5543C35.4032 89.7211 34.2411 90.691 32.9247 91.4086C31.6084 92.1263 30.1636 92.5776 28.6728 92.7369C27.182 92.8962 25.6745 92.7602 24.2362 92.3369C22.798 91.9136 21.4572 91.2111 20.2904 90.2696ZM71.8837 117.232C72.8252 116.066 73.9873 115.096 75.3036 114.378C76.62 113.66 78.0648 113.209 79.5556 113.05C81.0463 112.89 82.5539 113.026 83.9921 113.45C85.4304 113.873 86.7712 114.576 87.9379 115.517C89.1047 116.459 90.0746 117.621 90.7922 118.937C91.5099 120.253 91.9612 121.698 92.1205 123.189C92.2798 124.68 92.1438 126.187 91.7205 127.626C91.2972 129.064 90.5947 130.405 89.6532 131.571C88.7116 132.738 87.5495 133.708 86.2332 134.426C84.9169 135.143 83.4721 135.595 81.9813 135.754C80.4905 135.913 78.9829 135.777 77.5447 135.354C76.1065 134.931 74.7657 134.228 73.5989 133.287C72.4321 132.345 71.4623 131.183 70.7446 129.867C70.027 128.55 69.5756 127.105 69.4163 125.615C69.2571 124.124 69.393 122.616 69.8163 121.178C70.2397 119.74 70.9422 118.399 71.8837 117.232Z" fill="url(#paint0_linear_68_16)" fill-opacity="0.8"/>
<defs>
<linearGradient id="paint0_linear_68_16" x1="112.744" y1="30.2374" x2="37.3853" y2="123.624" gradientUnits="userSpaceOnUse">
<stop stop-color="#EECDA3"/>
<stop offset="1" stop-color="#EF629F"/>
</linearGradient>
</defs>
</svg>
